<?xml version="1.0" encoding="UTF-8" standalone="no"?>
<!DOCTYPE svg PUBLIC "-//W3C//DTD SVG 1.1//EN"
 "http://www.w3.org/Graphics/SVG/1.1/DTD/svg11.dtd">
<!-- Generated by graphviz version 8.0.5 (20230508.1809)
 -->
<!-- Title: physical_directory_structure Pages: 1 -->
<svg width="616pt" height="428pt"
 viewBox="0.00 0.00 616.00 427.50" xmlns="http://www.w3.org/2000/svg" xmlns:xlink="http://www.w3.org/1999/xlink">
<g id="graph0" class="graph" transform="scale(1 1) rotate(0) translate(4 423.5)">
<title>physical_directory_structure</title>
<polygon fill="white" stroke="none" points="-4,4 -4,-423.5 612,-423.5 612,4 -4,4"/>
<g id="clust1" class="cluster">
<title>cluster_all</title>
<path fill="none" stroke="black" d="M20,-8C20,-8 588,-8 588,-8 594,-8 600,-14 600,-20 600,-20 600,-399.5 600,-399.5 600,-405.5 594,-411.5 588,-411.5 588,-411.5 20,-411.5 20,-411.5 14,-411.5 8,-405.5 8,-399.5 8,-399.5 8,-20 8,-20 8,-14 14,-8 20,-8"/>
<text text-anchor="middle" x="304" y="-394.2" font-family="monospace" font-size="14.00">Build environment using &quot;autotools&quot; ( Step.pre&#45;1 )</text>
</g>
<g id="clust2" class="cluster">
<title>cluster_program</title>
<polygon fill="none" stroke="black" points="386,-16 386,-378.25 592,-378.25 592,-16 386,-16"/>
<text text-anchor="middle" x="489" y="-362.85" font-family="monospace" font-size="12.00">Program</text>
</g>
<g id="clust4" class="cluster">
<title>cluster_file</title>
<polygon fill="none" stroke="black" points="16,-16 16,-378.25 344,-378.25 344,-16 16,-16"/>
<text text-anchor="middle" x="180" y="-362.85" font-family="monospace" font-size="12.00">Files</text>
</g>
<!-- program01 -->
<g id="node1" class="node">
<title>program01</title>
<polygon fill="none" stroke="black" stroke-width="2" points="584,-348 394,-348 394,-312 584,-312 584,-348"/>
<text text-anchor="middle" x="489" y="-333.25" font-family="monospace" font-size="10.00">( Step.pre&#45;1 )</text>
<text text-anchor="middle" x="489" y="-320.5" font-family="monospace" font-size="10.00">./tools/gen_autotools_acam.pl</text>
</g>
<!-- program02 -->
<g id="node2" class="node">
<title>program02</title>
<polygon fill="none" stroke="black" points="584,-276 394,-276 394,-240 584,-240 584,-276"/>
<text text-anchor="middle" x="489" y="-261.25" font-family="monospace" font-size="10.00">( Step.1 )</text>
<text text-anchor="middle" x="489" y="-248.5" font-family="monospace" font-size="10.00">aclocal &#160;&#160;&#160;&#160;&#160;&#160;&#160;&#160;&#160;&#160;&#160;&#160;&#160;&#160;&#160;&#160;&#160;&#160;&#160;&#160;&#160;</text>
</g>
<!-- program01&#45;&gt;program02 -->
<!-- file05 -->
<g id="node11" class="node">
<title>file05</title>
<polygon fill="none" stroke="black" stroke-width="2" points="330,-276 248,-276 248,-240 336,-240 336,-270 330,-276"/>
<polyline fill="none" stroke="black" stroke-width="2" points="330,-276 330,-270"/>
<polyline fill="none" stroke="black" stroke-width="2" points="336,-270 330,-270"/>
<text text-anchor="middle" x="292" y="-254.88" font-family="monospace" font-size="10.00">configure.ac</text>
</g>
<!-- program01&#45;&gt;file05 -->
<g id="edge31" class="edge">
<title>program01&#45;&gt;file05</title>
<path fill="none" stroke="black" d="M438.52,-311.06C410.6,-301.14 375.86,-288.8 347.22,-278.62"/>
<polygon fill="black" stroke="black" points="348.56,-275.03 337.97,-274.98 346.22,-281.62 348.56,-275.03"/>
</g>
<!-- file06 -->
<g id="node12" class="node">
<title>file06</title>
<polygon fill="none" stroke="black" stroke-width="2" points="330,-204 254,-204 254,-168 336,-168 336,-198 330,-204"/>
<polyline fill="none" stroke="black" stroke-width="2" points="330,-204 330,-198"/>
<polyline fill="none" stroke="black" stroke-width="2" points="336,-198 330,-198"/>
<text text-anchor="middle" x="295" y="-182.88" font-family="monospace" font-size="10.00">Makefile.am</text>
</g>
<!-- program01&#45;&gt;file06 -->
<g id="edge32" class="edge">
<title>program01&#45;&gt;file06</title>
<path fill="none" stroke="black" d="M441.97,-311.01C422.97,-302.29 401.64,-290.52 385,-276 370.32,-263.19 373.23,-254.29 360,-240 350.65,-229.9 339.34,-220.03 328.8,-211.6"/>
<polygon fill="black" stroke="black" points="331.22,-208.27 321.18,-204.89 326.91,-213.79 331.22,-208.27"/>
</g>
<!-- file10 -->
<g id="node16" class="node">
<title>file10</title>
<polygon fill="none" stroke="black" stroke-width="2" points="230,-204 118,-204 118,-168 236,-168 236,-198 230,-204"/>
<polyline fill="none" stroke="black" stroke-width="2" points="230,-204 230,-198"/>
<polyline fill="none" stroke="black" stroke-width="2" points="236,-198 230,-198"/>
<text text-anchor="middle" x="177" y="-182.88" font-family="monospace" font-size="10.00">tests/Makefile.am</text>
</g>
<!-- program01&#45;&gt;file10 -->
<g id="edge33" class="edge">
<title>program01&#45;&gt;file10</title>
<path fill="none" stroke="black" d="M417.78,-311.09C397.12,-303.1 375.88,-291.8 360,-276 347.71,-263.77 357.79,-251.7 345,-240 337.26,-232.92 289.57,-218.21 246.97,-206.08"/>
<polygon fill="black" stroke="black" points="248.14,-202.49 237.56,-203.13 246.23,-209.22 248.14,-202.49"/>
</g>
<!-- program03 -->
<g id="node3" class="node">
<title>program03</title>
<polygon fill="none" stroke="black" points="584,-204 394,-204 394,-168 584,-168 584,-204"/>
<text text-anchor="middle" x="489" y="-189.25" font-family="monospace" font-size="10.00">( Step.2 )</text>
<text text-anchor="middle" x="489" y="-176.5" font-family="monospace" font-size="10.00">autoconf &#160;&#160;&#160;&#160;&#160;&#160;&#160;&#160;&#160;&#160;&#160;&#160;&#160;&#160;&#160;&#160;&#160;&#160;&#160;&#160;</text>
</g>
<!-- program02&#45;&gt;program03 -->
<!-- program04 -->
<g id="node4" class="node">
<title>program04</title>
<polygon fill="none" stroke="black" points="584,-132 394,-132 394,-96 584,-96 584,-132"/>
<text text-anchor="middle" x="489" y="-117.25" font-family="monospace" font-size="10.00">( Step.3 )</text>
<text text-anchor="middle" x="489" y="-104.5" font-family="monospace" font-size="10.00">automake &#45;&#45;add&#45;missing &#45;&#45;copy</text>
</g>
<!-- program03&#45;&gt;program04 -->
<!-- program05 -->
<g id="node5" class="node">
<title>program05</title>
<polygon fill="none" stroke="black" stroke-dasharray="1,5" points="584,-60 394,-60 394,-24 584,-24 584,-60"/>
<text text-anchor="middle" x="489" y="-45.25" font-family="monospace" font-size="10.00">( Step.4 )</text>
<text text-anchor="middle" x="489" y="-32.5" font-family="monospace" font-size="10.00">./configure &#160;&#160;&#160;&#160;&#160;&#160;&#160;&#160;&#160;&#160;&#160;&#160;&#160;&#160;&#160;&#160;&#160;</text>
</g>
<!-- program04&#45;&gt;program05 -->
<!-- file13 -->
<g id="node6" class="node">
<title>file13</title>
<polygon fill="none" stroke="black" stroke-width="2" points="330,-348 116,-348 116,-312 336,-312 336,-342 330,-348"/>
<polyline fill="none" stroke="black" stroke-width="2" points="330,-348 330,-342"/>
<polyline fill="none" stroke="black" stroke-width="2" points="336,-342 330,-342"/>
<text text-anchor="middle" x="226" y="-326.88" font-family="monospace" font-size="10.00">tools/GenAutotoolsAcAm_UserFile.pm</text>
</g>
<!-- file13&#45;&gt;program01 -->
<!-- file13&#45;&gt;program01 -->
<g id="edge30" class="edge">
<title>file13&#45;&gt;program01</title>
<path fill="none" stroke="black" d="M336.95,-343.17C352.01,-343.65 367.06,-343.61 382.12,-343.03"/>
<polygon fill="black" stroke="black" points="382.26,-346.48 392.08,-342.51 381.93,-339.49 382.26,-346.48"/>
</g>
<!-- file01 -->
<g id="node7" class="node">
<title>file01</title>
<polygon fill="none" stroke="black" points="94,-276 24,-276 24,-240 100,-240 100,-270 94,-276"/>
<polyline fill="none" stroke="black" points="94,-276 94,-270"/>
<polyline fill="none" stroke="black" points="100,-270 94,-270"/>
<text text-anchor="middle" x="62" y="-254.88" font-family="monospace" font-size="10.00">docs/*.dot</text>
</g>
<!-- file13&#45;&gt;file01 -->
<!-- file13&#45;&gt;file05 -->
<!-- file09 -->
<g id="node15" class="node">
<title>file09</title>
<polygon fill="none" stroke="black" stroke-dasharray="1,5" points="224,-276 118,-276 118,-240 230,-240 230,-270 224,-276"/>
<polyline fill="none" stroke="black" stroke-dasharray="1,5" points="224,-276 224,-270"/>
<polyline fill="none" stroke="black" stroke-dasharray="1,5" points="230,-270 224,-270"/>
<text text-anchor="middle" x="174" y="-254.88" font-family="monospace" font-size="10.00">autom4te.cache/*</text>
</g>
<!-- file13&#45;&gt;file09 -->
<!-- file02 -->
<g id="node8" class="node">
<title>file02</title>
<polygon fill="none" stroke="black" points="94,-204 24,-204 24,-168 100,-168 100,-198 94,-204"/>
<polyline fill="none" stroke="black" points="94,-204 94,-198"/>
<polyline fill="none" stroke="black" points="100,-198 94,-198"/>
<text text-anchor="middle" x="62" y="-182.88" font-family="monospace" font-size="10.00">docs/*.svg</text>
</g>
<!-- file01&#45;&gt;file02 -->
<!-- file01&#45;&gt;file05 -->
<!-- file03 -->
<g id="node9" class="node">
<title>file03</title>
<polygon fill="none" stroke="black" stroke-dasharray="1,5" points="94,-132 24,-132 24,-96 100,-96 100,-126 94,-132"/>
<polyline fill="none" stroke="black" stroke-dasharray="1,5" points="94,-132 94,-126"/>
<polyline fill="none" stroke="black" stroke-dasharray="1,5" points="100,-126 94,-126"/>
<text text-anchor="middle" x="62" y="-110.88" font-family="monospace" font-size="10.00">aclocal.m4</text>
</g>
<!-- file02&#45;&gt;file03 -->
<!-- file02&#45;&gt;file06 -->
<!-- file04 -->
<g id="node10" class="node">
<title>file04</title>
<polygon fill="none" stroke="black" stroke-dasharray="1,5" points="95,-60 37,-60 37,-24 101,-24 101,-54 95,-60"/>
<polyline fill="none" stroke="black" stroke-dasharray="1,5" points="95,-60 95,-54"/>
<polyline fill="none" stroke="black" stroke-dasharray="1,5" points="101,-54 95,-54"/>
<text text-anchor="middle" x="69" y="-38.88" font-family="monospace" font-size="10.00">config.*</text>
</g>
<!-- file03&#45;&gt;file04 -->
<!-- file07 -->
<g id="node13" class="node">
<title>file07</title>
<polygon fill="none" stroke="black" stroke-dasharray="1,5" points="330,-132 254,-132 254,-96 336,-96 336,-126 330,-132"/>
<polyline fill="none" stroke="black" stroke-dasharray="1,5" points="330,-132 330,-126"/>
<polyline fill="none" stroke="black" stroke-dasharray="1,5" points="336,-126 330,-126"/>
<text text-anchor="middle" x="295" y="-110.88" font-family="monospace" font-size="10.00">Makefile.in</text>
</g>
<!-- file03&#45;&gt;file07 -->
<!-- file08 -->
<g id="node14" class="node">
<title>file08</title>
<polygon fill="none" stroke="black" stroke-dasharray="1,5" points="312,-60 254,-60 254,-24 318,-24 318,-54 312,-60"/>
<polyline fill="none" stroke="black" stroke-dasharray="1,5" points="312,-60 312,-54"/>
<polyline fill="none" stroke="black" stroke-dasharray="1,5" points="318,-54 312,-54"/>
<text text-anchor="middle" x="286" y="-38.88" font-family="monospace" font-size="10.00">Makefile</text>
</g>
<!-- file04&#45;&gt;file08 -->
<!-- file05&#45;&gt;file06 -->
<!-- file05&#45;&gt;file09 -->
<!-- file06&#45;&gt;file07 -->
<!-- file06&#45;&gt;file10 -->
<!-- file07&#45;&gt;file08 -->
<!-- file11 -->
<g id="node17" class="node">
<title>file11</title>
<polygon fill="none" stroke="black" stroke-dasharray="1,5" points="230,-132 118,-132 118,-96 236,-96 236,-126 230,-132"/>
<polyline fill="none" stroke="black" stroke-dasharray="1,5" points="230,-132 230,-126"/>
<polyline fill="none" stroke="black" stroke-dasharray="1,5" points="236,-126 230,-126"/>
<text text-anchor="middle" x="177" y="-110.88" font-family="monospace" font-size="10.00">tests/Makefile.in</text>
</g>
<!-- file07&#45;&gt;file11 -->
<!-- file12 -->
<g id="node18" class="node">
<title>file12</title>
<polygon fill="none" stroke="black" stroke-dasharray="1,5" points="230,-60 136,-60 136,-24 236,-24 236,-54 230,-60"/>
<polyline fill="none" stroke="black" stroke-dasharray="1,5" points="230,-60 230,-54"/>
<polyline fill="none" stroke="black" stroke-dasharray="1,5" points="236,-54 230,-54"/>
<text text-anchor="middle" x="186" y="-38.88" font-family="monospace" font-size="10.00">tests/Makefile</text>
</g>
<!-- file08&#45;&gt;file12 -->
<!-- file09&#45;&gt;program02 -->
<!-- file09&#45;&gt;file10 -->
<!-- file10&#45;&gt;program03 -->
<!-- file10&#45;&gt;file11 -->
<!-- file11&#45;&gt;program04 -->
<!-- file11&#45;&gt;file12 -->
<!-- file12&#45;&gt;program05 -->
</g>
</svg>
