<?xml version="1.0" encoding="UTF-8" standalone="no"?>
<!DOCTYPE svg PUBLIC "-//W3C//DTD SVG 1.1//EN"
 "http://www.w3.org/Graphics/SVG/1.1/DTD/svg11.dtd">
<!-- Generated by graphviz version 8.0.5 (20230508.1809)
 -->
<!-- Title: physical_directory_structure Pages: 1 -->
<svg width="582pt" height="428pt"
 viewBox="0.00 0.00 582.00 427.50" xmlns="http://www.w3.org/2000/svg" xmlns:xlink="http://www.w3.org/1999/xlink">
<g id="graph0" class="graph" transform="scale(1 1) rotate(0) translate(4 423.5)">
<title>physical_directory_structure</title>
<polygon fill="white" stroke="none" points="-4,4 -4,-423.5 578,-423.5 578,4 -4,4"/>
<g id="clust1" class="cluster">
<title>cluster_all</title>
<path fill="none" stroke="black" d="M20,-8C20,-8 554,-8 554,-8 560,-8 566,-14 566,-20 566,-20 566,-399.5 566,-399.5 566,-405.5 560,-411.5 554,-411.5 554,-411.5 20,-411.5 20,-411.5 14,-411.5 8,-405.5 8,-399.5 8,-399.5 8,-20 8,-20 8,-14 14,-8 20,-8"/>
<text text-anchor="middle" x="287" y="-394.2" font-family="monospace" font-size="14.00">Build environment using &quot;autotools&quot; ( Step.4 )</text>
</g>
<g id="clust2" class="cluster">
<title>cluster_program</title>
<polygon fill="none" stroke="black" points="352,-16 352,-378.25 558,-378.25 558,-16 352,-16"/>
<text text-anchor="middle" x="455" y="-362.85" font-family="monospace" font-size="12.00">Program</text>
</g>
<g id="clust4" class="cluster">
<title>cluster_file</title>
<polygon fill="none" stroke="black" points="16,-16 16,-378.25 344,-378.25 344,-16 16,-16"/>
<text text-anchor="middle" x="180" y="-362.85" font-family="monospace" font-size="12.00">Files</text>
</g>
<!-- program01 -->
<g id="node1" class="node">
<title>program01</title>
<polygon fill="none" stroke="black" points="550,-348 360,-348 360,-312 550,-312 550,-348"/>
<text text-anchor="middle" x="455" y="-333.25" font-family="monospace" font-size="10.00">( Step.pre&#45;1 )</text>
<text text-anchor="middle" x="455" y="-320.5" font-family="monospace" font-size="10.00">./tools/gen_autotools_acam.pl</text>
</g>
<!-- program02 -->
<g id="node2" class="node">
<title>program02</title>
<polygon fill="none" stroke="black" points="550,-276 360,-276 360,-240 550,-240 550,-276"/>
<text text-anchor="middle" x="455" y="-261.25" font-family="monospace" font-size="10.00">( Step.1 )</text>
<text text-anchor="middle" x="455" y="-248.5" font-family="monospace" font-size="10.00">aclocal &#160;&#160;&#160;&#160;&#160;&#160;&#160;&#160;&#160;&#160;&#160;&#160;&#160;&#160;&#160;&#160;&#160;&#160;&#160;&#160;&#160;</text>
</g>
<!-- program01&#45;&gt;program02 -->
<!-- program03 -->
<g id="node3" class="node">
<title>program03</title>
<polygon fill="none" stroke="black" points="550,-204 360,-204 360,-168 550,-168 550,-204"/>
<text text-anchor="middle" x="455" y="-189.25" font-family="monospace" font-size="10.00">( Step.2 )</text>
<text text-anchor="middle" x="455" y="-176.5" font-family="monospace" font-size="10.00">autoconf &#160;&#160;&#160;&#160;&#160;&#160;&#160;&#160;&#160;&#160;&#160;&#160;&#160;&#160;&#160;&#160;&#160;&#160;&#160;&#160;</text>
</g>
<!-- program02&#45;&gt;program03 -->
<!-- program04 -->
<g id="node4" class="node">
<title>program04</title>
<polygon fill="none" stroke="black" points="550,-132 360,-132 360,-96 550,-96 550,-132"/>
<text text-anchor="middle" x="455" y="-117.25" font-family="monospace" font-size="10.00">( Step.3 )</text>
<text text-anchor="middle" x="455" y="-104.5" font-family="monospace" font-size="10.00">automake &#45;&#45;add&#45;missing &#45;&#45;copy</text>
</g>
<!-- program03&#45;&gt;program04 -->
<!-- program05 -->
<g id="node5" class="node">
<title>program05</title>
<polygon fill="none" stroke="black" stroke-width="2" points="550,-60 360,-60 360,-24 550,-24 550,-60"/>
<text text-anchor="middle" x="455" y="-45.25" font-family="monospace" font-size="10.00">( Step.4 )</text>
<text text-anchor="middle" x="455" y="-32.5" font-family="monospace" font-size="10.00">./configure &#160;&#160;&#160;&#160;&#160;&#160;&#160;&#160;&#160;&#160;&#160;&#160;&#160;&#160;&#160;&#160;&#160;</text>
</g>
<!-- program04&#45;&gt;program05 -->
<!-- file04 -->
<g id="node10" class="node">
<title>file04</title>
<polygon fill="none" stroke="black" stroke-width="2" points="125,-60 67,-60 67,-24 131,-24 131,-54 125,-60"/>
<polyline fill="none" stroke="black" stroke-width="2" points="125,-60 125,-54"/>
<polyline fill="none" stroke="black" stroke-width="2" points="131,-54 125,-54"/>
<text text-anchor="middle" x="99" y="-38.88" font-family="monospace" font-size="10.00">config.*</text>
</g>
<!-- program05&#45;&gt;file04 -->
<g id="edge30" class="edge">
<title>program05&#45;&gt;file04</title>
<path fill="none" stroke="black" d="M405.53,-60.95C385.23,-67.77 361.31,-74.62 339,-78 255.51,-90.66 229.37,-103.92 149,-78 141.44,-75.56 134.06,-71.51 127.39,-66.98"/>
<polygon fill="black" stroke="black" points="129.91,-63.76 119.79,-60.63 125.75,-69.39 129.91,-63.76"/>
</g>
<!-- file08 -->
<g id="node14" class="node">
<title>file08</title>
<polygon fill="none" stroke="black" stroke-width="2" points="325,-60 267,-60 267,-24 331,-24 331,-54 325,-60"/>
<polyline fill="none" stroke="black" stroke-width="2" points="325,-60 325,-54"/>
<polyline fill="none" stroke="black" stroke-width="2" points="331,-54 325,-54"/>
<text text-anchor="middle" x="299" y="-38.88" font-family="monospace" font-size="10.00">Makefile</text>
</g>
<!-- program05&#45;&gt;file08 -->
<g id="edge32" class="edge">
<title>program05&#45;&gt;file08</title>
<path fill="none" stroke="black" d="M359.31,-42C353.75,-42 348.18,-42 342.61,-42"/>
<polygon fill="black" stroke="black" points="342.91,-38.5 332.91,-42 342.91,-45.5 342.91,-38.5"/>
</g>
<!-- file12 -->
<g id="node18" class="node">
<title>file12</title>
<polygon fill="none" stroke="black" stroke-width="2" points="243,-60 149,-60 149,-24 249,-24 249,-54 243,-60"/>
<polyline fill="none" stroke="black" stroke-width="2" points="243,-60 243,-54"/>
<polyline fill="none" stroke="black" stroke-width="2" points="249,-54 243,-54"/>
<text text-anchor="middle" x="199" y="-38.88" font-family="monospace" font-size="10.00">tests/Makefile</text>
</g>
<!-- program05&#45;&gt;file12 -->
<g id="edge34" class="edge">
<title>program05&#45;&gt;file12</title>
<path fill="none" stroke="black" d="M411.78,-60.89C373.48,-75.1 316.18,-90.22 267,-78 256.7,-75.44 246.25,-71.01 236.73,-66.11"/>
<polygon fill="black" stroke="black" points="238.65,-62.62 228.19,-60.89 235.29,-68.76 238.65,-62.62"/>
</g>
<!-- file13 -->
<g id="node6" class="node">
<title>file13</title>
<polygon fill="none" stroke="black" points="304,-348 90,-348 90,-312 310,-312 310,-342 304,-348"/>
<polyline fill="none" stroke="black" points="304,-348 304,-342"/>
<polyline fill="none" stroke="black" points="310,-342 304,-342"/>
<text text-anchor="middle" x="200" y="-326.88" font-family="monospace" font-size="10.00">tools/GenAutotoolsAcAm_UserFile.pm</text>
</g>
<!-- file13&#45;&gt;program01 -->
<!-- file01 -->
<g id="node7" class="node">
<title>file01</title>
<polygon fill="none" stroke="black" points="94,-276 24,-276 24,-240 100,-240 100,-270 94,-276"/>
<polyline fill="none" stroke="black" points="94,-276 94,-270"/>
<polyline fill="none" stroke="black" points="100,-270 94,-270"/>
<text text-anchor="middle" x="62" y="-254.88" font-family="monospace" font-size="10.00">docs/*.dot</text>
</g>
<!-- file13&#45;&gt;file01 -->
<!-- file05 -->
<g id="node11" class="node">
<title>file05</title>
<polygon fill="none" stroke="black" points="330,-276 248,-276 248,-240 336,-240 336,-270 330,-276"/>
<polyline fill="none" stroke="black" points="330,-276 330,-270"/>
<polyline fill="none" stroke="black" points="336,-270 330,-270"/>
<text text-anchor="middle" x="292" y="-254.88" font-family="monospace" font-size="10.00">configure.ac</text>
</g>
<!-- file13&#45;&gt;file05 -->
<!-- file09 -->
<g id="node15" class="node">
<title>file09</title>
<polygon fill="none" stroke="black" points="224,-276 118,-276 118,-240 230,-240 230,-270 224,-276"/>
<polyline fill="none" stroke="black" points="224,-276 224,-270"/>
<polyline fill="none" stroke="black" points="230,-270 224,-270"/>
<text text-anchor="middle" x="174" y="-254.88" font-family="monospace" font-size="10.00">autom4te.cache/*</text>
</g>
<!-- file13&#45;&gt;file09 -->
<!-- file02 -->
<g id="node8" class="node">
<title>file02</title>
<polygon fill="none" stroke="black" points="94,-204 24,-204 24,-168 100,-168 100,-198 94,-204"/>
<polyline fill="none" stroke="black" points="94,-204 94,-198"/>
<polyline fill="none" stroke="black" points="100,-198 94,-198"/>
<text text-anchor="middle" x="62" y="-182.88" font-family="monospace" font-size="10.00">docs/*.svg</text>
</g>
<!-- file01&#45;&gt;file02 -->
<!-- file01&#45;&gt;file05 -->
<!-- file03 -->
<g id="node9" class="node">
<title>file03</title>
<polygon fill="none" stroke="black" points="94,-132 24,-132 24,-96 100,-96 100,-126 94,-132"/>
<polyline fill="none" stroke="black" points="94,-132 94,-126"/>
<polyline fill="none" stroke="black" points="100,-126 94,-126"/>
<text text-anchor="middle" x="62" y="-110.88" font-family="monospace" font-size="10.00">aclocal.m4</text>
</g>
<!-- file02&#45;&gt;file03 -->
<!-- file06 -->
<g id="node12" class="node">
<title>file06</title>
<polygon fill="none" stroke="black" points="330,-204 254,-204 254,-168 336,-168 336,-198 330,-204"/>
<polyline fill="none" stroke="black" points="330,-204 330,-198"/>
<polyline fill="none" stroke="black" points="336,-198 330,-198"/>
<text text-anchor="middle" x="295" y="-182.88" font-family="monospace" font-size="10.00">Makefile.am</text>
</g>
<!-- file02&#45;&gt;file06 -->
<!-- file03&#45;&gt;file04 -->
<!-- file07 -->
<g id="node13" class="node">
<title>file07</title>
<polygon fill="none" stroke="black" stroke-width="2" points="330,-132 254,-132 254,-96 336,-96 336,-126 330,-132"/>
<polyline fill="none" stroke="black" stroke-width="2" points="330,-132 330,-126"/>
<polyline fill="none" stroke="black" stroke-width="2" points="336,-126 330,-126"/>
<text text-anchor="middle" x="295" y="-110.88" font-family="monospace" font-size="10.00">Makefile.in</text>
</g>
<!-- file03&#45;&gt;file07 -->
<!-- file04&#45;&gt;file08 -->
<!-- file05&#45;&gt;file06 -->
<!-- file05&#45;&gt;file09 -->
<!-- file06&#45;&gt;file07 -->
<!-- file10 -->
<g id="node16" class="node">
<title>file10</title>
<polygon fill="none" stroke="black" points="230,-204 118,-204 118,-168 236,-168 236,-198 230,-204"/>
<polyline fill="none" stroke="black" points="230,-204 230,-198"/>
<polyline fill="none" stroke="black" points="236,-198 230,-198"/>
<text text-anchor="middle" x="177" y="-182.88" font-family="monospace" font-size="10.00">tests/Makefile.am</text>
</g>
<!-- file06&#45;&gt;file10 -->
<!-- file07&#45;&gt;program05 -->
<g id="edge31" class="edge">
<title>file07&#45;&gt;program05</title>
<path fill="none" stroke="black" d="M335.79,-95.15C356.58,-86.06 382.07,-74.9 404.14,-65.25"/>
<polygon fill="black" stroke="black" points="405.25,-68.15 413.01,-60.93 402.44,-61.74 405.25,-68.15"/>
</g>
<!-- file07&#45;&gt;file08 -->
<!-- file11 -->
<g id="node17" class="node">
<title>file11</title>
<polygon fill="none" stroke="black" stroke-width="2" points="230,-132 118,-132 118,-96 236,-96 236,-126 230,-132"/>
<polyline fill="none" stroke="black" stroke-width="2" points="230,-132 230,-126"/>
<polyline fill="none" stroke="black" stroke-width="2" points="236,-126 230,-126"/>
<text text-anchor="middle" x="177" y="-110.88" font-family="monospace" font-size="10.00">tests/Makefile.in</text>
</g>
<!-- file07&#45;&gt;file11 -->
<!-- file08&#45;&gt;file12 -->
<!-- file09&#45;&gt;program02 -->
<!-- file09&#45;&gt;file10 -->
<!-- file10&#45;&gt;program03 -->
<!-- file10&#45;&gt;file11 -->
<!-- file11&#45;&gt;program04 -->
<!-- file11&#45;&gt;program05 -->
<g id="edge33" class="edge">
<title>file11&#45;&gt;program05</title>
<path fill="none" stroke="black" d="M236.98,-97.9C276.72,-87.89 329.36,-74.63 372.97,-63.66"/>
<polygon fill="black" stroke="black" points="373.71,-66.83 382.55,-60.99 372,-60.04 373.71,-66.83"/>
</g>
<!-- file11&#45;&gt;file12 -->
<!-- file12&#45;&gt;program05 -->
</g>
</svg>
