<?xml version="1.0" encoding="UTF-8" standalone="no"?>
<!DOCTYPE svg PUBLIC "-//W3C//DTD SVG 1.1//EN"
 "http://www.w3.org/Graphics/SVG/1.1/DTD/svg11.dtd">
<!-- Generated by graphviz version 8.0.5 (20230508.1809)
 -->
<!-- Title: physical_directory_structure Pages: 1 -->
<svg width="636pt" height="428pt"
 viewBox="0.00 0.00 636.00 427.50" xmlns="http://www.w3.org/2000/svg" xmlns:xlink="http://www.w3.org/1999/xlink">
<g id="graph0" class="graph" transform="scale(1 1) rotate(0) translate(4 423.5)">
<title>physical_directory_structure</title>
<polygon fill="white" stroke="none" points="-4,4 -4,-423.5 632,-423.5 632,4 -4,4"/>
<g id="clust1" class="cluster">
<title>cluster_all</title>
<path fill="none" stroke="black" d="M20,-8C20,-8 608,-8 608,-8 614,-8 620,-14 620,-20 620,-20 620,-399.5 620,-399.5 620,-405.5 614,-411.5 608,-411.5 608,-411.5 20,-411.5 20,-411.5 14,-411.5 8,-405.5 8,-399.5 8,-399.5 8,-20 8,-20 8,-14 14,-8 20,-8"/>
<text text-anchor="middle" x="314" y="-394.2" font-family="monospace" font-size="14.00">Build environment using &quot;autotools&quot; ( Step.3 )</text>
</g>
<g id="clust2" class="cluster">
<title>cluster_program</title>
<polygon fill="none" stroke="black" points="406,-16 406,-378.25 612,-378.25 612,-16 406,-16"/>
<text text-anchor="middle" x="509" y="-362.85" font-family="monospace" font-size="12.00">Program</text>
</g>
<g id="clust4" class="cluster">
<title>cluster_file</title>
<polygon fill="none" stroke="black" points="16,-16 16,-378.25 344,-378.25 344,-16 16,-16"/>
<text text-anchor="middle" x="180" y="-362.85" font-family="monospace" font-size="12.00">Files</text>
</g>
<!-- program01 -->
<g id="node1" class="node">
<title>program01</title>
<polygon fill="none" stroke="black" points="604,-348 414,-348 414,-312 604,-312 604,-348"/>
<text text-anchor="middle" x="509" y="-333.25" font-family="monospace" font-size="10.00">( Step.pre&#45;1 )</text>
<text text-anchor="middle" x="509" y="-320.5" font-family="monospace" font-size="10.00">./tools/gen_autotools_acam.pl</text>
</g>
<!-- program02 -->
<g id="node2" class="node">
<title>program02</title>
<polygon fill="none" stroke="black" points="604,-276 414,-276 414,-240 604,-240 604,-276"/>
<text text-anchor="middle" x="509" y="-261.25" font-family="monospace" font-size="10.00">( Step.1 )</text>
<text text-anchor="middle" x="509" y="-248.5" font-family="monospace" font-size="10.00">aclocal &#160;&#160;&#160;&#160;&#160;&#160;&#160;&#160;&#160;&#160;&#160;&#160;&#160;&#160;&#160;&#160;&#160;&#160;&#160;&#160;&#160;</text>
</g>
<!-- program01&#45;&gt;program02 -->
<!-- program03 -->
<g id="node3" class="node">
<title>program03</title>
<polygon fill="none" stroke="black" points="604,-204 414,-204 414,-168 604,-168 604,-204"/>
<text text-anchor="middle" x="509" y="-189.25" font-family="monospace" font-size="10.00">( Step.2 )</text>
<text text-anchor="middle" x="509" y="-176.5" font-family="monospace" font-size="10.00">autoconf &#160;&#160;&#160;&#160;&#160;&#160;&#160;&#160;&#160;&#160;&#160;&#160;&#160;&#160;&#160;&#160;&#160;&#160;&#160;&#160;</text>
</g>
<!-- program02&#45;&gt;program03 -->
<!-- program04 -->
<g id="node4" class="node">
<title>program04</title>
<polygon fill="none" stroke="black" stroke-width="2" points="604,-132 414,-132 414,-96 604,-96 604,-132"/>
<text text-anchor="middle" x="509" y="-117.25" font-family="monospace" font-size="10.00">( Step.3 )</text>
<text text-anchor="middle" x="509" y="-104.5" font-family="monospace" font-size="10.00">automake &#45;&#45;add&#45;missing &#45;&#45;copy</text>
</g>
<!-- program03&#45;&gt;program04 -->
<!-- program05 -->
<g id="node5" class="node">
<title>program05</title>
<polygon fill="none" stroke="black" points="604,-60 414,-60 414,-24 604,-24 604,-60"/>
<text text-anchor="middle" x="509" y="-45.25" font-family="monospace" font-size="10.00">( Step.4 )</text>
<text text-anchor="middle" x="509" y="-32.5" font-family="monospace" font-size="10.00">./configure &#160;&#160;&#160;&#160;&#160;&#160;&#160;&#160;&#160;&#160;&#160;&#160;&#160;&#160;&#160;&#160;&#160;</text>
</g>
<!-- program04&#45;&gt;program05 -->
<!-- file07 -->
<g id="node13" class="node">
<title>file07</title>
<polygon fill="none" stroke="black" stroke-width="2" points="194,-132 118,-132 118,-96 200,-96 200,-126 194,-132"/>
<polyline fill="none" stroke="black" stroke-width="2" points="194,-132 194,-126"/>
<polyline fill="none" stroke="black" stroke-width="2" points="200,-126 194,-126"/>
<text text-anchor="middle" x="159" y="-110.88" font-family="monospace" font-size="10.00">Makefile.in</text>
</g>
<!-- program04&#45;&gt;file07 -->
<g id="edge33" class="edge">
<title>program04&#45;&gt;file07</title>
<path fill="none" stroke="black" d="M455.75,-132.94C396.67,-151.13 298.99,-172.76 218,-150 209.21,-147.53 200.44,-143.35 192.44,-138.69"/>
<polygon fill="black" stroke="black" points="194.47,-135.2 184.13,-132.86 190.75,-141.14 194.47,-135.2"/>
</g>
<!-- file09 -->
<g id="node15" class="node">
<title>file09</title>
<polygon fill="none" stroke="black" stroke-width="2" points="330,-276 224,-276 224,-240 336,-240 336,-270 330,-276"/>
<polyline fill="none" stroke="black" stroke-width="2" points="330,-276 330,-270"/>
<polyline fill="none" stroke="black" stroke-width="2" points="336,-270 330,-270"/>
<text text-anchor="middle" x="280" y="-254.88" font-family="monospace" font-size="10.00">autom4te.cache/*</text>
</g>
<!-- program04&#45;&gt;file09 -->
<g id="edge37" class="edge">
<title>program04&#45;&gt;file09</title>
<path fill="none" stroke="black" d="M461.97,-132.99C442.97,-141.71 421.64,-153.48 405,-168 390.32,-180.81 394.57,-191.07 380,-204 366.55,-215.93 349.94,-226.1 334.14,-234.25"/>
<polygon fill="black" stroke="black" points="332.85,-231.48 325.45,-239.06 335.96,-237.75 332.85,-231.48"/>
</g>
<!-- file11 -->
<g id="node17" class="node">
<title>file11</title>
<polygon fill="none" stroke="black" stroke-width="2" points="330,-132 218,-132 218,-96 336,-96 336,-126 330,-132"/>
<polyline fill="none" stroke="black" stroke-width="2" points="330,-132 330,-126"/>
<polyline fill="none" stroke="black" stroke-width="2" points="336,-126 330,-126"/>
<text text-anchor="middle" x="277" y="-110.88" font-family="monospace" font-size="10.00">tests/Makefile.in</text>
</g>
<!-- program04&#45;&gt;file11 -->
<g id="edge35" class="edge">
<title>program04&#45;&gt;file11</title>
<path fill="none" stroke="black" d="M413.15,-114C391.28,-114 369.42,-114 347.55,-114"/>
<polygon fill="black" stroke="black" points="347.81,-110.5 337.81,-114 347.81,-117.5 347.81,-110.5"/>
</g>
<!-- file13 -->
<g id="node6" class="node">
<title>file13</title>
<polygon fill="none" stroke="black" points="298,-348 84,-348 84,-312 304,-312 304,-342 298,-348"/>
<polyline fill="none" stroke="black" points="298,-348 298,-342"/>
<polyline fill="none" stroke="black" points="304,-342 298,-342"/>
<text text-anchor="middle" x="194" y="-326.88" font-family="monospace" font-size="10.00">tools/GenAutotoolsAcAm_UserFile.pm</text>
</g>
<!-- file13&#45;&gt;program01 -->
<!-- file01 -->
<g id="node7" class="node">
<title>file01</title>
<polygon fill="none" stroke="black" points="94,-276 24,-276 24,-240 100,-240 100,-270 94,-276"/>
<polyline fill="none" stroke="black" points="94,-276 94,-270"/>
<polyline fill="none" stroke="black" points="100,-270 94,-270"/>
<text text-anchor="middle" x="62" y="-254.88" font-family="monospace" font-size="10.00">docs/*.dot</text>
</g>
<!-- file13&#45;&gt;file01 -->
<!-- file05 -->
<g id="node11" class="node">
<title>file05</title>
<polygon fill="none" stroke="black" stroke-width="2" points="200,-276 118,-276 118,-240 206,-240 206,-270 200,-276"/>
<polyline fill="none" stroke="black" stroke-width="2" points="200,-276 200,-270"/>
<polyline fill="none" stroke="black" stroke-width="2" points="206,-270 200,-270"/>
<text text-anchor="middle" x="162" y="-254.88" font-family="monospace" font-size="10.00">configure.ac</text>
</g>
<!-- file13&#45;&gt;file05 -->
<!-- file13&#45;&gt;file09 -->
<!-- file02 -->
<g id="node8" class="node">
<title>file02</title>
<polygon fill="none" stroke="black" points="94,-204 24,-204 24,-168 100,-168 100,-198 94,-204"/>
<polyline fill="none" stroke="black" points="94,-204 94,-198"/>
<polyline fill="none" stroke="black" points="100,-198 94,-198"/>
<text text-anchor="middle" x="62" y="-182.88" font-family="monospace" font-size="10.00">docs/*.svg</text>
</g>
<!-- file01&#45;&gt;file02 -->
<!-- file01&#45;&gt;file05 -->
<!-- file03 -->
<g id="node9" class="node">
<title>file03</title>
<polygon fill="none" stroke="black" stroke-width="2" points="94,-132 24,-132 24,-96 100,-96 100,-126 94,-132"/>
<polyline fill="none" stroke="black" stroke-width="2" points="94,-132 94,-126"/>
<polyline fill="none" stroke="black" stroke-width="2" points="100,-126 94,-126"/>
<text text-anchor="middle" x="62" y="-110.88" font-family="monospace" font-size="10.00">aclocal.m4</text>
</g>
<!-- file02&#45;&gt;file03 -->
<!-- file06 -->
<g id="node12" class="node">
<title>file06</title>
<polygon fill="none" stroke="black" stroke-width="2" points="194,-204 118,-204 118,-168 200,-168 200,-198 194,-204"/>
<polyline fill="none" stroke="black" stroke-width="2" points="194,-204 194,-198"/>
<polyline fill="none" stroke="black" stroke-width="2" points="200,-198 194,-198"/>
<text text-anchor="middle" x="159" y="-182.88" font-family="monospace" font-size="10.00">Makefile.am</text>
</g>
<!-- file02&#45;&gt;file06 -->
<!-- file03&#45;&gt;program04 -->
<g id="edge30" class="edge">
<title>file03&#45;&gt;program04</title>
<path fill="none" stroke="black" d="M84.77,-132.85C94.4,-139.65 106.13,-146.52 118,-150 227.07,-182.04 359.96,-157.06 439.35,-135.75"/>
<polygon fill="black" stroke="black" points="440,-138.93 448.71,-132.91 438.15,-132.18 440,-138.93"/>
</g>
<!-- file04 -->
<g id="node10" class="node">
<title>file04</title>
<polygon fill="none" stroke="black" stroke-dasharray="1,5" points="95,-60 37,-60 37,-24 101,-24 101,-54 95,-60"/>
<polyline fill="none" stroke="black" stroke-dasharray="1,5" points="95,-60 95,-54"/>
<polyline fill="none" stroke="black" stroke-dasharray="1,5" points="101,-54 95,-54"/>
<text text-anchor="middle" x="69" y="-38.88" font-family="monospace" font-size="10.00">config.*</text>
</g>
<!-- file03&#45;&gt;file04 -->
<!-- file03&#45;&gt;file07 -->
<!-- file08 -->
<g id="node14" class="node">
<title>file08</title>
<polygon fill="none" stroke="black" stroke-dasharray="1,5" points="185,-60 127,-60 127,-24 191,-24 191,-54 185,-60"/>
<polyline fill="none" stroke="black" stroke-dasharray="1,5" points="185,-60 185,-54"/>
<polyline fill="none" stroke="black" stroke-dasharray="1,5" points="191,-54 185,-54"/>
<text text-anchor="middle" x="159" y="-38.88" font-family="monospace" font-size="10.00">Makefile</text>
</g>
<!-- file04&#45;&gt;file08 -->
<!-- file05&#45;&gt;program04 -->
<g id="edge31" class="edge">
<title>file05&#45;&gt;program04</title>
<path fill="none" stroke="black" d="M206.78,-242.5C209.56,-241.64 212.31,-240.8 215,-240 272.44,-222.84 300.05,-243.67 345,-204 358,-192.53 347.42,-179.93 360,-168 374.2,-154.53 392.05,-144.45 410.42,-136.92"/>
<polygon fill="black" stroke="black" points="411.57,-139.84 419.65,-132.99 409.06,-133.31 411.57,-139.84"/>
</g>
<!-- file05&#45;&gt;file06 -->
<!-- file05&#45;&gt;file09 -->
<!-- file06&#45;&gt;program04 -->
<g id="edge32" class="edge">
<title>file06&#45;&gt;program04</title>
<path fill="none" stroke="black" d="M200.87,-170.24C203.61,-169.44 206.34,-168.68 209,-168 272.54,-151.69 344.93,-138.74 402.68,-129.73"/>
<polygon fill="black" stroke="black" points="402.94,-133.07 412.29,-128.09 401.87,-126.16 402.94,-133.07"/>
</g>
<!-- file06&#45;&gt;file07 -->
<!-- file10 -->
<g id="node16" class="node">
<title>file10</title>
<polygon fill="none" stroke="black" stroke-width="2" points="330,-204 218,-204 218,-168 336,-168 336,-198 330,-204"/>
<polyline fill="none" stroke="black" stroke-width="2" points="330,-204 330,-198"/>
<polyline fill="none" stroke="black" stroke-width="2" points="336,-198 330,-198"/>
<text text-anchor="middle" x="277" y="-182.88" font-family="monospace" font-size="10.00">tests/Makefile.am</text>
</g>
<!-- file06&#45;&gt;file10 -->
<!-- file07&#45;&gt;file08 -->
<!-- file07&#45;&gt;file11 -->
<!-- file12 -->
<g id="node18" class="node">
<title>file12</title>
<polygon fill="none" stroke="black" stroke-dasharray="1,5" points="321,-60 227,-60 227,-24 327,-24 327,-54 321,-60"/>
<polyline fill="none" stroke="black" stroke-dasharray="1,5" points="321,-60 321,-54"/>
<polyline fill="none" stroke="black" stroke-dasharray="1,5" points="327,-54 321,-54"/>
<text text-anchor="middle" x="277" y="-38.88" font-family="monospace" font-size="10.00">tests/Makefile</text>
</g>
<!-- file08&#45;&gt;file12 -->
<!-- file09&#45;&gt;program02 -->
<!-- file09&#45;&gt;program04 -->
<g id="edge36" class="edge">
<title>file09&#45;&gt;program04</title>
<path fill="none" stroke="black" d="M311.53,-239.08C326.91,-229.61 345.23,-217.23 360,-204 375.51,-190.1 373.39,-180.56 390,-168 406.51,-155.51 426.43,-145.18 445.21,-137.05"/>
<polygon fill="black" stroke="black" points="446.32,-139.97 454.2,-132.89 443.62,-133.51 446.32,-139.97"/>
</g>
<!-- file09&#45;&gt;file10 -->
<!-- file10&#45;&gt;program03 -->
<!-- file10&#45;&gt;program04 -->
<g id="edge34" class="edge">
<title>file10&#45;&gt;program04</title>
<path fill="none" stroke="black" d="M336.44,-167.06C367.82,-157.6 406.51,-145.92 439.29,-136.03"/>
<polygon fill="black" stroke="black" points="440.15,-139.13 448.71,-132.89 438.13,-132.43 440.15,-139.13"/>
</g>
<!-- file10&#45;&gt;file11 -->
<!-- file11&#45;&gt;program04 -->
<!-- file11&#45;&gt;file12 -->
<!-- file12&#45;&gt;program05 -->
</g>
</svg>
