<?xml version="1.0" encoding="UTF-8" standalone="no"?>
<!DOCTYPE svg PUBLIC "-//W3C//DTD SVG 1.1//EN"
 "http://www.w3.org/Graphics/SVG/1.1/DTD/svg11.dtd">
<!-- Generated by graphviz version 15.1.0 (0)
 -->
<!-- Title: physical_directory_structure Pages: 1 -->
<svg width="636pt" height="428pt"
 viewBox="0.00 0.00 636.00 428.00" xmlns="http://www.w3.org/2000/svg" xmlns:xlink="http://www.w3.org/1999/xlink">
<g id="graph0" class="graph" transform="scale(1 1) rotate(0) translate(4 423.5)">
<title>physical_directory_structure</title>
<polygon fill="white" stroke="none" points="-4,4 -4,-423.5 632,-423.5 632,4 -4,4"/>
<g id="clust1" class="cluster">
<title>cluster_all</title>
<path fill="none" stroke="black" d="M20,-8C20,-8 608,-8 608,-8 614,-8 620,-14 620,-20 620,-20 620,-399.5 620,-399.5 620,-405.5 614,-411.5 608,-411.5 608,-411.5 20,-411.5 20,-411.5 14,-411.5 8,-405.5 8,-399.5 8,-399.5 8,-20 8,-20 8,-14 14,-8 20,-8"/>
<text xml:space="preserve" text-anchor="middle" x="314" y="-394.2" font-family="monospace" font-size="14.00">Build environment using &quot;autotools&quot; ( Step.3 )</text>
</g>
<g id="clust2" class="cluster">
<title>cluster_program</title>
<polygon fill="none" stroke="black" points="16,-16 16,-378.25 228,-378.25 228,-16 16,-16"/>
<text xml:space="preserve" text-anchor="middle" x="122" y="-362.85" font-family="monospace" font-size="12.00">Program</text>
</g>
<g id="clust4" class="cluster">
<title>cluster_file</title>
<polygon fill="none" stroke="black" points="284,-16 284,-378.25 612,-378.25 612,-16 284,-16"/>
<text xml:space="preserve" text-anchor="middle" x="448" y="-362.85" font-family="monospace" font-size="12.00">Files</text>
</g>
<!-- program01 -->
<g id="node1" class="node">
<title>program01</title>
<polygon fill="none" stroke="black" points="220,-348 24,-348 24,-312 220,-312 220,-348"/>
<text xml:space="preserve" text-anchor="middle" x="122" y="-333.25" font-family="monospace" font-size="10.00">( Step.pre&#45;1 )</text>
<text xml:space="preserve" text-anchor="middle" x="122" y="-320.5" font-family="monospace" font-size="10.00">./tools/gen_autotools_input.pl</text>
</g>
<!-- program02 -->
<g id="node2" class="node">
<title>program02</title>
<polygon fill="none" stroke="black" points="217,-276 27,-276 27,-240 217,-240 217,-276"/>
<text xml:space="preserve" text-anchor="middle" x="122" y="-261.25" font-family="monospace" font-size="10.00">( Step.1 )</text>
<text xml:space="preserve" text-anchor="middle" x="122" y="-248.5" font-family="monospace" font-size="10.00">aclocal &#160;&#160;&#160;&#160;&#160;&#160;&#160;&#160;&#160;&#160;&#160;&#160;&#160;&#160;&#160;&#160;&#160;&#160;&#160;&#160;&#160;</text>
</g>
<!-- program01&#45;&gt;program02 -->
<!-- program03 -->
<g id="node3" class="node">
<title>program03</title>
<polygon fill="none" stroke="black" points="214,-204 24,-204 24,-168 214,-168 214,-204"/>
<text xml:space="preserve" text-anchor="middle" x="119" y="-189.25" font-family="monospace" font-size="10.00">( Step.2 )</text>
<text xml:space="preserve" text-anchor="middle" x="119" y="-176.5" font-family="monospace" font-size="10.00">autoconf &#160;&#160;&#160;&#160;&#160;&#160;&#160;&#160;&#160;&#160;&#160;&#160;&#160;&#160;&#160;&#160;&#160;&#160;&#160;&#160;</text>
</g>
<!-- program02&#45;&gt;program03 -->
<!-- program04 -->
<g id="node4" class="node">
<title>program04</title>
<polygon fill="none" stroke="black" stroke-width="2" points="220,-132 30,-132 30,-96 220,-96 220,-132"/>
<text xml:space="preserve" text-anchor="middle" x="125" y="-117.25" font-family="monospace" font-size="10.00">( Step.3 )</text>
<text xml:space="preserve" text-anchor="middle" x="125" y="-104.5" font-family="monospace" font-size="10.00">automake &#45;&#45;add&#45;missing &#45;&#45;copy</text>
</g>
<!-- program03&#45;&gt;program04 -->
<!-- program05 -->
<g id="node5" class="node">
<title>program05</title>
<polygon fill="none" stroke="black" points="220,-60 30,-60 30,-24 220,-24 220,-60"/>
<text xml:space="preserve" text-anchor="middle" x="125" y="-45.25" font-family="monospace" font-size="10.00">( Step.4 )</text>
<text xml:space="preserve" text-anchor="middle" x="125" y="-32.5" font-family="monospace" font-size="10.00">./configure &#160;&#160;&#160;&#160;&#160;&#160;&#160;&#160;&#160;&#160;&#160;&#160;&#160;&#160;&#160;&#160;&#160;</text>
</g>
<!-- program04&#45;&gt;program05 -->
<!-- file07 -->
<g id="node13" class="node">
<title>file07</title>
<polygon fill="none" stroke="black" stroke-width="2" points="504,-132 428,-132 428,-96 510,-96 510,-126 504,-132"/>
<polyline fill="none" stroke="black" stroke-width="2" points="504,-132 504,-126"/>
<polyline fill="none" stroke="black" stroke-width="2" points="510,-126 504,-126"/>
<text xml:space="preserve" text-anchor="middle" x="469" y="-110.88" font-family="monospace" font-size="10.00">Makefile.in</text>
</g>
<!-- program04&#45;&gt;file07 -->
<g id="edge33" class="edge">
<title>program04&#45;&gt;file07</title>
<path fill="none" stroke="black" d="M177.67,-132.93C235.57,-150.94 330.9,-172.23 410,-150 418.69,-147.56 427.37,-143.44 435.29,-138.85"/>
<polygon fill="black" stroke="black" points="436.96,-141.93 443.58,-133.66 433.25,-136 436.96,-141.93"/>
</g>
<!-- file09 -->
<g id="node15" class="node">
<title>file09</title>
<polygon fill="none" stroke="black" stroke-width="2" points="398,-276 292,-276 292,-240 404,-240 404,-270 398,-276"/>
<polyline fill="none" stroke="black" stroke-width="2" points="398,-276 398,-270"/>
<polyline fill="none" stroke="black" stroke-width="2" points="404,-270 398,-270"/>
<text xml:space="preserve" text-anchor="middle" x="348" y="-254.88" font-family="monospace" font-size="10.00">autom4te.cache/*</text>
</g>
<!-- program04&#45;&gt;file09 -->
<g id="edge37" class="edge">
<title>program04&#45;&gt;file09</title>
<path fill="none" stroke="black" d="M178.69,-132.98C199.47,-141.55 222.63,-153.21 241,-168 256.58,-180.54 253.45,-190.28 268,-204 279.4,-214.75 293.21,-224.75 306.14,-233.11"/>
<polygon fill="black" stroke="black" points="304.18,-236.01 314.51,-238.36 307.89,-230.08 304.18,-236.01"/>
</g>
<!-- file11 -->
<g id="node17" class="node">
<title>file11</title>
<polygon fill="none" stroke="black" stroke-width="2" points="404,-132 292,-132 292,-96 410,-96 410,-126 404,-132"/>
<polyline fill="none" stroke="black" stroke-width="2" points="404,-132 404,-126"/>
<polyline fill="none" stroke="black" stroke-width="2" points="410,-126 404,-126"/>
<text xml:space="preserve" text-anchor="middle" x="351" y="-110.88" font-family="monospace" font-size="10.00">tests/Makefile.in</text>
</g>
<!-- program04&#45;&gt;file11 -->
<g id="edge35" class="edge">
<title>program04&#45;&gt;file11</title>
<path fill="none" stroke="black" d="M220.79,-127.19C240.51,-127.9 260.23,-127.39 279.95,-125.64"/>
<polygon fill="black" stroke="black" points="280.13,-129.14 289.73,-124.66 279.43,-122.17 280.13,-129.14"/>
</g>
<!-- file13 -->
<g id="node6" class="node">
<title>file13</title>
<polygon fill="none" stroke="black" points="542,-348 322,-348 322,-312 548,-312 548,-342 542,-348"/>
<polyline fill="none" stroke="black" points="542,-348 542,-342"/>
<polyline fill="none" stroke="black" points="548,-342 542,-342"/>
<text xml:space="preserve" text-anchor="middle" x="435" y="-326.88" font-family="monospace" font-size="10.00">tools/GenAutotoolsInput_UserFile.pm</text>
</g>
<!-- file13&#45;&gt;program01 -->
<!-- file01 -->
<g id="node7" class="node">
<title>file01</title>
<polygon fill="none" stroke="black" points="598,-276 528,-276 528,-240 604,-240 604,-270 598,-276"/>
<polyline fill="none" stroke="black" points="598,-276 598,-270"/>
<polyline fill="none" stroke="black" points="604,-270 598,-270"/>
<text xml:space="preserve" text-anchor="middle" x="566" y="-254.88" font-family="monospace" font-size="10.00">docs/*.dot</text>
</g>
<!-- file13&#45;&gt;file01 -->
<!-- file05 -->
<g id="node11" class="node">
<title>file05</title>
<polygon fill="none" stroke="black" stroke-width="2" points="504,-276 422,-276 422,-240 510,-240 510,-270 504,-276"/>
<polyline fill="none" stroke="black" stroke-width="2" points="504,-276 504,-270"/>
<polyline fill="none" stroke="black" stroke-width="2" points="510,-270 504,-270"/>
<text xml:space="preserve" text-anchor="middle" x="466" y="-254.88" font-family="monospace" font-size="10.00">configure.ac</text>
</g>
<!-- file13&#45;&gt;file05 -->
<!-- file13&#45;&gt;file09 -->
<!-- file02 -->
<g id="node8" class="node">
<title>file02</title>
<polygon fill="none" stroke="black" points="598,-204 528,-204 528,-168 604,-168 604,-198 598,-204"/>
<polyline fill="none" stroke="black" points="598,-204 598,-198"/>
<polyline fill="none" stroke="black" points="604,-198 598,-198"/>
<text xml:space="preserve" text-anchor="middle" x="566" y="-182.88" font-family="monospace" font-size="10.00">docs/*.svg</text>
</g>
<!-- file01&#45;&gt;file02 -->
<!-- file01&#45;&gt;file05 -->
<!-- file03 -->
<g id="node9" class="node">
<title>file03</title>
<polygon fill="none" stroke="black" stroke-width="2" points="598,-132 528,-132 528,-96 604,-96 604,-126 598,-132"/>
<polyline fill="none" stroke="black" stroke-width="2" points="598,-132 598,-126"/>
<polyline fill="none" stroke="black" stroke-width="2" points="604,-126 598,-126"/>
<text xml:space="preserve" text-anchor="middle" x="566" y="-110.88" font-family="monospace" font-size="10.00">aclocal.m4</text>
</g>
<!-- file02&#45;&gt;file03 -->
<!-- file06 -->
<g id="node12" class="node">
<title>file06</title>
<polygon fill="none" stroke="black" stroke-width="2" points="504,-204 428,-204 428,-168 510,-168 510,-198 504,-204"/>
<polyline fill="none" stroke="black" stroke-width="2" points="504,-204 504,-198"/>
<polyline fill="none" stroke="black" stroke-width="2" points="510,-198 504,-198"/>
<text xml:space="preserve" text-anchor="middle" x="469" y="-182.88" font-family="monospace" font-size="10.00">Makefile.am</text>
</g>
<!-- file02&#45;&gt;file06 -->
<!-- file03&#45;&gt;program04 -->
<g id="edge30" class="edge">
<title>file03&#45;&gt;program04</title>
<path fill="none" stroke="black" d="M543.23,-132.85C533.6,-139.65 521.87,-146.52 510,-150 403.11,-181.39 273.03,-156.96 194.73,-135.88"/>
<polygon fill="black" stroke="black" points="196.06,-132.62 185.49,-133.34 194.2,-139.37 196.06,-132.62"/>
</g>
<!-- file04 -->
<g id="node10" class="node">
<title>file04</title>
<polygon fill="none" stroke="black" stroke-dasharray="1,5" points="584,-60 526,-60 526,-24 590,-24 590,-54 584,-60"/>
<polyline fill="none" stroke="black" stroke-dasharray="1,5" points="584,-60 584,-54"/>
<polyline fill="none" stroke="black" stroke-dasharray="1,5" points="590,-54 584,-54"/>
<text xml:space="preserve" text-anchor="middle" x="558" y="-38.88" font-family="monospace" font-size="10.00">config.*</text>
</g>
<!-- file03&#45;&gt;file04 -->
<!-- file03&#45;&gt;file07 -->
<!-- file08 -->
<g id="node14" class="node">
<title>file08</title>
<polygon fill="none" stroke="black" stroke-dasharray="1,5" points="495,-60 437,-60 437,-24 501,-24 501,-54 495,-60"/>
<polyline fill="none" stroke="black" stroke-dasharray="1,5" points="495,-60 495,-54"/>
<polyline fill="none" stroke="black" stroke-dasharray="1,5" points="501,-54 495,-54"/>
<text xml:space="preserve" text-anchor="middle" x="469" y="-38.88" font-family="monospace" font-size="10.00">Makefile</text>
</g>
<!-- file04&#45;&gt;file08 -->
<!-- file05&#45;&gt;program04 -->
<g id="edge31" class="edge">
<title>file05&#45;&gt;program04</title>
<path fill="none" stroke="black" d="M421.22,-242.5C418.44,-241.64 415.69,-240.8 413,-240 355.56,-222.84 331.22,-239.62 283,-204 267.73,-192.72 274.67,-180.06 260,-168 244.08,-154.91 224.54,-144.77 205.33,-137.04"/>
<polygon fill="black" stroke="black" points="206.72,-133.82 196.12,-133.53 204.22,-140.36 206.72,-133.82"/>
</g>
<!-- file05&#45;&gt;file06 -->
<!-- file05&#45;&gt;file09 -->
<!-- file06&#45;&gt;program04 -->
<g id="edge32" class="edge">
<title>file06&#45;&gt;program04</title>
<path fill="none" stroke="black" d="M427.13,-170.26C424.39,-169.45 421.66,-168.69 419,-168 357.69,-152.14 287.97,-139.36 231.82,-130.32"/>
<polygon fill="black" stroke="black" points="232.7,-126.91 222.28,-128.8 231.6,-133.83 232.7,-126.91"/>
</g>
<!-- file06&#45;&gt;file07 -->
<!-- file10 -->
<g id="node16" class="node">
<title>file10</title>
<polygon fill="none" stroke="black" stroke-width="2" points="404,-204 292,-204 292,-168 410,-168 410,-198 404,-204"/>
<polyline fill="none" stroke="black" stroke-width="2" points="404,-204 404,-198"/>
<polyline fill="none" stroke="black" stroke-width="2" points="410,-198 404,-198"/>
<text xml:space="preserve" text-anchor="middle" x="351" y="-182.88" font-family="monospace" font-size="10.00">tests/Makefile.am</text>
</g>
<!-- file06&#45;&gt;file10 -->
<!-- file07&#45;&gt;file08 -->
<!-- file07&#45;&gt;file11 -->
<!-- file12 -->
<g id="node18" class="node">
<title>file12</title>
<polygon fill="none" stroke="black" stroke-dasharray="1,5" points="395,-60 301,-60 301,-24 401,-24 401,-54 395,-60"/>
<polyline fill="none" stroke="black" stroke-dasharray="1,5" points="395,-60 395,-54"/>
<polyline fill="none" stroke="black" stroke-dasharray="1,5" points="401,-54 395,-54"/>
<text xml:space="preserve" text-anchor="middle" x="351" y="-38.88" font-family="monospace" font-size="10.00">tests/Makefile</text>
</g>
<!-- file08&#45;&gt;file12 -->
<!-- file09&#45;&gt;program02 -->
<!-- file09&#45;&gt;program04 -->
<g id="edge36" class="edge">
<title>file09&#45;&gt;program04</title>
<path fill="none" stroke="black" d="M303.55,-239.06C285.09,-230.25 264.24,-218.41 248,-204 233.43,-191.07 237.52,-180.99 223,-168 209.87,-156.26 193.69,-146.16 178.28,-138.03"/>
<polygon fill="black" stroke="black" points="180.15,-135.06 169.65,-133.66 176.99,-141.3 180.15,-135.06"/>
</g>
<!-- file09&#45;&gt;file10 -->
<!-- file10&#45;&gt;program03 -->
<!-- file10&#45;&gt;program04 -->
<g id="edge34" class="edge">
<title>file10&#45;&gt;program04</title>
<path fill="none" stroke="black" d="M293.09,-167.06C262.79,-157.68 225.5,-146.13 193.74,-136.29"/>
<polygon fill="black" stroke="black" points="194.79,-132.95 184.2,-133.34 192.72,-139.64 194.79,-132.95"/>
</g>
<!-- file10&#45;&gt;file11 -->
<!-- file11&#45;&gt;program04 -->
<!-- file11&#45;&gt;file12 -->
<!-- file12&#45;&gt;program05 -->
</g>
</svg>
