<?xml version="1.0" encoding="UTF-8" standalone="no"?>
<!DOCTYPE svg PUBLIC "-//W3C//DTD SVG 1.1//EN"
 "http://www.w3.org/Graphics/SVG/1.1/DTD/svg11.dtd">
<!-- Generated by graphviz version 15.1.0 (0)
 -->
<!-- Title: physical_directory_structure Pages: 1 -->
<svg width="596pt" height="428pt"
 viewBox="0.00 0.00 596.00 428.00" xmlns="http://www.w3.org/2000/svg" xmlns:xlink="http://www.w3.org/1999/xlink">
<g id="graph0" class="graph" transform="scale(1 1) rotate(0) translate(4 423.5)">
<title>physical_directory_structure</title>
<polygon fill="white" stroke="none" points="-4,4 -4,-423.5 592,-423.5 592,4 -4,4"/>
<g id="clust1" class="cluster">
<title>cluster_all</title>
<path fill="none" stroke="black" d="M20,-8C20,-8 568,-8 568,-8 574,-8 580,-14 580,-20 580,-20 580,-399.5 580,-399.5 580,-405.5 574,-411.5 568,-411.5 568,-411.5 20,-411.5 20,-411.5 14,-411.5 8,-405.5 8,-399.5 8,-399.5 8,-20 8,-20 8,-14 14,-8 20,-8"/>
<text xml:space="preserve" text-anchor="middle" x="294" y="-394.2" font-family="monospace" font-size="14.00">Build environment using &quot;autotools&quot; ( Step.1 )</text>
</g>
<g id="clust2" class="cluster">
<title>cluster_program</title>
<polygon fill="none" stroke="black" points="16,-16 16,-378.25 228,-378.25 228,-16 16,-16"/>
<text xml:space="preserve" text-anchor="middle" x="122" y="-362.85" font-family="monospace" font-size="12.00">Program</text>
</g>
<g id="clust4" class="cluster">
<title>cluster_file</title>
<polygon fill="none" stroke="black" points="244,-16 244,-378.25 572,-378.25 572,-16 244,-16"/>
<text xml:space="preserve" text-anchor="middle" x="408" y="-362.85" font-family="monospace" font-size="12.00">Files</text>
</g>
<!-- program01 -->
<g id="node1" class="node">
<title>program01</title>
<polygon fill="none" stroke="black" points="220,-348 24,-348 24,-312 220,-312 220,-348"/>
<text xml:space="preserve" text-anchor="middle" x="122" y="-333.25" font-family="monospace" font-size="10.00">( Step.pre&#45;1 )</text>
<text xml:space="preserve" text-anchor="middle" x="122" y="-320.5" font-family="monospace" font-size="10.00">./tools/gen_autotools_input.pl</text>
</g>
<!-- program02 -->
<g id="node2" class="node">
<title>program02</title>
<polygon fill="none" stroke="black" stroke-width="2" points="220,-276 30,-276 30,-240 220,-240 220,-276"/>
<text xml:space="preserve" text-anchor="middle" x="125" y="-261.25" font-family="monospace" font-size="10.00">( Step.1 )</text>
<text xml:space="preserve" text-anchor="middle" x="125" y="-248.5" font-family="monospace" font-size="10.00">aclocal &#160;&#160;&#160;&#160;&#160;&#160;&#160;&#160;&#160;&#160;&#160;&#160;&#160;&#160;&#160;&#160;&#160;&#160;&#160;&#160;&#160;</text>
</g>
<!-- program01&#45;&gt;program02 -->
<!-- program03 -->
<g id="node3" class="node">
<title>program03</title>
<polygon fill="none" stroke="black" points="214,-204 24,-204 24,-168 214,-168 214,-204"/>
<text xml:space="preserve" text-anchor="middle" x="119" y="-189.25" font-family="monospace" font-size="10.00">( Step.2 )</text>
<text xml:space="preserve" text-anchor="middle" x="119" y="-176.5" font-family="monospace" font-size="10.00">autoconf &#160;&#160;&#160;&#160;&#160;&#160;&#160;&#160;&#160;&#160;&#160;&#160;&#160;&#160;&#160;&#160;&#160;&#160;&#160;&#160;</text>
</g>
<!-- program02&#45;&gt;program03 -->
<!-- file03 -->
<g id="node9" class="node">
<title>file03</title>
<polygon fill="none" stroke="black" stroke-width="2" points="322,-132 252,-132 252,-96 328,-96 328,-126 322,-132"/>
<polyline fill="none" stroke="black" stroke-width="2" points="322,-132 322,-126"/>
<polyline fill="none" stroke="black" stroke-width="2" points="328,-126 322,-126"/>
<text xml:space="preserve" text-anchor="middle" x="290" y="-110.88" font-family="monospace" font-size="10.00">aclocal.m4</text>
</g>
<!-- program02&#45;&gt;file03 -->
<g id="edge31" class="edge">
<title>program02&#45;&gt;file03</title>
<path fill="none" stroke="black" d="M170.5,-239.07C188.38,-230.42 208.15,-218.69 223,-204 236.02,-191.13 232.42,-182.94 243,-168 249.47,-158.86 257.29,-149.52 264.67,-141.27"/>
<polygon fill="black" stroke="black" points="267.22,-143.67 271.41,-133.93 262.07,-138.93 267.22,-143.67"/>
</g>
<!-- file09 -->
<g id="node15" class="node">
<title>file09</title>
<polygon fill="none" stroke="black" stroke-width="2" points="558,-276 452,-276 452,-240 564,-240 564,-270 558,-276"/>
<polyline fill="none" stroke="black" stroke-width="2" points="558,-276 558,-270"/>
<polyline fill="none" stroke="black" stroke-width="2" points="564,-270 558,-270"/>
<text xml:space="preserve" text-anchor="middle" x="508" y="-254.88" font-family="monospace" font-size="10.00">autom4te.cache/*</text>
</g>
<!-- program02&#45;&gt;file09 -->
<g id="edge33" class="edge">
<title>program02&#45;&gt;file09</title>
<path fill="none" stroke="black" d="M167.46,-276.93C192.05,-286.85 223.91,-297.97 253.5,-303 292.06,-309.56 391.71,-313.06 429.5,-303 444.86,-298.91 460.35,-291.02 473.46,-282.97"/>
<polygon fill="black" stroke="black" points="475.18,-286.02 481.7,-277.67 471.4,-280.14 475.18,-286.02"/>
</g>
<!-- program04 -->
<g id="node4" class="node">
<title>program04</title>
<polygon fill="none" stroke="black" points="220,-132 30,-132 30,-96 220,-96 220,-132"/>
<text xml:space="preserve" text-anchor="middle" x="125" y="-117.25" font-family="monospace" font-size="10.00">( Step.3 )</text>
<text xml:space="preserve" text-anchor="middle" x="125" y="-104.5" font-family="monospace" font-size="10.00">automake &#45;&#45;add&#45;missing &#45;&#45;copy</text>
</g>
<!-- program03&#45;&gt;program04 -->
<!-- program05 -->
<g id="node5" class="node">
<title>program05</title>
<polygon fill="none" stroke="black" stroke-dasharray="1,5" points="220,-60 30,-60 30,-24 220,-24 220,-60"/>
<text xml:space="preserve" text-anchor="middle" x="125" y="-45.25" font-family="monospace" font-size="10.00">( Step.4 )</text>
<text xml:space="preserve" text-anchor="middle" x="125" y="-32.5" font-family="monospace" font-size="10.00">./configure &#160;&#160;&#160;&#160;&#160;&#160;&#160;&#160;&#160;&#160;&#160;&#160;&#160;&#160;&#160;&#160;&#160;</text>
</g>
<!-- program04&#45;&gt;program05 -->
<!-- file13 -->
<g id="node6" class="node">
<title>file13</title>
<polygon fill="none" stroke="black" points="484,-348 264,-348 264,-312 490,-312 490,-342 484,-348"/>
<polyline fill="none" stroke="black" points="484,-348 484,-342"/>
<polyline fill="none" stroke="black" points="490,-342 484,-342"/>
<text xml:space="preserve" text-anchor="middle" x="377" y="-326.88" font-family="monospace" font-size="10.00">tools/GenAutotoolsInput_UserFile.pm</text>
</g>
<!-- file13&#45;&gt;program01 -->
<!-- file01 -->
<g id="node7" class="node">
<title>file01</title>
<polygon fill="none" stroke="black" points="322,-276 252,-276 252,-240 328,-240 328,-270 322,-276"/>
<polyline fill="none" stroke="black" points="322,-276 322,-270"/>
<polyline fill="none" stroke="black" points="328,-270 322,-270"/>
<text xml:space="preserve" text-anchor="middle" x="290" y="-254.88" font-family="monospace" font-size="10.00">docs/*.dot</text>
</g>
<!-- file13&#45;&gt;file01 -->
<!-- file05 -->
<g id="node11" class="node">
<title>file05</title>
<polygon fill="none" stroke="black" stroke-width="2" points="428,-276 346,-276 346,-240 434,-240 434,-270 428,-276"/>
<polyline fill="none" stroke="black" stroke-width="2" points="428,-276 428,-270"/>
<polyline fill="none" stroke="black" stroke-width="2" points="434,-270 428,-270"/>
<text xml:space="preserve" text-anchor="middle" x="390" y="-254.88" font-family="monospace" font-size="10.00">configure.ac</text>
</g>
<!-- file13&#45;&gt;file05 -->
<!-- file13&#45;&gt;file09 -->
<!-- file02 -->
<g id="node8" class="node">
<title>file02</title>
<polygon fill="none" stroke="black" points="322,-204 252,-204 252,-168 328,-168 328,-198 322,-204"/>
<polyline fill="none" stroke="black" points="322,-204 322,-198"/>
<polyline fill="none" stroke="black" points="328,-198 322,-198"/>
<text xml:space="preserve" text-anchor="middle" x="290" y="-182.88" font-family="monospace" font-size="10.00">docs/*.svg</text>
</g>
<!-- file01&#45;&gt;file02 -->
<!-- file01&#45;&gt;file05 -->
<!-- file02&#45;&gt;file03 -->
<!-- file06 -->
<g id="node12" class="node">
<title>file06</title>
<polygon fill="none" stroke="black" points="422,-204 346,-204 346,-168 428,-168 428,-198 422,-204"/>
<polyline fill="none" stroke="black" points="422,-204 422,-198"/>
<polyline fill="none" stroke="black" points="428,-198 422,-198"/>
<text xml:space="preserve" text-anchor="middle" x="387" y="-182.88" font-family="monospace" font-size="10.00">Makefile.am</text>
</g>
<!-- file02&#45;&gt;file06 -->
<!-- file04 -->
<g id="node10" class="node">
<title>file04</title>
<polygon fill="none" stroke="black" stroke-dasharray="1,5" points="320,-60 262,-60 262,-24 326,-24 326,-54 320,-60"/>
<polyline fill="none" stroke="black" stroke-dasharray="1,5" points="320,-60 320,-54"/>
<polyline fill="none" stroke="black" stroke-dasharray="1,5" points="326,-54 320,-54"/>
<text xml:space="preserve" text-anchor="middle" x="294" y="-38.88" font-family="monospace" font-size="10.00">config.*</text>
</g>
<!-- file03&#45;&gt;file04 -->
<!-- file07 -->
<g id="node13" class="node">
<title>file07</title>
<polygon fill="none" stroke="black" stroke-dasharray="1,5" points="422,-132 346,-132 346,-96 428,-96 428,-126 422,-132"/>
<polyline fill="none" stroke="black" stroke-dasharray="1,5" points="422,-132 422,-126"/>
<polyline fill="none" stroke="black" stroke-dasharray="1,5" points="428,-126 422,-126"/>
<text xml:space="preserve" text-anchor="middle" x="387" y="-110.88" font-family="monospace" font-size="10.00">Makefile.in</text>
</g>
<!-- file03&#45;&gt;file07 -->
<!-- file08 -->
<g id="node14" class="node">
<title>file08</title>
<polygon fill="none" stroke="black" stroke-dasharray="1,5" points="409,-60 351,-60 351,-24 415,-24 415,-54 409,-60"/>
<polyline fill="none" stroke="black" stroke-dasharray="1,5" points="409,-60 409,-54"/>
<polyline fill="none" stroke="black" stroke-dasharray="1,5" points="415,-54 409,-54"/>
<text xml:space="preserve" text-anchor="middle" x="383" y="-38.88" font-family="monospace" font-size="10.00">Makefile</text>
</g>
<!-- file04&#45;&gt;file08 -->
<!-- file05&#45;&gt;program02 -->
<g id="edge30" class="edge">
<title>file05&#45;&gt;program02</title>
<path fill="none" stroke="black" d="M364.51,-276.87C353.8,-283.68 340.86,-290.54 328,-294 278.66,-307.28 221.23,-294.56 180.07,-280.7"/>
<polygon fill="black" stroke="black" points="181.47,-277.48 170.87,-277.48 179.15,-284.09 181.47,-277.48"/>
</g>
<!-- file05&#45;&gt;file06 -->
<!-- file05&#45;&gt;file09 -->
<!-- file06&#45;&gt;file07 -->
<!-- file10 -->
<g id="node16" class="node">
<title>file10</title>
<polygon fill="none" stroke="black" points="558,-204 446,-204 446,-168 564,-168 564,-198 558,-204"/>
<polyline fill="none" stroke="black" points="558,-204 558,-198"/>
<polyline fill="none" stroke="black" points="564,-198 558,-198"/>
<text xml:space="preserve" text-anchor="middle" x="505" y="-182.88" font-family="monospace" font-size="10.00">tests/Makefile.am</text>
</g>
<!-- file06&#45;&gt;file10 -->
<!-- file07&#45;&gt;file08 -->
<!-- file11 -->
<g id="node17" class="node">
<title>file11</title>
<polygon fill="none" stroke="black" stroke-dasharray="1,5" points="558,-132 446,-132 446,-96 564,-96 564,-126 558,-132"/>
<polyline fill="none" stroke="black" stroke-dasharray="1,5" points="558,-132 558,-126"/>
<polyline fill="none" stroke="black" stroke-dasharray="1,5" points="564,-126 558,-126"/>
<text xml:space="preserve" text-anchor="middle" x="505" y="-110.88" font-family="monospace" font-size="10.00">tests/Makefile.in</text>
</g>
<!-- file07&#45;&gt;file11 -->
<!-- file12 -->
<g id="node18" class="node">
<title>file12</title>
<polygon fill="none" stroke="black" stroke-dasharray="1,5" points="527,-60 433,-60 433,-24 533,-24 533,-54 527,-60"/>
<polyline fill="none" stroke="black" stroke-dasharray="1,5" points="527,-60 527,-54"/>
<polyline fill="none" stroke="black" stroke-dasharray="1,5" points="533,-54 527,-54"/>
<text xml:space="preserve" text-anchor="middle" x="483" y="-38.88" font-family="monospace" font-size="10.00">tests/Makefile</text>
</g>
<!-- file08&#45;&gt;file12 -->
<!-- file09&#45;&gt;program02 -->
<!-- file09&#45;&gt;program02 -->
<g id="edge32" class="edge">
<title>file09&#45;&gt;program02</title>
<path fill="none" stroke="black" d="M477.12,-276.9C464.27,-283.72 448.9,-290.57 434,-294 393.94,-303.23 289.7,-299.79 249,-294 229.15,-291.18 208.03,-285.93 188.96,-280.3"/>
<polygon fill="black" stroke="black" points="190.02,-276.97 179.44,-277.4 187.98,-283.66 190.02,-276.97"/>
</g>
<!-- file09&#45;&gt;file10 -->
<!-- file10&#45;&gt;program03 -->
<!-- file10&#45;&gt;file11 -->
<!-- file11&#45;&gt;program04 -->
<!-- file11&#45;&gt;file12 -->
<!-- file12&#45;&gt;program05 -->
</g>
</svg>
