<?xml version="1.0" encoding="UTF-8" standalone="no"?>
<!DOCTYPE svg PUBLIC "-//W3C//DTD SVG 1.1//EN"
 "http://www.w3.org/Graphics/SVG/1.1/DTD/svg11.dtd">
<!-- Generated by graphviz version 8.0.5 (20230508.1809)
 -->
<!-- Title: physical_directory_structure Pages: 1 -->
<svg width="667pt" height="380pt"
 viewBox="0.00 0.00 667.00 380.00" xmlns="http://www.w3.org/2000/svg" xmlns:xlink="http://www.w3.org/1999/xlink">
<g id="graph0" class="graph" transform="scale(1 1) rotate(0) translate(4 376)">
<title>physical_directory_structure</title>
<polygon fill="white" stroke="none" points="-4,4 -4,-376 663,-376 663,4 -4,4"/>
<g id="clust1" class="cluster">
<title>cluster_all</title>
<path fill="none" stroke="black" d="M20,-8C20,-8 639,-8 639,-8 645,-8 651,-14 651,-20 651,-20 651,-352 651,-352 651,-358 645,-364 639,-364 639,-364 20,-364 20,-364 14,-364 8,-358 8,-352 8,-352 8,-20 8,-20 8,-14 14,-8 20,-8"/>
<text text-anchor="middle" x="329.5" y="-346.7" font-family="monospace" font-size="14.00">Directory structure</text>
</g>
<g id="clust2" class="cluster">
<title>cluster_tools</title>
<polygon fill="none" stroke="black" stroke-width="2" points="560,-16 560,-248.5 643,-248.5 643,-16 560,-16"/>
<text text-anchor="middle" x="601.5" y="-233.1" font-family="monospace" font-size="12.00">[./tools]</text>
<text text-anchor="middle" x="601.5" y="-218.85" font-family="monospace" font-size="12.00">Tools</text>
</g>
<g id="clust4" class="cluster">
<title>cluster_script_doc</title>
<polygon fill="none" stroke="black" stroke-width="2" points="312,-16 312,-330.75 552,-330.75 552,-16 312,-16"/>
<text text-anchor="middle" x="432" y="-315.35" font-family="monospace" font-size="12.00">[./docs] Documentation</text>
</g>
<g id="clust6" class="cluster">
<title>cluster_installable_scripts</title>
<polygon fill="none" stroke="black" stroke-width="2" points="146,-16 146,-248.5 304,-248.5 304,-16 146,-16"/>
<text text-anchor="middle" x="225" y="-233.1" font-family="monospace" font-size="12.00">[.]</text>
<text text-anchor="middle" x="225" y="-218.85" font-family="monospace" font-size="12.00">Installable scripts</text>
</g>
<g id="clust8" class="cluster">
<title>cluster_test_scripts</title>
<polygon fill="none" stroke="black" stroke-width="2" points="16,-16 16,-248.5 138,-248.5 138,-16 16,-16"/>
<text text-anchor="middle" x="77" y="-233.1" font-family="monospace" font-size="12.00">[./tests]</text>
<text text-anchor="middle" x="77" y="-218.85" font-family="monospace" font-size="12.00">Test scripts</text>
</g>
<g id="clust10" class="cluster">
<title>cluster_legend</title>
<polygon fill="none" stroke="black" stroke-dasharray="1,5" points="84,-256.5 84,-330.75 236,-330.75 236,-256.5 84,-256.5"/>
<text text-anchor="middle" x="114.5" y="-315.35" font-family="monospace" font-size="12.00">Legend</text>
</g>
<!-- tool1 -->
<g id="node1" class="node">
<title>tool1</title>
<polygon fill="none" stroke="black" points="622,-204 568,-204 568,-168 622,-168 622,-204"/>
<text text-anchor="middle" x="595" y="-182.88" font-family="monospace" font-size="10.00">tool1</text>
</g>
<!-- tool2 -->
<g id="node2" class="node">
<title>tool2</title>
<polygon fill="none" stroke="black" points="622,-132 568,-132 568,-96 622,-96 622,-132"/>
<text text-anchor="middle" x="595" y="-110.88" font-family="monospace" font-size="10.00">tool2</text>
</g>
<!-- tool1&#45;&gt;tool2 -->
<!-- tool1_doc -->
<g id="node9" class="node">
<title>tool1_doc</title>
<polygon fill="none" stroke="black" points="521,-204 463,-204 463,-168 527,-168 527,-198 521,-204"/>
<polyline fill="none" stroke="black" points="521,-204 521,-198"/>
<polyline fill="none" stroke="black" points="527,-198 521,-198"/>
<text text-anchor="middle" x="495" y="-182.88" font-family="monospace" font-size="10.00">tool1.md</text>
</g>
<!-- tool1&#45;&gt;tool1_doc -->
<g id="edge20" class="edge">
<title>tool1&#45;&gt;tool1_doc</title>
<path fill="none" stroke="black" d="M567.55,-186C557.83,-186 548.11,-186 538.39,-186"/>
<polygon fill="black" stroke="black" points="538.42,-182.5 528.42,-186 538.42,-189.5 538.42,-182.5"/>
</g>
<!-- toolN -->
<g id="node3" class="node">
<title>toolN</title>
<polygon fill="none" stroke="black" points="622,-60 568,-60 568,-24 622,-24 622,-60"/>
<text text-anchor="middle" x="595" y="-38.88" font-family="monospace" font-size="10.00">toolN</text>
</g>
<!-- tool2&#45;&gt;toolN -->
<!-- tool2_doc -->
<g id="node10" class="node">
<title>tool2_doc</title>
<polygon fill="none" stroke="black" points="538,-132 480,-132 480,-96 544,-96 544,-126 538,-132"/>
<polyline fill="none" stroke="black" points="538,-132 538,-126"/>
<polyline fill="none" stroke="black" points="544,-126 538,-126"/>
<text text-anchor="middle" x="512" y="-110.88" font-family="monospace" font-size="10.00">tool2.md</text>
</g>
<!-- tool2&#45;&gt;tool2_doc -->
<g id="edge21" class="edge">
<title>tool2&#45;&gt;tool2_doc</title>
<path fill="none" stroke="black" d="M567.74,-114C563.61,-114 559.48,-114 555.35,-114"/>
<polygon fill="black" stroke="black" points="555.42,-110.5 545.42,-114 555.42,-117.5 555.42,-110.5"/>
</g>
<!-- toolN_doc -->
<g id="node11" class="node">
<title>toolN_doc</title>
<polygon fill="none" stroke="black" points="538,-60 480,-60 480,-24 544,-24 544,-54 538,-60"/>
<polyline fill="none" stroke="black" points="538,-60 538,-54"/>
<polyline fill="none" stroke="black" points="544,-54 538,-54"/>
<text text-anchor="middle" x="512" y="-38.88" font-family="monospace" font-size="10.00">toolN.md</text>
</g>
<!-- toolN&#45;&gt;toolN_doc -->
<g id="edge22" class="edge">
<title>toolN&#45;&gt;toolN_doc</title>
<path fill="none" stroke="black" d="M567.74,-42C563.61,-42 559.48,-42 555.35,-42"/>
<polygon fill="black" stroke="black" points="555.42,-38.5 545.42,-42 555.42,-45.5 555.42,-38.5"/>
</g>
<!-- all_catalog -->
<g id="node4" class="node">
<title>all_catalog</title>
<polygon fill="none" stroke="black" points="390,-300.5 320,-300.5 320,-264.5 396,-264.5 396,-294.5 390,-300.5"/>
<polyline fill="none" stroke="black" points="390,-300.5 390,-294.5"/>
<polyline fill="none" stroke="black" points="396,-294.5 390,-294.5"/>
<text text-anchor="middle" x="358" y="-279.38" font-family="monospace" font-size="10.00">CATALOG.md</text>
</g>
<!-- script1_doc -->
<g id="node5" class="node">
<title>script1_doc</title>
<polygon fill="none" stroke="black" points="390,-204 320,-204 320,-168 396,-168 396,-198 390,-204"/>
<polyline fill="none" stroke="black" points="390,-204 390,-198"/>
<polyline fill="none" stroke="black" points="396,-198 390,-198"/>
<text text-anchor="middle" x="358" y="-182.88" font-family="monospace" font-size="10.00">script1.md</text>
</g>
<!-- all_catalog&#45;&gt;script1_doc -->
<!-- script2_doc -->
<g id="node6" class="node">
<title>script2_doc</title>
<polygon fill="none" stroke="black" points="390,-132 320,-132 320,-96 396,-96 396,-126 390,-132"/>
<polyline fill="none" stroke="black" points="390,-132 390,-126"/>
<polyline fill="none" stroke="black" points="396,-126 390,-126"/>
<text text-anchor="middle" x="358" y="-110.88" font-family="monospace" font-size="10.00">script2.md</text>
</g>
<!-- script1_doc&#45;&gt;script2_doc -->
<!-- script1_doc&#45;&gt;tool1_doc -->
<!-- scriptN_doc -->
<g id="node7" class="node">
<title>scriptN_doc</title>
<polygon fill="none" stroke="black" points="390,-60 320,-60 320,-24 396,-24 396,-54 390,-60"/>
<polyline fill="none" stroke="black" points="390,-60 390,-54"/>
<polyline fill="none" stroke="black" points="396,-54 390,-54"/>
<text text-anchor="middle" x="358" y="-38.88" font-family="monospace" font-size="10.00">scriptN.md</text>
</g>
<!-- script2_doc&#45;&gt;scriptN_doc -->
<!-- dev_manual -->
<g id="node8" class="node">
<title>dev_manual</title>
<polygon fill="none" stroke="black" points="538,-300.5 414,-300.5 414,-264.5 544,-264.5 544,-294.5 538,-300.5"/>
<polyline fill="none" stroke="black" points="538,-300.5 538,-294.5"/>
<polyline fill="none" stroke="black" points="544,-294.5 538,-294.5"/>
<text text-anchor="middle" x="479" y="-279.38" font-family="monospace" font-size="10.00">Developer_Manual.md</text>
</g>
<!-- dev_manual&#45;&gt;tool1_doc -->
<!-- tool1_doc&#45;&gt;tool2_doc -->
<!-- tool2_doc&#45;&gt;toolN_doc -->
<!-- script1 -->
<g id="node12" class="node">
<title>script1</title>
<polygon fill="none" stroke="black" points="254,-204 196,-204 196,-168 254,-168 254,-204"/>
<text text-anchor="middle" x="225" y="-182.88" font-family="monospace" font-size="10.00">script1</text>
</g>
<!-- script1&#45;&gt;script1_doc -->
<g id="edge14" class="edge">
<title>script1&#45;&gt;script1_doc</title>
<path fill="none" stroke="black" d="M254.35,-186C272.43,-186 290.51,-186 308.59,-186"/>
<polygon fill="black" stroke="black" points="308.54,-189.5 318.54,-186 308.54,-182.5 308.54,-189.5"/>
</g>
<!-- script2 -->
<g id="node13" class="node">
<title>script2</title>
<polygon fill="none" stroke="black" points="254,-132 196,-132 196,-96 254,-96 254,-132"/>
<text text-anchor="middle" x="225" y="-110.88" font-family="monospace" font-size="10.00">script2</text>
</g>
<!-- script1&#45;&gt;script2 -->
<!-- script1_test -->
<g id="node15" class="node">
<title>script1_test</title>
<polygon fill="none" stroke="black" points="130,-204 24,-204 24,-168 130,-168 130,-204"/>
<text text-anchor="middle" x="77" y="-182.88" font-family="monospace" font-size="10.00">script1_test.pl</text>
</g>
<!-- script1&#45;&gt;script1_test -->
<g id="edge17" class="edge">
<title>script1&#45;&gt;script1_test</title>
<path fill="none" stroke="black" d="M195.83,-186C177.71,-186 159.58,-186 141.45,-186"/>
<polygon fill="black" stroke="black" points="141.48,-182.5 131.48,-186 141.48,-189.5 141.48,-182.5"/>
</g>
<!-- script2&#45;&gt;script2_doc -->
<g id="edge15" class="edge">
<title>script2&#45;&gt;script2_doc</title>
<path fill="none" stroke="black" d="M254.35,-114C272.43,-114 290.51,-114 308.59,-114"/>
<polygon fill="black" stroke="black" points="308.54,-117.5 318.54,-114 308.54,-110.5 308.54,-117.5"/>
</g>
<!-- scriptN -->
<g id="node14" class="node">
<title>scriptN</title>
<polygon fill="none" stroke="black" points="254,-60 196,-60 196,-24 254,-24 254,-60"/>
<text text-anchor="middle" x="225" y="-38.88" font-family="monospace" font-size="10.00">scriptN</text>
</g>
<!-- script2&#45;&gt;scriptN -->
<!-- script2_test -->
<g id="node16" class="node">
<title>script2_test</title>
<polygon fill="none" stroke="black" points="130,-132 24,-132 24,-96 130,-96 130,-132"/>
<text text-anchor="middle" x="77" y="-110.88" font-family="monospace" font-size="10.00">script2_test.pl</text>
</g>
<!-- script2&#45;&gt;script2_test -->
<g id="edge18" class="edge">
<title>script2&#45;&gt;script2_test</title>
<path fill="none" stroke="black" d="M195.83,-114C177.71,-114 159.58,-114 141.45,-114"/>
<polygon fill="black" stroke="black" points="141.48,-110.5 131.48,-114 141.48,-117.5 141.48,-110.5"/>
</g>
<!-- scriptN&#45;&gt;scriptN_doc -->
<g id="edge16" class="edge">
<title>scriptN&#45;&gt;scriptN_doc</title>
<path fill="none" stroke="black" d="M254.35,-42C272.43,-42 290.51,-42 308.59,-42"/>
<polygon fill="black" stroke="black" points="308.54,-45.5 318.54,-42 308.54,-38.5 308.54,-45.5"/>
</g>
<!-- scriptN_test -->
<g id="node17" class="node">
<title>scriptN_test</title>
<polygon fill="none" stroke="black" points="130,-60 24,-60 24,-24 130,-24 130,-60"/>
<text text-anchor="middle" x="77" y="-38.88" font-family="monospace" font-size="10.00">scriptN_test.pl</text>
</g>
<!-- scriptN&#45;&gt;scriptN_test -->
<g id="edge19" class="edge">
<title>scriptN&#45;&gt;scriptN_test</title>
<path fill="none" stroke="black" d="M195.83,-42C177.71,-42 159.58,-42 141.45,-42"/>
<polygon fill="black" stroke="black" points="141.48,-38.5 131.48,-42 141.48,-45.5 141.48,-38.5"/>
</g>
<!-- script1_test&#45;&gt;script2_test -->
<!-- script2_test&#45;&gt;scriptN_test -->
<!-- dot_meaning -->
<g id="node18" class="node">
<title>dot_meaning</title>
<text text-anchor="middle" x="160" y="-279.38" font-family="monospace" font-size="10.00">&quot;.&quot; = &quot;project root&quot;</text>
</g>
</g>
</svg>
