<?xml version="1.0" encoding="UTF-8" standalone="no"?>
<!DOCTYPE svg PUBLIC "-//W3C//DTD SVG 1.1//EN"
 "http://www.w3.org/Graphics/SVG/1.1/DTD/svg11.dtd">
<!-- Generated by graphviz version 8.0.5 (20230508.1809)
 -->
<!-- Title: physical_directory_structure Pages: 1 -->
<svg width="584pt" height="598pt"
 viewBox="0.00 0.00 584.00 598.33" xmlns="http://www.w3.org/2000/svg" xmlns:xlink="http://www.w3.org/1999/xlink">
<g id="graph0" class="graph" transform="scale(1 1) rotate(0) translate(4 594.33)">
<title>physical_directory_structure</title>
<polygon fill="white" stroke="none" points="-4,4 -4,-594.33 580,-594.33 580,4 -4,4"/>
<g id="clust1" class="cluster">
<title>cluster_all</title>
<path fill="none" stroke="black" d="M20,-8C20,-8 556,-8 556,-8 562,-8 568,-14 568,-20 568,-20 568,-543.5 568,-543.5 568,-549.5 562,-555.5 556,-555.5 556,-555.5 20,-555.5 20,-555.5 14,-555.5 8,-549.5 8,-543.5 8,-543.5 8,-20 8,-20 8,-14 14,-8 20,-8"/>
<text text-anchor="middle" x="288" y="-538.2" font-family="monospace" font-size="14.00">Build environment using &quot;autotools&quot; ( step.pre&#45;1 )</text>
</g>
<g id="clust2" class="cluster">
<title>cluster_program</title>
<polygon fill="none" stroke="black" points="354,-16 354,-522.25 560,-522.25 560,-16 354,-16"/>
<text text-anchor="middle" x="457" y="-506.85" font-family="monospace" font-size="12.00">Program</text>
</g>
<g id="clust4" class="cluster">
<title>cluster_file</title>
<polygon fill="none" stroke="black" points="16,-16 16,-522.25 346,-522.25 346,-16 16,-16"/>
<text text-anchor="middle" x="181" y="-506.85" font-family="monospace" font-size="12.00">Files</text>
</g>
<!-- program01 -->
<g id="node1" class="node">
<title>program01</title>
<polygon fill="none" stroke="black" stroke-width="2" points="552,-492 362,-492 362,-456 552,-456 552,-492"/>
<text text-anchor="middle" x="457" y="-477.25" font-family="monospace" font-size="10.00">( Step.pre&#45;1 )</text>
<text text-anchor="middle" x="457" y="-464.5" font-family="monospace" font-size="10.00">./tools/create_graph.sh &#160;&#160;&#160;&#160;&#160;</text>
</g>
<!-- program02 -->
<g id="node2" class="node">
<title>program02</title>
<polygon fill="none" stroke="black" points="552,-420 362,-420 362,-384 552,-384 552,-420"/>
<text text-anchor="middle" x="457" y="-405.25" font-family="monospace" font-size="10.00">( Step.pre&#45;2 )</text>
<text text-anchor="middle" x="457" y="-392.5" font-family="monospace" font-size="10.00">./tools/gen_autotools_acam.pl</text>
</g>
<!-- program01&#45;&gt;program02 -->
<!-- file08 -->
<g id="node15" class="node">
<title>file08</title>
<polygon fill="none" stroke="black" stroke-width="2" points="296,-492 226,-492 226,-456 302,-456 302,-486 296,-492"/>
<polyline fill="none" stroke="black" stroke-width="2" points="296,-492 296,-486"/>
<polyline fill="none" stroke="black" stroke-width="2" points="302,-486 296,-486"/>
<text text-anchor="middle" x="264" y="-470.88" font-family="monospace" font-size="10.00">docs/*.svg</text>
</g>
<!-- program01&#45;&gt;file08 -->
<g id="edge20" class="edge">
<title>program01&#45;&gt;file08</title>
<path fill="none" stroke="black" d="M361.24,-474C345.42,-474 329.6,-474 313.78,-474"/>
<polygon fill="black" stroke="black" points="313.83,-470.5 303.83,-474 313.83,-477.5 313.83,-470.5"/>
</g>
<!-- program99 -->
<!-- program02&#45;&gt;program99 -->
<!-- program03 -->
<g id="node4" class="node">
<title>program03</title>
<polygon fill="none" stroke="black" points="552,-276 362,-276 362,-240 552,-240 552,-276"/>
<text text-anchor="middle" x="457" y="-261.25" font-family="monospace" font-size="10.00">( Step.1 )</text>
<text text-anchor="middle" x="457" y="-248.5" font-family="monospace" font-size="10.00">aclocal &#160;&#160;&#160;&#160;&#160;&#160;&#160;&#160;&#160;&#160;&#160;&#160;&#160;&#160;&#160;&#160;&#160;&#160;&#160;&#160;&#160;</text>
</g>
<!-- program99&#45;&gt;program03 -->
<!-- program04 -->
<g id="node5" class="node">
<title>program04</title>
<polygon fill="none" stroke="black" points="552,-204 362,-204 362,-168 552,-168 552,-204"/>
<text text-anchor="middle" x="457" y="-189.25" font-family="monospace" font-size="10.00">( Step.2 )</text>
<text text-anchor="middle" x="457" y="-176.5" font-family="monospace" font-size="10.00">autoconf &#160;&#160;&#160;&#160;&#160;&#160;&#160;&#160;&#160;&#160;&#160;&#160;&#160;&#160;&#160;&#160;&#160;&#160;&#160;&#160;</text>
</g>
<!-- program03&#45;&gt;program04 -->
<!-- program05 -->
<g id="node6" class="node">
<title>program05</title>
<polygon fill="none" stroke="black" points="552,-132 362,-132 362,-96 552,-96 552,-132"/>
<text text-anchor="middle" x="457" y="-117.25" font-family="monospace" font-size="10.00">( Step.3 )</text>
<text text-anchor="middle" x="457" y="-104.5" font-family="monospace" font-size="10.00">automake &#45;&#45;add&#45;missing &#160;&#160;&#160;&#160;&#160;&#160;</text>
</g>
<!-- program04&#45;&gt;program05 -->
<!-- program06 -->
<g id="node7" class="node">
<title>program06</title>
<polygon fill="none" stroke="black" stroke-dasharray="1,5" points="552,-60 362,-60 362,-24 552,-24 552,-60"/>
<text text-anchor="middle" x="457" y="-45.25" font-family="monospace" font-size="10.00">( Step.4 )</text>
<text text-anchor="middle" x="457" y="-32.5" font-family="monospace" font-size="10.00">./configure &#160;&#160;&#160;&#160;&#160;&#160;&#160;&#160;&#160;&#160;&#160;&#160;&#160;&#160;&#160;&#160;&#160;</text>
</g>
<!-- program05&#45;&gt;program06 -->
<!-- file01 -->
<g id="node8" class="node">
<title>file01</title>
<polygon fill="none" stroke="black" stroke-width="2" points="202,-492 132,-492 132,-456 208,-456 208,-486 202,-492"/>
<polyline fill="none" stroke="black" stroke-width="2" points="202,-492 202,-486"/>
<polyline fill="none" stroke="black" stroke-width="2" points="208,-486 202,-486"/>
<text text-anchor="middle" x="170" y="-470.88" font-family="monospace" font-size="10.00">docs/*.dot</text>
</g>
<!-- file01&#45;&gt;program01 -->
<g id="edge19" class="edge">
<title>file01&#45;&gt;program01</title>
<path fill="none" stroke="black" d="M174.39,-492.73C181.05,-516.38 196.23,-556.09 226,-573.5 270.12,-599.3 293.07,-591.24 341,-573.5 379.95,-559.08 414.64,-525.09 435.72,-500.86"/>
<polygon fill="black" stroke="black" points="438.8,-503.63 442.59,-493.74 433.46,-499.11 438.8,-503.63"/>
</g>
<!-- file02 -->
<g id="node9" class="node">
<title>file02</title>
<polygon fill="none" stroke="black" stroke-dasharray="1,5" points="94,-420 24,-420 24,-384 100,-384 100,-414 94,-420"/>
<polyline fill="none" stroke="black" stroke-dasharray="1,5" points="94,-420 94,-414"/>
<polyline fill="none" stroke="black" stroke-dasharray="1,5" points="100,-414 94,-414"/>
<text text-anchor="middle" x="62" y="-398.88" font-family="monospace" font-size="10.00">aclocal.m4</text>
</g>
<!-- file01&#45;&gt;file02 -->
<!-- file01&#45;&gt;file08 -->
<!-- file03 -->
<g id="node10" class="node">
<title>file03</title>
<polygon fill="none" stroke="black" stroke-dasharray="1,5" points="107,-348 25,-348 25,-312 113,-312 113,-342 107,-348"/>
<polyline fill="none" stroke="black" stroke-dasharray="1,5" points="107,-348 107,-342"/>
<polyline fill="none" stroke="black" stroke-dasharray="1,5" points="113,-342 107,-342"/>
<text text-anchor="middle" x="69" y="-326.88" font-family="monospace" font-size="10.00">configure.ac</text>
</g>
<!-- file02&#45;&gt;file03 -->
<!-- file04 -->
<g id="node11" class="node">
<title>file04</title>
<polygon fill="none" stroke="black" stroke-dasharray="1,5" points="105,-276 29,-276 29,-240 111,-240 111,-270 105,-276"/>
<polyline fill="none" stroke="black" stroke-dasharray="1,5" points="105,-276 105,-270"/>
<polyline fill="none" stroke="black" stroke-dasharray="1,5" points="111,-270 105,-270"/>
<text text-anchor="middle" x="70" y="-254.88" font-family="monospace" font-size="10.00">Makefile.am</text>
</g>
<!-- file03&#45;&gt;file04 -->
<!-- file05 -->
<g id="node12" class="node">
<title>file05</title>
<polygon fill="none" stroke="black" stroke-dasharray="1,5" points="108,-204 32,-204 32,-168 114,-168 114,-198 108,-204"/>
<polyline fill="none" stroke="black" stroke-dasharray="1,5" points="108,-204 108,-198"/>
<polyline fill="none" stroke="black" stroke-dasharray="1,5" points="114,-198 108,-198"/>
<text text-anchor="middle" x="73" y="-182.88" font-family="monospace" font-size="10.00">Makefile.in</text>
</g>
<!-- file04&#45;&gt;file05 -->
<!-- file06 -->
<g id="node13" class="node">
<title>file06</title>
<polygon fill="none" stroke="black" stroke-dasharray="1,5" points="100,-132 42,-132 42,-96 106,-96 106,-126 100,-132"/>
<polyline fill="none" stroke="black" stroke-dasharray="1,5" points="100,-132 100,-126"/>
<polyline fill="none" stroke="black" stroke-dasharray="1,5" points="106,-126 100,-126"/>
<text text-anchor="middle" x="74" y="-110.88" font-family="monospace" font-size="10.00">Makefile</text>
</g>
<!-- file05&#45;&gt;file06 -->
<!-- file07 -->
<g id="node14" class="node">
<title>file07</title>
<polygon fill="none" stroke="black" stroke-dasharray="1,5" points="130,-60 24,-60 24,-24 136,-24 136,-54 130,-60"/>
<polyline fill="none" stroke="black" stroke-dasharray="1,5" points="130,-60 130,-54"/>
<polyline fill="none" stroke="black" stroke-dasharray="1,5" points="136,-54 130,-54"/>
<text text-anchor="middle" x="80" y="-38.88" font-family="monospace" font-size="10.00">autom4te.cache/*</text>
</g>
<!-- file06&#45;&gt;file07 -->
<!-- file09 -->
<g id="node16" class="node">
<title>file09</title>
<polygon fill="none" stroke="black" points="332,-420 118,-420 118,-384 338,-384 338,-414 332,-420"/>
<polyline fill="none" stroke="black" points="332,-420 332,-414"/>
<polyline fill="none" stroke="black" points="338,-414 332,-414"/>
<text text-anchor="middle" x="228" y="-398.88" font-family="monospace" font-size="10.00">tools/GenAutotoolsAcAm_UserFile.pm</text>
</g>
<!-- file08&#45;&gt;file09 -->
<!-- file10 -->
<g id="node17" class="node">
<title>file10</title>
<polygon fill="none" stroke="black" stroke-dasharray="1,5" points="254,-348 196,-348 196,-312 260,-312 260,-342 254,-348"/>
<polyline fill="none" stroke="black" stroke-dasharray="1,5" points="254,-348 254,-342"/>
<polyline fill="none" stroke="black" stroke-dasharray="1,5" points="260,-342 254,-342"/>
<text text-anchor="middle" x="228" y="-326.88" font-family="monospace" font-size="10.00">config.*</text>
</g>
<!-- file09&#45;&gt;file10 -->
<!-- file11 -->
<g id="node18" class="node">
<title>file11</title>
<polygon fill="none" stroke="black" stroke-dasharray="1,5" points="281,-276 169,-276 169,-240 287,-240 287,-270 281,-276"/>
<polyline fill="none" stroke="black" stroke-dasharray="1,5" points="281,-276 281,-270"/>
<polyline fill="none" stroke="black" stroke-dasharray="1,5" points="287,-270 281,-270"/>
<text text-anchor="middle" x="228" y="-254.88" font-family="monospace" font-size="10.00">tests/Makefile.am</text>
</g>
<!-- file10&#45;&gt;file11 -->
<!-- file12 -->
<g id="node19" class="node">
<title>file12</title>
<polygon fill="none" stroke="black" stroke-dasharray="1,5" points="281,-204 169,-204 169,-168 287,-168 287,-198 281,-204"/>
<polyline fill="none" stroke="black" stroke-dasharray="1,5" points="281,-204 281,-198"/>
<polyline fill="none" stroke="black" stroke-dasharray="1,5" points="287,-198 281,-198"/>
<text text-anchor="middle" x="228" y="-182.88" font-family="monospace" font-size="10.00">tests/Makefile.in</text>
</g>
<!-- file11&#45;&gt;file12 -->
<!-- file13 -->
<g id="node20" class="node">
<title>file13</title>
<polygon fill="none" stroke="black" stroke-dasharray="1,5" points="272,-132 178,-132 178,-96 278,-96 278,-126 272,-132"/>
<polyline fill="none" stroke="black" stroke-dasharray="1,5" points="272,-132 272,-126"/>
<polyline fill="none" stroke="black" stroke-dasharray="1,5" points="278,-126 272,-126"/>
<text text-anchor="middle" x="228" y="-110.88" font-family="monospace" font-size="10.00">tests/Makefile</text>
</g>
<!-- file12&#45;&gt;file13 -->
</g>
</svg>
