<?xml version="1.0" encoding="UTF-8" standalone="no"?>
<!DOCTYPE svg PUBLIC "-//W3C//DTD SVG 1.1//EN"
 "http://www.w3.org/Graphics/SVG/1.1/DTD/svg11.dtd">
<!-- Generated by graphviz version 8.0.5 (20230508.1809)
 -->
<!-- Title: physical_directory_structure Pages: 1 -->
<svg width="602pt" height="428pt"
 viewBox="0.00 0.00 602.00 427.50" xmlns="http://www.w3.org/2000/svg" xmlns:xlink="http://www.w3.org/1999/xlink">
<g id="graph0" class="graph" transform="scale(1 1) rotate(0) translate(4 423.5)">
<title>physical_directory_structure</title>
<polygon fill="white" stroke="none" points="-4,4 -4,-423.5 598,-423.5 598,4 -4,4"/>
<g id="clust1" class="cluster">
<title>cluster_all</title>
<path fill="none" stroke="black" d="M20,-8C20,-8 574,-8 574,-8 580,-8 586,-14 586,-20 586,-20 586,-399.5 586,-399.5 586,-405.5 580,-411.5 574,-411.5 574,-411.5 20,-411.5 20,-411.5 14,-411.5 8,-405.5 8,-399.5 8,-399.5 8,-20 8,-20 8,-14 14,-8 20,-8"/>
<text text-anchor="middle" x="297" y="-394.2" font-family="monospace" font-size="14.00">Build environment using &quot;autotools&quot; ( Step.2 )</text>
</g>
<g id="clust2" class="cluster">
<title>cluster_program</title>
<polygon fill="none" stroke="black" points="352,-16 352,-378.25 578,-378.25 578,-16 352,-16"/>
<text text-anchor="middle" x="465" y="-362.85" font-family="monospace" font-size="12.00">Program</text>
</g>
<g id="clust4" class="cluster">
<title>cluster_file</title>
<polygon fill="none" stroke="black" points="16,-16 16,-378.25 344,-378.25 344,-16 16,-16"/>
<text text-anchor="middle" x="180" y="-362.85" font-family="monospace" font-size="12.00">Files</text>
</g>
<!-- program01 -->
<g id="node1" class="node">
<title>program01</title>
<polygon fill="none" stroke="black" points="550,-348 360,-348 360,-312 550,-312 550,-348"/>
<text text-anchor="middle" x="455" y="-333.25" font-family="monospace" font-size="10.00">( Step.pre&#45;1 )</text>
<text text-anchor="middle" x="455" y="-320.5" font-family="monospace" font-size="10.00">./tools/gen_autotools_acam.pl</text>
</g>
<!-- program02 -->
<g id="node2" class="node">
<title>program02</title>
<polygon fill="none" stroke="black" points="550,-276 360,-276 360,-240 550,-240 550,-276"/>
<text text-anchor="middle" x="455" y="-261.25" font-family="monospace" font-size="10.00">( Step.1 )</text>
<text text-anchor="middle" x="455" y="-248.5" font-family="monospace" font-size="10.00">aclocal &#160;&#160;&#160;&#160;&#160;&#160;&#160;&#160;&#160;&#160;&#160;&#160;&#160;&#160;&#160;&#160;&#160;&#160;&#160;&#160;&#160;</text>
</g>
<!-- program01&#45;&gt;program02 -->
<!-- program03 -->
<g id="node3" class="node">
<title>program03</title>
<polygon fill="none" stroke="black" stroke-width="2" points="550,-204 360,-204 360,-168 550,-168 550,-204"/>
<text text-anchor="middle" x="455" y="-189.25" font-family="monospace" font-size="10.00">( Step.2 )</text>
<text text-anchor="middle" x="455" y="-176.5" font-family="monospace" font-size="10.00">autoconf &#160;&#160;&#160;&#160;&#160;&#160;&#160;&#160;&#160;&#160;&#160;&#160;&#160;&#160;&#160;&#160;&#160;&#160;&#160;&#160;</text>
</g>
<!-- program02&#45;&gt;program03 -->
<!-- program04 -->
<g id="node4" class="node">
<title>program04</title>
<polygon fill="none" stroke="black" points="550,-132 360,-132 360,-96 550,-96 550,-132"/>
<text text-anchor="middle" x="455" y="-117.25" font-family="monospace" font-size="10.00">( Step.3 )</text>
<text text-anchor="middle" x="455" y="-104.5" font-family="monospace" font-size="10.00">automake &#45;&#45;add&#45;missing &#45;&#45;copy</text>
</g>
<!-- program03&#45;&gt;program04 -->
<!-- program05 -->
<g id="node5" class="node">
<title>program05</title>
<polygon fill="none" stroke="black" stroke-width="2" points="550,-60 360,-60 360,-24 550,-24 550,-60"/>
<text text-anchor="middle" x="455" y="-45.25" font-family="monospace" font-size="10.00">( Step.4 )</text>
<text text-anchor="middle" x="455" y="-32.5" font-family="monospace" font-size="10.00">./configure &#160;&#160;&#160;&#160;&#160;&#160;&#160;&#160;&#160;&#160;&#160;&#160;&#160;&#160;&#160;&#160;&#160;</text>
</g>
<!-- program03&#45;&gt;program05 -->
<g id="edge31" class="edge">
<title>program03&#45;&gt;program05</title>
<path fill="none" stroke="black" d="M516.64,-167.06C533.26,-159.09 549.31,-147.81 559,-132 567.36,-118.36 567.36,-109.64 559,-96 551.2,-83.28 539.29,-73.49 526.27,-66"/>
<polygon fill="black" stroke="black" points="528.12,-62.49 517.64,-60.94 524.87,-68.69 528.12,-62.49"/>
</g>
<!-- file09 -->
<g id="node15" class="node">
<title>file09</title>
<polygon fill="none" stroke="black" stroke-width="2" points="330,-276 224,-276 224,-240 336,-240 336,-270 330,-276"/>
<polyline fill="none" stroke="black" stroke-width="2" points="330,-276 330,-270"/>
<polyline fill="none" stroke="black" stroke-width="2" points="336,-270 330,-270"/>
<text text-anchor="middle" x="280" y="-254.88" font-family="monospace" font-size="10.00">autom4te.cache/*</text>
</g>
<!-- program03&#45;&gt;file09 -->
<g id="edge34" class="edge">
<title>program03&#45;&gt;file09</title>
<path fill="none" stroke="black" d="M416.14,-204.93C393.96,-214.17 365.74,-225.5 340.72,-235.23"/>
<polygon fill="black" stroke="black" points="339.65,-232.28 331.58,-239.15 342.17,-238.81 339.65,-232.28"/>
</g>
<!-- program04&#45;&gt;program05 -->
<!-- file13 -->
<g id="node6" class="node">
<title>file13</title>
<polygon fill="none" stroke="black" points="298,-348 84,-348 84,-312 304,-312 304,-342 298,-348"/>
<polyline fill="none" stroke="black" points="298,-348 298,-342"/>
<polyline fill="none" stroke="black" points="304,-342 298,-342"/>
<text text-anchor="middle" x="194" y="-326.88" font-family="monospace" font-size="10.00">tools/GenAutotoolsAcAm_UserFile.pm</text>
</g>
<!-- file13&#45;&gt;program01 -->
<!-- file01 -->
<g id="node7" class="node">
<title>file01</title>
<polygon fill="none" stroke="black" points="94,-276 24,-276 24,-240 100,-240 100,-270 94,-276"/>
<polyline fill="none" stroke="black" points="94,-276 94,-270"/>
<polyline fill="none" stroke="black" points="100,-270 94,-270"/>
<text text-anchor="middle" x="62" y="-254.88" font-family="monospace" font-size="10.00">docs/*.dot</text>
</g>
<!-- file13&#45;&gt;file01 -->
<!-- file05 -->
<g id="node11" class="node">
<title>file05</title>
<polygon fill="none" stroke="black" stroke-width="2" points="200,-276 118,-276 118,-240 206,-240 206,-270 200,-276"/>
<polyline fill="none" stroke="black" stroke-width="2" points="200,-276 200,-270"/>
<polyline fill="none" stroke="black" stroke-width="2" points="206,-270 200,-270"/>
<text text-anchor="middle" x="162" y="-254.88" font-family="monospace" font-size="10.00">configure.ac</text>
</g>
<!-- file13&#45;&gt;file05 -->
<!-- file13&#45;&gt;file09 -->
<!-- file02 -->
<g id="node8" class="node">
<title>file02</title>
<polygon fill="none" stroke="black" points="194,-204 124,-204 124,-168 200,-168 200,-198 194,-204"/>
<polyline fill="none" stroke="black" points="194,-204 194,-198"/>
<polyline fill="none" stroke="black" points="200,-198 194,-198"/>
<text text-anchor="middle" x="162" y="-182.88" font-family="monospace" font-size="10.00">docs/*.svg</text>
</g>
<!-- file01&#45;&gt;file02 -->
<!-- file01&#45;&gt;file05 -->
<!-- file03 -->
<g id="node9" class="node">
<title>file03</title>
<polygon fill="none" stroke="black" stroke-width="2" points="330,-132 260,-132 260,-96 336,-96 336,-126 330,-132"/>
<polyline fill="none" stroke="black" stroke-width="2" points="330,-132 330,-126"/>
<polyline fill="none" stroke="black" stroke-width="2" points="336,-126 330,-126"/>
<text text-anchor="middle" x="298" y="-110.88" font-family="monospace" font-size="10.00">aclocal.m4</text>
</g>
<!-- file02&#45;&gt;file03 -->
<!-- file06 -->
<g id="node12" class="node">
<title>file06</title>
<polygon fill="none" stroke="black" points="100,-204 24,-204 24,-168 106,-168 106,-198 100,-204"/>
<polyline fill="none" stroke="black" points="100,-204 100,-198"/>
<polyline fill="none" stroke="black" points="106,-198 100,-198"/>
<text text-anchor="middle" x="65" y="-182.88" font-family="monospace" font-size="10.00">Makefile.am</text>
</g>
<!-- file02&#45;&gt;file06 -->
<!-- file03&#45;&gt;program03 -->
<g id="edge32" class="edge">
<title>file03&#45;&gt;program03</title>
<path fill="none" stroke="black" d="M336.87,-132.33C357.48,-141.52 383.05,-152.92 405.11,-162.76"/>
<polygon fill="black" stroke="black" points="403.42,-166.28 413.98,-167.15 406.27,-159.89 403.42,-166.28"/>
</g>
<!-- file04 -->
<g id="node10" class="node">
<title>file04</title>
<polygon fill="none" stroke="black" stroke-dasharray="1,5" points="320,-60 262,-60 262,-24 326,-24 326,-54 320,-60"/>
<polyline fill="none" stroke="black" stroke-dasharray="1,5" points="320,-60 320,-54"/>
<polyline fill="none" stroke="black" stroke-dasharray="1,5" points="326,-54 320,-54"/>
<text text-anchor="middle" x="294" y="-38.88" font-family="monospace" font-size="10.00">config.*</text>
</g>
<!-- file03&#45;&gt;file04 -->
<!-- file07 -->
<g id="node13" class="node">
<title>file07</title>
<polygon fill="none" stroke="black" stroke-dasharray="1,5" points="100,-132 24,-132 24,-96 106,-96 106,-126 100,-132"/>
<polyline fill="none" stroke="black" stroke-dasharray="1,5" points="100,-132 100,-126"/>
<polyline fill="none" stroke="black" stroke-dasharray="1,5" points="106,-126 100,-126"/>
<text text-anchor="middle" x="65" y="-110.88" font-family="monospace" font-size="10.00">Makefile.in</text>
</g>
<!-- file03&#45;&gt;file07 -->
<!-- file08 -->
<g id="node14" class="node">
<title>file08</title>
<polygon fill="none" stroke="black" stroke-dasharray="1,5" points="113,-60 55,-60 55,-24 119,-24 119,-54 113,-60"/>
<polyline fill="none" stroke="black" stroke-dasharray="1,5" points="113,-60 113,-54"/>
<polyline fill="none" stroke="black" stroke-dasharray="1,5" points="119,-54 113,-54"/>
<text text-anchor="middle" x="87" y="-38.88" font-family="monospace" font-size="10.00">Makefile</text>
</g>
<!-- file04&#45;&gt;file08 -->
<!-- file05&#45;&gt;program03 -->
<g id="edge30" class="edge">
<title>file05&#45;&gt;program03</title>
<path fill="none" stroke="black" d="M206.73,-242.33C209.52,-241.51 212.29,-240.73 215,-240 260.1,-227.82 310.51,-216.36 353.45,-207.24"/>
<polygon fill="black" stroke="black" points="354.14,-210.46 363.2,-204.97 352.69,-203.61 354.14,-210.46"/>
</g>
<!-- file05&#45;&gt;file06 -->
<!-- file05&#45;&gt;file09 -->
<!-- file06&#45;&gt;file07 -->
<!-- file10 -->
<g id="node16" class="node">
<title>file10</title>
<polygon fill="none" stroke="black" points="330,-204 218,-204 218,-168 336,-168 336,-198 330,-204"/>
<polyline fill="none" stroke="black" points="330,-204 330,-198"/>
<polyline fill="none" stroke="black" points="336,-198 330,-198"/>
<text text-anchor="middle" x="277" y="-182.88" font-family="monospace" font-size="10.00">tests/Makefile.am</text>
</g>
<!-- file06&#45;&gt;file10 -->
<!-- file07&#45;&gt;file08 -->
<!-- file11 -->
<g id="node17" class="node">
<title>file11</title>
<polygon fill="none" stroke="black" stroke-dasharray="1,5" points="236,-132 124,-132 124,-96 242,-96 242,-126 236,-132"/>
<polyline fill="none" stroke="black" stroke-dasharray="1,5" points="236,-132 236,-126"/>
<polyline fill="none" stroke="black" stroke-dasharray="1,5" points="242,-126 236,-126"/>
<text text-anchor="middle" x="183" y="-110.88" font-family="monospace" font-size="10.00">tests/Makefile.in</text>
</g>
<!-- file07&#45;&gt;file11 -->
<!-- file12 -->
<g id="node18" class="node">
<title>file12</title>
<polygon fill="none" stroke="black" stroke-dasharray="1,5" points="231,-60 137,-60 137,-24 237,-24 237,-54 231,-60"/>
<polyline fill="none" stroke="black" stroke-dasharray="1,5" points="231,-60 231,-54"/>
<polyline fill="none" stroke="black" stroke-dasharray="1,5" points="237,-54 231,-54"/>
<text text-anchor="middle" x="187" y="-38.88" font-family="monospace" font-size="10.00">tests/Makefile</text>
</g>
<!-- file08&#45;&gt;file12 -->
<!-- file09&#45;&gt;program02 -->
<!-- file09&#45;&gt;program03 -->
<g id="edge33" class="edge">
<title>file09&#45;&gt;program03</title>
<path fill="none" stroke="black" d="M318.64,-239.15C340.78,-229.93 369,-218.6 394.04,-208.86"/>
<polygon fill="black" stroke="black" points="395.12,-211.81 403.19,-204.93 392.6,-205.28 395.12,-211.81"/>
</g>
<!-- file09&#45;&gt;file10 -->
<!-- file10&#45;&gt;program03 -->
<!-- file10&#45;&gt;file11 -->
<!-- file11&#45;&gt;program04 -->
<!-- file11&#45;&gt;file12 -->
<!-- file12&#45;&gt;program05 -->
</g>
</svg>
