<?xml version="1.0" encoding="UTF-8" standalone="no"?>
<!DOCTYPE svg PUBLIC "-//W3C//DTD SVG 1.1//EN"
 "http://www.w3.org/Graphics/SVG/1.1/DTD/svg11.dtd">
<!-- Generated by graphviz version 8.0.5 (20230508.1809)
 -->
<!-- Title: physical_directory_structure Pages: 1 -->
<svg width="604pt" height="572pt"
 viewBox="0.00 0.00 604.00 571.50" xmlns="http://www.w3.org/2000/svg" xmlns:xlink="http://www.w3.org/1999/xlink">
<g id="graph0" class="graph" transform="scale(1 1) rotate(0) translate(4 567.5)">
<title>physical_directory_structure</title>
<polygon fill="white" stroke="none" points="-4,4 -4,-567.5 600,-567.5 600,4 -4,4"/>
<g id="clust1" class="cluster">
<title>cluster_all</title>
<path fill="none" stroke="black" d="M20,-8C20,-8 576,-8 576,-8 582,-8 588,-14 588,-20 588,-20 588,-543.5 588,-543.5 588,-549.5 582,-555.5 576,-555.5 576,-555.5 20,-555.5 20,-555.5 14,-555.5 8,-549.5 8,-543.5 8,-543.5 8,-20 8,-20 8,-14 14,-8 20,-8"/>
<text text-anchor="middle" x="298" y="-538.2" font-family="monospace" font-size="14.00">Build environment using &quot;autotools&quot; ( step.2 )</text>
</g>
<g id="clust2" class="cluster">
<title>cluster_program</title>
<polygon fill="none" stroke="black" points="354,-16 354,-522.25 580,-522.25 580,-16 354,-16"/>
<text text-anchor="middle" x="467" y="-506.85" font-family="monospace" font-size="12.00">Program</text>
</g>
<g id="clust4" class="cluster">
<title>cluster_file</title>
<polygon fill="none" stroke="black" points="16,-16 16,-522.25 346,-522.25 346,-16 16,-16"/>
<text text-anchor="middle" x="181" y="-506.85" font-family="monospace" font-size="12.00">Files</text>
</g>
<!-- program01 -->
<g id="node1" class="node">
<title>program01</title>
<polygon fill="none" stroke="black" points="565,-492 375,-492 375,-456 565,-456 565,-492"/>
<text text-anchor="middle" x="470" y="-477.25" font-family="monospace" font-size="10.00">( Step.pre&#45;1 )</text>
<text text-anchor="middle" x="470" y="-464.5" font-family="monospace" font-size="10.00">./tools/create_graph.sh &#160;&#160;&#160;&#160;&#160;</text>
</g>
<!-- program02 -->
<g id="node2" class="node">
<title>program02</title>
<polygon fill="none" stroke="black" points="565,-420 375,-420 375,-384 565,-384 565,-420"/>
<text text-anchor="middle" x="470" y="-405.25" font-family="monospace" font-size="10.00">( Step.pre&#45;2 )</text>
<text text-anchor="middle" x="470" y="-392.5" font-family="monospace" font-size="10.00">./tools/gen_autotools_acam.pl</text>
</g>
<!-- program01&#45;&gt;program02 -->
<!-- program99 -->
<!-- program02&#45;&gt;program99 -->
<!-- program03 -->
<g id="node4" class="node">
<title>program03</title>
<polygon fill="none" stroke="black" points="565,-276 375,-276 375,-240 565,-240 565,-276"/>
<text text-anchor="middle" x="470" y="-261.25" font-family="monospace" font-size="10.00">( Step.1 )</text>
<text text-anchor="middle" x="470" y="-248.5" font-family="monospace" font-size="10.00">aclocal &#160;&#160;&#160;&#160;&#160;&#160;&#160;&#160;&#160;&#160;&#160;&#160;&#160;&#160;&#160;&#160;&#160;&#160;&#160;&#160;&#160;</text>
</g>
<!-- program99&#45;&gt;program03 -->
<!-- program04 -->
<g id="node5" class="node">
<title>program04</title>
<polygon fill="none" stroke="black" stroke-width="2" points="552,-204 362,-204 362,-168 552,-168 552,-204"/>
<text text-anchor="middle" x="457" y="-189.25" font-family="monospace" font-size="10.00">( Step.2 )</text>
<text text-anchor="middle" x="457" y="-176.5" font-family="monospace" font-size="10.00">autoconf &#160;&#160;&#160;&#160;&#160;&#160;&#160;&#160;&#160;&#160;&#160;&#160;&#160;&#160;&#160;&#160;&#160;&#160;&#160;&#160;</text>
</g>
<!-- program03&#45;&gt;program04 -->
<!-- program05 -->
<g id="node6" class="node">
<title>program05</title>
<polygon fill="none" stroke="black" points="552,-132 362,-132 362,-96 552,-96 552,-132"/>
<text text-anchor="middle" x="457" y="-117.25" font-family="monospace" font-size="10.00">( Step.3 )</text>
<text text-anchor="middle" x="457" y="-104.5" font-family="monospace" font-size="10.00">automake &#45;&#45;add&#45;missing &#45;&#45;copy</text>
</g>
<!-- program04&#45;&gt;program05 -->
<!-- program06 -->
<g id="node7" class="node">
<title>program06</title>
<polygon fill="none" stroke="black" points="562,-60 372,-60 372,-24 562,-24 562,-60"/>
<text text-anchor="middle" x="467" y="-45.25" font-family="monospace" font-size="10.00">( Step.4 )</text>
<text text-anchor="middle" x="467" y="-32.5" font-family="monospace" font-size="10.00">./configure &#160;&#160;&#160;&#160;&#160;&#160;&#160;&#160;&#160;&#160;&#160;&#160;&#160;&#160;&#160;&#160;&#160;</text>
</g>
<!-- program04&#45;&gt;program06 -->
<g id="edge20" class="edge">
<title>program04&#45;&gt;program06</title>
<path fill="none" stroke="black" d="M518.64,-167.06C535.26,-159.09 551.31,-147.81 561,-132 569.36,-118.36 569.07,-109.82 561,-96 553.47,-83.11 541.53,-73.11 528.64,-65.45"/>
<polygon fill="black" stroke="black" points="530.6,-61.99 520.14,-60.28 527.25,-68.14 530.6,-61.99"/>
</g>
<!-- file07 -->
<g id="node14" class="node">
<title>file07</title>
<polygon fill="none" stroke="black" stroke-width="2" points="332,-60 226,-60 226,-24 338,-24 338,-54 332,-60"/>
<polyline fill="none" stroke="black" stroke-width="2" points="332,-60 332,-54"/>
<polyline fill="none" stroke="black" stroke-width="2" points="338,-54 332,-54"/>
<text text-anchor="middle" x="282" y="-38.88" font-family="monospace" font-size="10.00">autom4te.cache/*</text>
</g>
<!-- program04&#45;&gt;file07 -->
<g id="edge22" class="edge">
<title>program04&#45;&gt;file07</title>
<path fill="none" stroke="black" d="M409.97,-167.01C390.97,-158.29 369.64,-146.52 353,-132 338.32,-119.19 339.96,-111.38 328,-96 320.93,-86.91 312.81,-77.31 305.39,-68.81"/>
<polygon fill="black" stroke="black" points="308.5,-66.92 299.25,-61.75 303.25,-71.55 308.5,-66.92"/>
</g>
<!-- program05&#45;&gt;program06 -->
<!-- file01 -->
<g id="node8" class="node">
<title>file01</title>
<polygon fill="none" stroke="black" points="314,-492 244,-492 244,-456 320,-456 320,-486 314,-492"/>
<polyline fill="none" stroke="black" points="314,-492 314,-486"/>
<polyline fill="none" stroke="black" points="320,-486 314,-486"/>
<text text-anchor="middle" x="282" y="-470.88" font-family="monospace" font-size="10.00">docs/*.dot</text>
</g>
<!-- file02 -->
<g id="node9" class="node">
<title>file02</title>
<polygon fill="none" stroke="black" stroke-width="2" points="332,-420 262,-420 262,-384 338,-384 338,-414 332,-420"/>
<polyline fill="none" stroke="black" stroke-width="2" points="332,-420 332,-414"/>
<polyline fill="none" stroke="black" stroke-width="2" points="338,-414 332,-414"/>
<text text-anchor="middle" x="300" y="-398.88" font-family="monospace" font-size="10.00">aclocal.m4</text>
</g>
<!-- file01&#45;&gt;file02 -->
<!-- file08 -->
<g id="node15" class="node">
<title>file08</title>
<polygon fill="none" stroke="black" points="184,-492 114,-492 114,-456 190,-456 190,-486 184,-492"/>
<polyline fill="none" stroke="black" points="184,-492 184,-486"/>
<polyline fill="none" stroke="black" points="190,-486 184,-486"/>
<text text-anchor="middle" x="152" y="-470.88" font-family="monospace" font-size="10.00">docs/*.svg</text>
</g>
<!-- file01&#45;&gt;file08 -->
<!-- file02&#45;&gt;program04 -->
<g id="edge21" class="edge">
<title>file02&#45;&gt;program04</title>
<path fill="none" stroke="black" d="M319.78,-383.17C329.15,-373.64 339.65,-361.17 346,-348 367.19,-304.02 337.9,-279.92 366,-240 374.64,-227.73 387.09,-217.88 400.02,-210.16"/>
<polygon fill="black" stroke="black" points="401.44,-212.82 408.48,-204.91 398.04,-206.7 401.44,-212.82"/>
</g>
<!-- file03 -->
<g id="node10" class="node">
<title>file03</title>
<polygon fill="none" stroke="black" stroke-width="2" points="331,-348 249,-348 249,-312 337,-312 337,-342 331,-348"/>
<polyline fill="none" stroke="black" stroke-width="2" points="331,-348 331,-342"/>
<polyline fill="none" stroke="black" stroke-width="2" points="337,-342 331,-342"/>
<text text-anchor="middle" x="293" y="-326.88" font-family="monospace" font-size="10.00">configure.ac</text>
</g>
<!-- file02&#45;&gt;file03 -->
<!-- file03&#45;&gt;program04 -->
<g id="edge19" class="edge">
<title>file03&#45;&gt;program04</title>
<path fill="none" stroke="black" d="M303.13,-311.13C316.28,-288.39 338.96,-250.74 351,-240 364.8,-227.69 381.97,-217.49 398.45,-209.44"/>
<polygon fill="black" stroke="black" points="399.47,-212.36 407.04,-204.95 396.5,-206.02 399.47,-212.36"/>
</g>
<!-- file04 -->
<g id="node11" class="node">
<title>file04</title>
<polygon fill="none" stroke="black" points="308,-276 232,-276 232,-240 314,-240 314,-270 308,-276"/>
<polyline fill="none" stroke="black" points="308,-276 308,-270"/>
<polyline fill="none" stroke="black" points="314,-270 308,-270"/>
<text text-anchor="middle" x="273" y="-254.88" font-family="monospace" font-size="10.00">Makefile.am</text>
</g>
<!-- file03&#45;&gt;file04 -->
<!-- file05 -->
<g id="node12" class="node">
<title>file05</title>
<polygon fill="none" stroke="black" stroke-dasharray="1,5" points="308,-204 232,-204 232,-168 314,-168 314,-198 308,-204"/>
<polyline fill="none" stroke="black" stroke-dasharray="1,5" points="308,-204 308,-198"/>
<polyline fill="none" stroke="black" stroke-dasharray="1,5" points="314,-198 308,-198"/>
<text text-anchor="middle" x="273" y="-182.88" font-family="monospace" font-size="10.00">Makefile.in</text>
</g>
<!-- file04&#45;&gt;file05 -->
<!-- file06 -->
<g id="node13" class="node">
<title>file06</title>
<polygon fill="none" stroke="black" stroke-dasharray="1,5" points="298,-132 240,-132 240,-96 304,-96 304,-126 298,-132"/>
<polyline fill="none" stroke="black" stroke-dasharray="1,5" points="298,-132 298,-126"/>
<polyline fill="none" stroke="black" stroke-dasharray="1,5" points="304,-126 298,-126"/>
<text text-anchor="middle" x="272" y="-110.88" font-family="monospace" font-size="10.00">Makefile</text>
</g>
<!-- file05&#45;&gt;file06 -->
<!-- file06&#45;&gt;file07 -->
<!-- file07&#45;&gt;program04 -->
<g id="edge23" class="edge">
<title>file07&#45;&gt;program04</title>
<path fill="none" stroke="black" d="M293.23,-60.82C299.41,-70.95 307.01,-83.98 313,-96 320.73,-111.52 315.71,-119.77 328,-132 341.4,-145.33 358.61,-155.46 376.08,-163.1"/>
<polygon fill="black" stroke="black" points="374.2,-166.52 384.78,-167.09 376.87,-160.05 374.2,-166.52"/>
</g>
<!-- file09 -->
<g id="node16" class="node">
<title>file09</title>
<polygon fill="none" stroke="black" points="238,-420 24,-420 24,-384 244,-384 244,-414 238,-420"/>
<polyline fill="none" stroke="black" points="238,-420 238,-414"/>
<polyline fill="none" stroke="black" points="244,-414 238,-414"/>
<text text-anchor="middle" x="134" y="-398.88" font-family="monospace" font-size="10.00">tools/GenAutotoolsAcAm_UserFile.pm</text>
</g>
<!-- file08&#45;&gt;file09 -->
<!-- file10 -->
<g id="node17" class="node">
<title>file10</title>
<polygon fill="none" stroke="black" stroke-dasharray="1,5" points="160,-348 102,-348 102,-312 166,-312 166,-342 160,-348"/>
<polyline fill="none" stroke="black" stroke-dasharray="1,5" points="160,-348 160,-342"/>
<polyline fill="none" stroke="black" stroke-dasharray="1,5" points="166,-342 160,-342"/>
<text text-anchor="middle" x="134" y="-326.88" font-family="monospace" font-size="10.00">config.*</text>
</g>
<!-- file09&#45;&gt;file10 -->
<!-- file11 -->
<g id="node18" class="node">
<title>file11</title>
<polygon fill="none" stroke="black" points="187,-276 75,-276 75,-240 193,-240 193,-270 187,-276"/>
<polyline fill="none" stroke="black" points="187,-276 187,-270"/>
<polyline fill="none" stroke="black" points="193,-270 187,-270"/>
<text text-anchor="middle" x="134" y="-254.88" font-family="monospace" font-size="10.00">tests/Makefile.am</text>
</g>
<!-- file10&#45;&gt;file11 -->
<!-- file12 -->
<g id="node19" class="node">
<title>file12</title>
<polygon fill="none" stroke="black" stroke-dasharray="1,5" points="187,-204 75,-204 75,-168 193,-168 193,-198 187,-204"/>
<polyline fill="none" stroke="black" stroke-dasharray="1,5" points="187,-204 187,-198"/>
<polyline fill="none" stroke="black" stroke-dasharray="1,5" points="193,-198 187,-198"/>
<text text-anchor="middle" x="134" y="-182.88" font-family="monospace" font-size="10.00">tests/Makefile.in</text>
</g>
<!-- file11&#45;&gt;file12 -->
<!-- file13 -->
<g id="node20" class="node">
<title>file13</title>
<polygon fill="none" stroke="black" stroke-dasharray="1,5" points="178,-132 84,-132 84,-96 184,-96 184,-126 178,-132"/>
<polyline fill="none" stroke="black" stroke-dasharray="1,5" points="178,-132 178,-126"/>
<polyline fill="none" stroke="black" stroke-dasharray="1,5" points="184,-126 178,-126"/>
<text text-anchor="middle" x="134" y="-110.88" font-family="monospace" font-size="10.00">tests/Makefile</text>
</g>
<!-- file12&#45;&gt;file13 -->
</g>
</svg>
