<?xml version="1.0" encoding="UTF-8" standalone="no"?>
<!DOCTYPE svg PUBLIC "-//W3C//DTD SVG 1.1//EN"
 "http://www.w3.org/Graphics/SVG/1.1/DTD/svg11.dtd">
<!-- Generated by graphviz version 8.0.5 (20230508.1809)
 -->
<!-- Title: physical_directory_structure Pages: 1 -->
<svg width="582pt" height="428pt"
 viewBox="0.00 0.00 582.00 427.50" xmlns="http://www.w3.org/2000/svg" xmlns:xlink="http://www.w3.org/1999/xlink">
<g id="graph0" class="graph" transform="scale(1 1) rotate(0) translate(4 423.5)">
<title>physical_directory_structure</title>
<polygon fill="white" stroke="none" points="-4,4 -4,-423.5 578,-423.5 578,4 -4,4"/>
<g id="clust1" class="cluster">
<title>cluster_all</title>
<path fill="none" stroke="black" d="M20,-8C20,-8 554,-8 554,-8 560,-8 566,-14 566,-20 566,-20 566,-399.5 566,-399.5 566,-405.5 560,-411.5 554,-411.5 554,-411.5 20,-411.5 20,-411.5 14,-411.5 8,-405.5 8,-399.5 8,-399.5 8,-20 8,-20 8,-14 14,-8 20,-8"/>
<text text-anchor="middle" x="287" y="-394.2" font-family="monospace" font-size="14.00">Build environment using &quot;autotools&quot; ( Step.0 )</text>
</g>
<g id="clust2" class="cluster">
<title>cluster_program</title>
<polygon fill="none" stroke="black" points="352,-16 352,-378.25 558,-378.25 558,-16 352,-16"/>
<text text-anchor="middle" x="455" y="-362.85" font-family="monospace" font-size="12.00">Program</text>
</g>
<g id="clust4" class="cluster">
<title>cluster_file</title>
<polygon fill="none" stroke="black" points="16,-16 16,-378.25 344,-378.25 344,-16 16,-16"/>
<text text-anchor="middle" x="180" y="-362.85" font-family="monospace" font-size="12.00">Files</text>
</g>
<!-- program01 -->
<g id="node1" class="node">
<title>program01</title>
<polygon fill="none" stroke="black" points="550,-348 360,-348 360,-312 550,-312 550,-348"/>
<text text-anchor="middle" x="455" y="-333.25" font-family="monospace" font-size="10.00">( Step.pre&#45;1 )</text>
<text text-anchor="middle" x="455" y="-320.5" font-family="monospace" font-size="10.00">./tools/gen_autotools_acam.pl</text>
</g>
<!-- program02 -->
<g id="node2" class="node">
<title>program02</title>
<polygon fill="none" stroke="black" points="550,-276 360,-276 360,-240 550,-240 550,-276"/>
<text text-anchor="middle" x="455" y="-261.25" font-family="monospace" font-size="10.00">( Step.1 )</text>
<text text-anchor="middle" x="455" y="-248.5" font-family="monospace" font-size="10.00">aclocal &#160;&#160;&#160;&#160;&#160;&#160;&#160;&#160;&#160;&#160;&#160;&#160;&#160;&#160;&#160;&#160;&#160;&#160;&#160;&#160;&#160;</text>
</g>
<!-- program01&#45;&gt;program02 -->
<!-- program03 -->
<g id="node3" class="node">
<title>program03</title>
<polygon fill="none" stroke="black" points="550,-204 360,-204 360,-168 550,-168 550,-204"/>
<text text-anchor="middle" x="455" y="-189.25" font-family="monospace" font-size="10.00">( Step.2 )</text>
<text text-anchor="middle" x="455" y="-176.5" font-family="monospace" font-size="10.00">autoconf &#160;&#160;&#160;&#160;&#160;&#160;&#160;&#160;&#160;&#160;&#160;&#160;&#160;&#160;&#160;&#160;&#160;&#160;&#160;&#160;</text>
</g>
<!-- program02&#45;&gt;program03 -->
<!-- program04 -->
<g id="node4" class="node">
<title>program04</title>
<polygon fill="none" stroke="black" points="550,-132 360,-132 360,-96 550,-96 550,-132"/>
<text text-anchor="middle" x="455" y="-117.25" font-family="monospace" font-size="10.00">( Step.3 )</text>
<text text-anchor="middle" x="455" y="-104.5" font-family="monospace" font-size="10.00">automake &#45;&#45;add&#45;missing &#45;&#45;copy</text>
</g>
<!-- program03&#45;&gt;program04 -->
<!-- program05 -->
<g id="node5" class="node">
<title>program05</title>
<polygon fill="none" stroke="black" stroke-dasharray="1,5" points="550,-60 360,-60 360,-24 550,-24 550,-60"/>
<text text-anchor="middle" x="455" y="-45.25" font-family="monospace" font-size="10.00">( Step.4 )</text>
<text text-anchor="middle" x="455" y="-32.5" font-family="monospace" font-size="10.00">./configure &#160;&#160;&#160;&#160;&#160;&#160;&#160;&#160;&#160;&#160;&#160;&#160;&#160;&#160;&#160;&#160;&#160;</text>
</g>
<!-- program04&#45;&gt;program05 -->
<!-- file13 -->
<g id="node6" class="node">
<title>file13</title>
<polygon fill="none" stroke="black" points="298,-348 84,-348 84,-312 304,-312 304,-342 298,-348"/>
<polyline fill="none" stroke="black" points="298,-348 298,-342"/>
<polyline fill="none" stroke="black" points="304,-342 298,-342"/>
<text text-anchor="middle" x="194" y="-326.88" font-family="monospace" font-size="10.00">tools/GenAutotoolsAcAm_UserFile.pm</text>
</g>
<!-- file13&#45;&gt;program01 -->
<!-- file01 -->
<g id="node7" class="node">
<title>file01</title>
<polygon fill="none" stroke="black" points="94,-276 24,-276 24,-240 100,-240 100,-270 94,-276"/>
<polyline fill="none" stroke="black" points="94,-276 94,-270"/>
<polyline fill="none" stroke="black" points="100,-270 94,-270"/>
<text text-anchor="middle" x="62" y="-254.88" font-family="monospace" font-size="10.00">docs/*.dot</text>
</g>
<!-- file13&#45;&gt;file01 -->
<!-- file05 -->
<g id="node11" class="node">
<title>file05</title>
<polygon fill="none" stroke="black" stroke-dasharray="1,5" points="200,-276 118,-276 118,-240 206,-240 206,-270 200,-276"/>
<polyline fill="none" stroke="black" stroke-dasharray="1,5" points="200,-276 200,-270"/>
<polyline fill="none" stroke="black" stroke-dasharray="1,5" points="206,-270 200,-270"/>
<text text-anchor="middle" x="162" y="-254.88" font-family="monospace" font-size="10.00">configure.ac</text>
</g>
<!-- file13&#45;&gt;file05 -->
<!-- file09 -->
<g id="node15" class="node">
<title>file09</title>
<polygon fill="none" stroke="black" stroke-dasharray="1,5" points="330,-276 224,-276 224,-240 336,-240 336,-270 330,-276"/>
<polyline fill="none" stroke="black" stroke-dasharray="1,5" points="330,-276 330,-270"/>
<polyline fill="none" stroke="black" stroke-dasharray="1,5" points="336,-270 330,-270"/>
<text text-anchor="middle" x="280" y="-254.88" font-family="monospace" font-size="10.00">autom4te.cache/*</text>
</g>
<!-- file13&#45;&gt;file09 -->
<!-- file02 -->
<g id="node8" class="node">
<title>file02</title>
<polygon fill="none" stroke="black" points="94,-204 24,-204 24,-168 100,-168 100,-198 94,-204"/>
<polyline fill="none" stroke="black" points="94,-204 94,-198"/>
<polyline fill="none" stroke="black" points="100,-198 94,-198"/>
<text text-anchor="middle" x="62" y="-182.88" font-family="monospace" font-size="10.00">docs/*.svg</text>
</g>
<!-- file01&#45;&gt;file02 -->
<!-- file01&#45;&gt;file05 -->
<!-- file03 -->
<g id="node9" class="node">
<title>file03</title>
<polygon fill="none" stroke="black" stroke-dasharray="1,5" points="94,-132 24,-132 24,-96 100,-96 100,-126 94,-132"/>
<polyline fill="none" stroke="black" stroke-dasharray="1,5" points="94,-132 94,-126"/>
<polyline fill="none" stroke="black" stroke-dasharray="1,5" points="100,-126 94,-126"/>
<text text-anchor="middle" x="62" y="-110.88" font-family="monospace" font-size="10.00">aclocal.m4</text>
</g>
<!-- file02&#45;&gt;file03 -->
<!-- file06 -->
<g id="node12" class="node">
<title>file06</title>
<polygon fill="none" stroke="black" stroke-dasharray="1,5" points="194,-204 118,-204 118,-168 200,-168 200,-198 194,-204"/>
<polyline fill="none" stroke="black" stroke-dasharray="1,5" points="194,-204 194,-198"/>
<polyline fill="none" stroke="black" stroke-dasharray="1,5" points="200,-198 194,-198"/>
<text text-anchor="middle" x="159" y="-182.88" font-family="monospace" font-size="10.00">Makefile.am</text>
</g>
<!-- file02&#45;&gt;file06 -->
<!-- file04 -->
<g id="node10" class="node">
<title>file04</title>
<polygon fill="none" stroke="black" stroke-dasharray="1,5" points="95,-60 37,-60 37,-24 101,-24 101,-54 95,-60"/>
<polyline fill="none" stroke="black" stroke-dasharray="1,5" points="95,-60 95,-54"/>
<polyline fill="none" stroke="black" stroke-dasharray="1,5" points="101,-54 95,-54"/>
<text text-anchor="middle" x="69" y="-38.88" font-family="monospace" font-size="10.00">config.*</text>
</g>
<!-- file03&#45;&gt;file04 -->
<!-- file07 -->
<g id="node13" class="node">
<title>file07</title>
<polygon fill="none" stroke="black" stroke-dasharray="1,5" points="194,-132 118,-132 118,-96 200,-96 200,-126 194,-132"/>
<polyline fill="none" stroke="black" stroke-dasharray="1,5" points="194,-132 194,-126"/>
<polyline fill="none" stroke="black" stroke-dasharray="1,5" points="200,-126 194,-126"/>
<text text-anchor="middle" x="159" y="-110.88" font-family="monospace" font-size="10.00">Makefile.in</text>
</g>
<!-- file03&#45;&gt;file07 -->
<!-- file08 -->
<g id="node14" class="node">
<title>file08</title>
<polygon fill="none" stroke="black" stroke-dasharray="1,5" points="185,-60 127,-60 127,-24 191,-24 191,-54 185,-60"/>
<polyline fill="none" stroke="black" stroke-dasharray="1,5" points="185,-60 185,-54"/>
<polyline fill="none" stroke="black" stroke-dasharray="1,5" points="191,-54 185,-54"/>
<text text-anchor="middle" x="159" y="-38.88" font-family="monospace" font-size="10.00">Makefile</text>
</g>
<!-- file04&#45;&gt;file08 -->
<!-- file05&#45;&gt;file06 -->
<!-- file05&#45;&gt;file09 -->
<!-- file06&#45;&gt;file07 -->
<!-- file10 -->
<g id="node16" class="node">
<title>file10</title>
<polygon fill="none" stroke="black" stroke-dasharray="1,5" points="330,-204 218,-204 218,-168 336,-168 336,-198 330,-204"/>
<polyline fill="none" stroke="black" stroke-dasharray="1,5" points="330,-204 330,-198"/>
<polyline fill="none" stroke="black" stroke-dasharray="1,5" points="336,-198 330,-198"/>
<text text-anchor="middle" x="277" y="-182.88" font-family="monospace" font-size="10.00">tests/Makefile.am</text>
</g>
<!-- file06&#45;&gt;file10 -->
<!-- file07&#45;&gt;file08 -->
<!-- file11 -->
<g id="node17" class="node">
<title>file11</title>
<polygon fill="none" stroke="black" stroke-dasharray="1,5" points="330,-132 218,-132 218,-96 336,-96 336,-126 330,-132"/>
<polyline fill="none" stroke="black" stroke-dasharray="1,5" points="330,-132 330,-126"/>
<polyline fill="none" stroke="black" stroke-dasharray="1,5" points="336,-126 330,-126"/>
<text text-anchor="middle" x="277" y="-110.88" font-family="monospace" font-size="10.00">tests/Makefile.in</text>
</g>
<!-- file07&#45;&gt;file11 -->
<!-- file12 -->
<g id="node18" class="node">
<title>file12</title>
<polygon fill="none" stroke="black" stroke-dasharray="1,5" points="321,-60 227,-60 227,-24 327,-24 327,-54 321,-60"/>
<polyline fill="none" stroke="black" stroke-dasharray="1,5" points="321,-60 321,-54"/>
<polyline fill="none" stroke="black" stroke-dasharray="1,5" points="327,-54 321,-54"/>
<text text-anchor="middle" x="277" y="-38.88" font-family="monospace" font-size="10.00">tests/Makefile</text>
</g>
<!-- file08&#45;&gt;file12 -->
<!-- file09&#45;&gt;program02 -->
<!-- file09&#45;&gt;file10 -->
<!-- file10&#45;&gt;program03 -->
<!-- file10&#45;&gt;file11 -->
<!-- file11&#45;&gt;program04 -->
<!-- file11&#45;&gt;file12 -->
<!-- file12&#45;&gt;program05 -->
</g>
</svg>
