<?xml version="1.0" encoding="UTF-8" standalone="no"?>
<!DOCTYPE svg PUBLIC "-//W3C//DTD SVG 1.1//EN"
 "http://www.w3.org/Graphics/SVG/1.1/DTD/svg11.dtd">
<!-- Generated by graphviz version 8.0.5 (20230508.1809)
 -->
<!-- Title: physical_directory_structure Pages: 1 -->
<svg width="584pt" height="572pt"
 viewBox="0.00 0.00 584.00 571.50" xmlns="http://www.w3.org/2000/svg" xmlns:xlink="http://www.w3.org/1999/xlink">
<g id="graph0" class="graph" transform="scale(1 1) rotate(0) translate(4 567.5)">
<title>physical_directory_structure</title>
<polygon fill="white" stroke="none" points="-4,4 -4,-567.5 580,-567.5 580,4 -4,4"/>
<g id="clust1" class="cluster">
<title>cluster_all</title>
<path fill="none" stroke="black" d="M20,-8C20,-8 556,-8 556,-8 562,-8 568,-14 568,-20 568,-20 568,-543.5 568,-543.5 568,-549.5 562,-555.5 556,-555.5 556,-555.5 20,-555.5 20,-555.5 14,-555.5 8,-549.5 8,-543.5 8,-543.5 8,-20 8,-20 8,-14 14,-8 20,-8"/>
<text text-anchor="middle" x="288" y="-538.2" font-family="monospace" font-size="14.00">Build environment using &quot;autotools&quot; ( step.4 )</text>
</g>
<g id="clust2" class="cluster">
<title>cluster_program</title>
<polygon fill="none" stroke="black" points="354,-16 354,-522.25 560,-522.25 560,-16 354,-16"/>
<text text-anchor="middle" x="457" y="-506.85" font-family="monospace" font-size="12.00">Program</text>
</g>
<g id="clust4" class="cluster">
<title>cluster_file</title>
<polygon fill="none" stroke="black" points="16,-16 16,-522.25 346,-522.25 346,-16 16,-16"/>
<text text-anchor="middle" x="181" y="-506.85" font-family="monospace" font-size="12.00">Files</text>
</g>
<!-- program01 -->
<g id="node1" class="node">
<title>program01</title>
<polygon fill="none" stroke="black" points="552,-492 362,-492 362,-456 552,-456 552,-492"/>
<text text-anchor="middle" x="457" y="-477.25" font-family="monospace" font-size="10.00">( Step.pre&#45;1 )</text>
<text text-anchor="middle" x="457" y="-464.5" font-family="monospace" font-size="10.00">./tools/create_graph.sh &#160;&#160;&#160;&#160;&#160;</text>
</g>
<!-- program02 -->
<g id="node2" class="node">
<title>program02</title>
<polygon fill="none" stroke="black" points="552,-420 362,-420 362,-384 552,-384 552,-420"/>
<text text-anchor="middle" x="457" y="-405.25" font-family="monospace" font-size="10.00">( Step.pre&#45;2 )</text>
<text text-anchor="middle" x="457" y="-392.5" font-family="monospace" font-size="10.00">./tools/gen_autotools_acam.pl</text>
</g>
<!-- program01&#45;&gt;program02 -->
<!-- program99 -->
<!-- program02&#45;&gt;program99 -->
<!-- program03 -->
<g id="node4" class="node">
<title>program03</title>
<polygon fill="none" stroke="black" points="552,-276 362,-276 362,-240 552,-240 552,-276"/>
<text text-anchor="middle" x="457" y="-261.25" font-family="monospace" font-size="10.00">( Step.1 )</text>
<text text-anchor="middle" x="457" y="-248.5" font-family="monospace" font-size="10.00">aclocal &#160;&#160;&#160;&#160;&#160;&#160;&#160;&#160;&#160;&#160;&#160;&#160;&#160;&#160;&#160;&#160;&#160;&#160;&#160;&#160;&#160;</text>
</g>
<!-- program99&#45;&gt;program03 -->
<!-- program04 -->
<g id="node5" class="node">
<title>program04</title>
<polygon fill="none" stroke="black" points="552,-204 362,-204 362,-168 552,-168 552,-204"/>
<text text-anchor="middle" x="457" y="-189.25" font-family="monospace" font-size="10.00">( Step.2 )</text>
<text text-anchor="middle" x="457" y="-176.5" font-family="monospace" font-size="10.00">autoconf &#160;&#160;&#160;&#160;&#160;&#160;&#160;&#160;&#160;&#160;&#160;&#160;&#160;&#160;&#160;&#160;&#160;&#160;&#160;&#160;</text>
</g>
<!-- program03&#45;&gt;program04 -->
<!-- program05 -->
<g id="node6" class="node">
<title>program05</title>
<polygon fill="none" stroke="black" points="552,-132 362,-132 362,-96 552,-96 552,-132"/>
<text text-anchor="middle" x="457" y="-117.25" font-family="monospace" font-size="10.00">( Step.3 )</text>
<text text-anchor="middle" x="457" y="-104.5" font-family="monospace" font-size="10.00">automake &#45;&#45;add&#45;missing &#160;&#160;&#160;&#160;&#160;&#160;</text>
</g>
<!-- program04&#45;&gt;program05 -->
<!-- program06 -->
<g id="node7" class="node">
<title>program06</title>
<polygon fill="none" stroke="black" stroke-width="2" points="552,-60 362,-60 362,-24 552,-24 552,-60"/>
<text text-anchor="middle" x="457" y="-45.25" font-family="monospace" font-size="10.00">( Step.4 )</text>
<text text-anchor="middle" x="457" y="-32.5" font-family="monospace" font-size="10.00">./configure &#160;&#160;&#160;&#160;&#160;&#160;&#160;&#160;&#160;&#160;&#160;&#160;&#160;&#160;&#160;&#160;&#160;</text>
</g>
<!-- program05&#45;&gt;program06 -->
<!-- file06 -->
<g id="node13" class="node">
<title>file06</title>
<polygon fill="none" stroke="black" stroke-width="2" points="160,-132 102,-132 102,-96 166,-96 166,-126 160,-132"/>
<polyline fill="none" stroke="black" stroke-width="2" points="160,-132 160,-126"/>
<polyline fill="none" stroke="black" stroke-width="2" points="166,-126 160,-126"/>
<text text-anchor="middle" x="134" y="-110.88" font-family="monospace" font-size="10.00">Makefile</text>
</g>
<!-- program06&#45;&gt;file06 -->
<g id="edge20" class="edge">
<title>program06&#45;&gt;file06</title>
<path fill="none" stroke="black" d="M361.33,-58.8C298.87,-69.5 222.03,-83.47 177.29,-95.69"/>
<polygon fill="black" stroke="black" points="176.55,-92.54 167.91,-98.67 178.48,-99.27 176.55,-92.54"/>
</g>
<!-- file10 -->
<g id="node17" class="node">
<title>file10</title>
<polygon fill="none" stroke="black" stroke-width="2" points="284,-348 226,-348 226,-312 290,-312 290,-342 284,-348"/>
<polyline fill="none" stroke="black" stroke-width="2" points="284,-348 284,-342"/>
<polyline fill="none" stroke="black" stroke-width="2" points="290,-342 284,-342"/>
<text text-anchor="middle" x="258" y="-326.88" font-family="monospace" font-size="10.00">config.*</text>
</g>
<!-- program06&#45;&gt;file10 -->
<g id="edge23" class="edge">
<title>program06&#45;&gt;file10</title>
<path fill="none" stroke="black" d="M398.69,-60.98C381.47,-69.05 364.25,-80.38 353,-96 305.72,-161.64 366.81,-206.15 326,-276 319.45,-287.21 309.54,-296.9 299.29,-304.83"/>
<polygon fill="black" stroke="black" points="297.72,-302.36 291.67,-311.06 301.82,-308.04 297.72,-302.36"/>
</g>
<!-- file13 -->
<g id="node20" class="node">
<title>file13</title>
<polygon fill="none" stroke="black" stroke-width="2" points="278,-132 184,-132 184,-96 284,-96 284,-126 278,-132"/>
<polyline fill="none" stroke="black" stroke-width="2" points="278,-132 278,-126"/>
<polyline fill="none" stroke="black" stroke-width="2" points="284,-126 278,-126"/>
<text text-anchor="middle" x="234" y="-110.88" font-family="monospace" font-size="10.00">tests/Makefile</text>
</g>
<!-- program06&#45;&gt;file13 -->
<g id="edge22" class="edge">
<title>program06&#45;&gt;file13</title>
<path fill="none" stroke="black" d="M399.66,-61C367.66,-71.04 327.8,-83.56 295.19,-93.79"/>
<polygon fill="black" stroke="black" points="294.37,-90.69 285.88,-97.03 296.47,-97.37 294.37,-90.69"/>
</g>
<!-- file01 -->
<g id="node8" class="node">
<title>file01</title>
<polygon fill="none" stroke="black" points="112,-492 42,-492 42,-456 118,-456 118,-486 112,-492"/>
<polyline fill="none" stroke="black" points="112,-492 112,-486"/>
<polyline fill="none" stroke="black" points="118,-486 112,-486"/>
<text text-anchor="middle" x="80" y="-470.88" font-family="monospace" font-size="10.00">docs/*.dot</text>
</g>
<!-- file02 -->
<g id="node9" class="node">
<title>file02</title>
<polygon fill="none" stroke="black" points="94,-420 24,-420 24,-384 100,-384 100,-414 94,-420"/>
<polyline fill="none" stroke="black" points="94,-420 94,-414"/>
<polyline fill="none" stroke="black" points="100,-414 94,-414"/>
<text text-anchor="middle" x="62" y="-398.88" font-family="monospace" font-size="10.00">aclocal.m4</text>
</g>
<!-- file01&#45;&gt;file02 -->
<!-- file08 -->
<g id="node15" class="node">
<title>file08</title>
<polygon fill="none" stroke="black" points="242,-492 172,-492 172,-456 248,-456 248,-486 242,-492"/>
<polyline fill="none" stroke="black" points="242,-492 242,-486"/>
<polyline fill="none" stroke="black" points="248,-486 242,-486"/>
<text text-anchor="middle" x="210" y="-470.88" font-family="monospace" font-size="10.00">docs/*.svg</text>
</g>
<!-- file01&#45;&gt;file08 -->
<!-- file03 -->
<g id="node10" class="node">
<title>file03</title>
<polygon fill="none" stroke="black" points="123,-348 41,-348 41,-312 129,-312 129,-342 123,-348"/>
<polyline fill="none" stroke="black" points="123,-348 123,-342"/>
<polyline fill="none" stroke="black" points="129,-342 123,-342"/>
<text text-anchor="middle" x="85" y="-326.88" font-family="monospace" font-size="10.00">configure.ac</text>
</g>
<!-- file02&#45;&gt;file03 -->
<!-- file04 -->
<g id="node11" class="node">
<title>file04</title>
<polygon fill="none" stroke="black" points="136,-276 60,-276 60,-240 142,-240 142,-270 136,-276"/>
<polyline fill="none" stroke="black" points="136,-276 136,-270"/>
<polyline fill="none" stroke="black" points="142,-270 136,-270"/>
<text text-anchor="middle" x="101" y="-254.88" font-family="monospace" font-size="10.00">Makefile.am</text>
</g>
<!-- file03&#45;&gt;file04 -->
<!-- file05 -->
<g id="node12" class="node">
<title>file05</title>
<polygon fill="none" stroke="black" stroke-width="2" points="169,-204 93,-204 93,-168 175,-168 175,-198 169,-204"/>
<polyline fill="none" stroke="black" stroke-width="2" points="169,-204 169,-198"/>
<polyline fill="none" stroke="black" stroke-width="2" points="175,-198 169,-198"/>
<text text-anchor="middle" x="134" y="-182.88" font-family="monospace" font-size="10.00">Makefile.in</text>
</g>
<!-- file04&#45;&gt;file05 -->
<!-- file05&#45;&gt;program06 -->
<g id="edge19" class="edge">
<title>file05&#45;&gt;program06</title>
<path fill="none" stroke="black" d="M175.86,-171.99C221.45,-157.69 288.52,-136.16 293,-132 305.7,-120.2 295.42,-107.93 308,-96 322.2,-82.53 340.05,-72.45 358.42,-64.92"/>
<polygon fill="black" stroke="black" points="359.57,-67.84 367.65,-60.99 357.06,-61.31 359.57,-67.84"/>
</g>
<!-- file05&#45;&gt;file06 -->
<!-- file07 -->
<g id="node14" class="node">
<title>file07</title>
<polygon fill="none" stroke="black" points="184,-60 78,-60 78,-24 190,-24 190,-54 184,-60"/>
<polyline fill="none" stroke="black" points="184,-60 184,-54"/>
<polyline fill="none" stroke="black" points="190,-54 184,-54"/>
<text text-anchor="middle" x="134" y="-38.88" font-family="monospace" font-size="10.00">autom4te.cache/*</text>
</g>
<!-- file06&#45;&gt;file07 -->
<!-- file09 -->
<g id="node16" class="node">
<title>file09</title>
<polygon fill="none" stroke="black" points="332,-420 118,-420 118,-384 338,-384 338,-414 332,-420"/>
<polyline fill="none" stroke="black" points="332,-420 332,-414"/>
<polyline fill="none" stroke="black" points="338,-414 332,-414"/>
<text text-anchor="middle" x="228" y="-398.88" font-family="monospace" font-size="10.00">tools/GenAutotoolsAcAm_UserFile.pm</text>
</g>
<!-- file08&#45;&gt;file09 -->
<!-- file09&#45;&gt;file10 -->
<!-- file11 -->
<g id="node18" class="node">
<title>file11</title>
<polygon fill="none" stroke="black" points="311,-276 199,-276 199,-240 317,-240 317,-270 311,-276"/>
<polyline fill="none" stroke="black" points="311,-276 311,-270"/>
<polyline fill="none" stroke="black" points="317,-270 311,-270"/>
<text text-anchor="middle" x="258" y="-254.88" font-family="monospace" font-size="10.00">tests/Makefile.am</text>
</g>
<!-- file10&#45;&gt;file11 -->
<!-- file12 -->
<g id="node19" class="node">
<title>file12</title>
<polygon fill="none" stroke="black" stroke-width="2" points="311,-204 199,-204 199,-168 317,-168 317,-198 311,-204"/>
<polyline fill="none" stroke="black" stroke-width="2" points="311,-204 311,-198"/>
<polyline fill="none" stroke="black" stroke-width="2" points="317,-198 311,-198"/>
<text text-anchor="middle" x="258" y="-182.88" font-family="monospace" font-size="10.00">tests/Makefile.in</text>
</g>
<!-- file11&#45;&gt;file12 -->
<!-- file12&#45;&gt;program06 -->
<g id="edge21" class="edge">
<title>file12&#45;&gt;program06</title>
<path fill="none" stroke="black" d="M275.4,-167.1C285.15,-156.95 297.42,-143.92 308,-132 321.82,-116.42 321.39,-108.56 338,-96 354.51,-83.51 374.43,-73.18 393.21,-65.05"/>
<polygon fill="black" stroke="black" points="394.32,-67.97 402.2,-60.89 391.62,-61.51 394.32,-67.97"/>
</g>
<!-- file12&#45;&gt;file13 -->
</g>
</svg>
