<?xml version="1.0" encoding="UTF-8" standalone="no"?>
<!DOCTYPE svg PUBLIC "-//W3C//DTD SVG 1.1//EN"
 "http://www.w3.org/Graphics/SVG/1.1/DTD/svg11.dtd">
<!-- Generated by graphviz version 8.0.5 (20230508.1809)
 -->
<!-- Title: physical_directory_structure Pages: 1 -->
<svg width="596pt" height="428pt"
 viewBox="0.00 0.00 596.00 427.50" xmlns="http://www.w3.org/2000/svg" xmlns:xlink="http://www.w3.org/1999/xlink">
<g id="graph0" class="graph" transform="scale(1 1) rotate(0) translate(4 423.5)">
<title>physical_directory_structure</title>
<polygon fill="white" stroke="none" points="-4,4 -4,-423.5 592,-423.5 592,4 -4,4"/>
<g id="clust1" class="cluster">
<title>cluster_all</title>
<path fill="none" stroke="black" d="M20,-8C20,-8 568,-8 568,-8 574,-8 580,-14 580,-20 580,-20 580,-399.5 580,-399.5 580,-405.5 574,-411.5 568,-411.5 568,-411.5 20,-411.5 20,-411.5 14,-411.5 8,-405.5 8,-399.5 8,-399.5 8,-20 8,-20 8,-14 14,-8 20,-8"/>
<text text-anchor="middle" x="294" y="-394.2" font-family="monospace" font-size="14.00">Build environment using &quot;autotools&quot; ( Step.1 )</text>
</g>
<g id="clust2" class="cluster">
<title>cluster_program</title>
<polygon fill="none" stroke="black" points="366,-16 366,-378.25 572,-378.25 572,-16 366,-16"/>
<text text-anchor="middle" x="469" y="-362.85" font-family="monospace" font-size="12.00">Program</text>
</g>
<g id="clust4" class="cluster">
<title>cluster_file</title>
<polygon fill="none" stroke="black" points="16,-16 16,-378.25 344,-378.25 344,-16 16,-16"/>
<text text-anchor="middle" x="180" y="-362.85" font-family="monospace" font-size="12.00">Files</text>
</g>
<!-- program01 -->
<g id="node1" class="node">
<title>program01</title>
<polygon fill="none" stroke="black" points="564,-348 374,-348 374,-312 564,-312 564,-348"/>
<text text-anchor="middle" x="469" y="-333.25" font-family="monospace" font-size="10.00">( Step.pre&#45;1 )</text>
<text text-anchor="middle" x="469" y="-320.5" font-family="monospace" font-size="10.00">./tools/gen_autotools_acam.pl</text>
</g>
<!-- program02 -->
<g id="node2" class="node">
<title>program02</title>
<polygon fill="none" stroke="black" stroke-width="2" points="564,-276 374,-276 374,-240 564,-240 564,-276"/>
<text text-anchor="middle" x="469" y="-261.25" font-family="monospace" font-size="10.00">( Step.1 )</text>
<text text-anchor="middle" x="469" y="-248.5" font-family="monospace" font-size="10.00">aclocal &#160;&#160;&#160;&#160;&#160;&#160;&#160;&#160;&#160;&#160;&#160;&#160;&#160;&#160;&#160;&#160;&#160;&#160;&#160;&#160;&#160;</text>
</g>
<!-- program01&#45;&gt;program02 -->
<!-- program03 -->
<g id="node3" class="node">
<title>program03</title>
<polygon fill="none" stroke="black" points="564,-204 374,-204 374,-168 564,-168 564,-204"/>
<text text-anchor="middle" x="469" y="-189.25" font-family="monospace" font-size="10.00">( Step.2 )</text>
<text text-anchor="middle" x="469" y="-176.5" font-family="monospace" font-size="10.00">autoconf &#160;&#160;&#160;&#160;&#160;&#160;&#160;&#160;&#160;&#160;&#160;&#160;&#160;&#160;&#160;&#160;&#160;&#160;&#160;&#160;</text>
</g>
<!-- program02&#45;&gt;program03 -->
<!-- file03 -->
<g id="node9" class="node">
<title>file03</title>
<polygon fill="none" stroke="black" stroke-width="2" points="330,-132 260,-132 260,-96 336,-96 336,-126 330,-132"/>
<polyline fill="none" stroke="black" stroke-width="2" points="330,-132 330,-126"/>
<polyline fill="none" stroke="black" stroke-width="2" points="336,-126 330,-126"/>
<text text-anchor="middle" x="298" y="-110.88" font-family="monospace" font-size="10.00">aclocal.m4</text>
</g>
<!-- program02&#45;&gt;file03 -->
<g id="edge31" class="edge">
<title>program02&#45;&gt;file03</title>
<path fill="none" stroke="black" d="M419.65,-239.1C400.95,-230.57 380.46,-218.92 365,-204 351.83,-191.29 355.58,-182.94 345,-168 338.39,-158.67 330.38,-149.12 322.86,-140.75"/>
<polygon fill="black" stroke="black" points="325.91,-138.81 316.57,-133.82 320.76,-143.55 325.91,-138.81"/>
</g>
<!-- file09 -->
<g id="node15" class="node">
<title>file09</title>
<polygon fill="none" stroke="black" stroke-width="2" points="236,-276 130,-276 130,-240 242,-240 242,-270 236,-276"/>
<polyline fill="none" stroke="black" stroke-width="2" points="236,-276 236,-270"/>
<polyline fill="none" stroke="black" stroke-width="2" points="242,-270 236,-270"/>
<text text-anchor="middle" x="186" y="-254.88" font-family="monospace" font-size="10.00">autom4te.cache/*</text>
</g>
<!-- program02&#45;&gt;file09 -->
<g id="edge33" class="edge">
<title>program02&#45;&gt;file09</title>
<path fill="none" stroke="black" d="M421.39,-276.93C378.83,-291.32 314.9,-306.64 260,-294 248.71,-291.4 237.15,-286.83 226.62,-281.81"/>
<polygon fill="black" stroke="black" points="228.39,-278.28 217.88,-276.9 225.24,-284.53 228.39,-278.28"/>
</g>
<!-- program04 -->
<g id="node4" class="node">
<title>program04</title>
<polygon fill="none" stroke="black" points="564,-132 374,-132 374,-96 564,-96 564,-132"/>
<text text-anchor="middle" x="469" y="-117.25" font-family="monospace" font-size="10.00">( Step.3 )</text>
<text text-anchor="middle" x="469" y="-104.5" font-family="monospace" font-size="10.00">automake &#45;&#45;add&#45;missing &#45;&#45;copy</text>
</g>
<!-- program03&#45;&gt;program04 -->
<!-- program05 -->
<g id="node5" class="node">
<title>program05</title>
<polygon fill="none" stroke="black" stroke-dasharray="1,5" points="564,-60 374,-60 374,-24 564,-24 564,-60"/>
<text text-anchor="middle" x="469" y="-45.25" font-family="monospace" font-size="10.00">( Step.4 )</text>
<text text-anchor="middle" x="469" y="-32.5" font-family="monospace" font-size="10.00">./configure &#160;&#160;&#160;&#160;&#160;&#160;&#160;&#160;&#160;&#160;&#160;&#160;&#160;&#160;&#160;&#160;&#160;</text>
</g>
<!-- program04&#45;&gt;program05 -->
<!-- file13 -->
<g id="node6" class="node">
<title>file13</title>
<polygon fill="none" stroke="black" points="310,-348 96,-348 96,-312 316,-312 316,-342 310,-348"/>
<polyline fill="none" stroke="black" points="310,-348 310,-342"/>
<polyline fill="none" stroke="black" points="316,-342 310,-342"/>
<text text-anchor="middle" x="206" y="-326.88" font-family="monospace" font-size="10.00">tools/GenAutotoolsAcAm_UserFile.pm</text>
</g>
<!-- file13&#45;&gt;program01 -->
<!-- file01 -->
<g id="node7" class="node">
<title>file01</title>
<polygon fill="none" stroke="black" points="330,-276 260,-276 260,-240 336,-240 336,-270 330,-276"/>
<polyline fill="none" stroke="black" points="330,-276 330,-270"/>
<polyline fill="none" stroke="black" points="336,-270 330,-270"/>
<text text-anchor="middle" x="298" y="-254.88" font-family="monospace" font-size="10.00">docs/*.dot</text>
</g>
<!-- file13&#45;&gt;file01 -->
<!-- file05 -->
<g id="node11" class="node">
<title>file05</title>
<polygon fill="none" stroke="black" stroke-width="2" points="106,-276 24,-276 24,-240 112,-240 112,-270 106,-276"/>
<polyline fill="none" stroke="black" stroke-width="2" points="106,-276 106,-270"/>
<polyline fill="none" stroke="black" stroke-width="2" points="112,-270 106,-270"/>
<text text-anchor="middle" x="68" y="-254.88" font-family="monospace" font-size="10.00">configure.ac</text>
</g>
<!-- file13&#45;&gt;file05 -->
<!-- file13&#45;&gt;file09 -->
<!-- file02 -->
<g id="node8" class="node">
<title>file02</title>
<polygon fill="none" stroke="black" points="330,-204 260,-204 260,-168 336,-168 336,-198 330,-204"/>
<polyline fill="none" stroke="black" points="330,-204 330,-198"/>
<polyline fill="none" stroke="black" points="336,-198 330,-198"/>
<text text-anchor="middle" x="298" y="-182.88" font-family="monospace" font-size="10.00">docs/*.svg</text>
</g>
<!-- file01&#45;&gt;file02 -->
<!-- file01&#45;&gt;file05 -->
<!-- file02&#45;&gt;file03 -->
<!-- file06 -->
<g id="node12" class="node">
<title>file06</title>
<polygon fill="none" stroke="black" points="100,-204 24,-204 24,-168 106,-168 106,-198 100,-204"/>
<polyline fill="none" stroke="black" points="100,-204 100,-198"/>
<polyline fill="none" stroke="black" points="106,-198 100,-198"/>
<text text-anchor="middle" x="65" y="-182.88" font-family="monospace" font-size="10.00">Makefile.am</text>
</g>
<!-- file02&#45;&gt;file06 -->
<!-- file04 -->
<g id="node10" class="node">
<title>file04</title>
<polygon fill="none" stroke="black" stroke-dasharray="1,5" points="320,-60 262,-60 262,-24 326,-24 326,-54 320,-60"/>
<polyline fill="none" stroke="black" stroke-dasharray="1,5" points="320,-60 320,-54"/>
<polyline fill="none" stroke="black" stroke-dasharray="1,5" points="326,-54 320,-54"/>
<text text-anchor="middle" x="294" y="-38.88" font-family="monospace" font-size="10.00">config.*</text>
</g>
<!-- file03&#45;&gt;file04 -->
<!-- file07 -->
<g id="node13" class="node">
<title>file07</title>
<polygon fill="none" stroke="black" stroke-dasharray="1,5" points="100,-132 24,-132 24,-96 106,-96 106,-126 100,-132"/>
<polyline fill="none" stroke="black" stroke-dasharray="1,5" points="100,-132 100,-126"/>
<polyline fill="none" stroke="black" stroke-dasharray="1,5" points="106,-126 100,-126"/>
<text text-anchor="middle" x="65" y="-110.88" font-family="monospace" font-size="10.00">Makefile.in</text>
</g>
<!-- file03&#45;&gt;file07 -->
<!-- file08 -->
<g id="node14" class="node">
<title>file08</title>
<polygon fill="none" stroke="black" stroke-dasharray="1,5" points="113,-60 55,-60 55,-24 119,-24 119,-54 113,-60"/>
<polyline fill="none" stroke="black" stroke-dasharray="1,5" points="113,-60 113,-54"/>
<polyline fill="none" stroke="black" stroke-dasharray="1,5" points="119,-54 113,-54"/>
<text text-anchor="middle" x="87" y="-38.88" font-family="monospace" font-size="10.00">Makefile</text>
</g>
<!-- file04&#45;&gt;file08 -->
<!-- file05&#45;&gt;program02 -->
<g id="edge30" class="edge">
<title>file05&#45;&gt;program02</title>
<path fill="none" stroke="black" d="M93.49,-276.87C104.2,-283.68 117.14,-290.54 130,-294 219.69,-318.15 246.96,-306.51 339,-294 360.14,-291.13 382.71,-285.74 403,-279.99"/>
<polygon fill="black" stroke="black" points="403.76,-283.12 412.38,-276.96 401.8,-276.4 403.76,-283.12"/>
</g>
<!-- file05&#45;&gt;file06 -->
<!-- file05&#45;&gt;file09 -->
<!-- file06&#45;&gt;file07 -->
<!-- file10 -->
<g id="node16" class="node">
<title>file10</title>
<polygon fill="none" stroke="black" points="236,-204 124,-204 124,-168 242,-168 242,-198 236,-204"/>
<polyline fill="none" stroke="black" points="236,-204 236,-198"/>
<polyline fill="none" stroke="black" points="242,-198 236,-198"/>
<text text-anchor="middle" x="183" y="-182.88" font-family="monospace" font-size="10.00">tests/Makefile.am</text>
</g>
<!-- file06&#45;&gt;file10 -->
<!-- file07&#45;&gt;file08 -->
<!-- file11 -->
<g id="node17" class="node">
<title>file11</title>
<polygon fill="none" stroke="black" stroke-dasharray="1,5" points="236,-132 124,-132 124,-96 242,-96 242,-126 236,-132"/>
<polyline fill="none" stroke="black" stroke-dasharray="1,5" points="236,-132 236,-126"/>
<polyline fill="none" stroke="black" stroke-dasharray="1,5" points="242,-126 236,-126"/>
<text text-anchor="middle" x="183" y="-110.88" font-family="monospace" font-size="10.00">tests/Makefile.in</text>
</g>
<!-- file07&#45;&gt;file11 -->
<!-- file12 -->
<g id="node18" class="node">
<title>file12</title>
<polygon fill="none" stroke="black" stroke-dasharray="1,5" points="231,-60 137,-60 137,-24 237,-24 237,-54 231,-60"/>
<polyline fill="none" stroke="black" stroke-dasharray="1,5" points="231,-60 231,-54"/>
<polyline fill="none" stroke="black" stroke-dasharray="1,5" points="237,-54 231,-54"/>
<text text-anchor="middle" x="187" y="-38.88" font-family="monospace" font-size="10.00">tests/Makefile</text>
</g>
<!-- file08&#45;&gt;file12 -->
<!-- file09&#45;&gt;program02 -->
<!-- file09&#45;&gt;program02 -->
<g id="edge32" class="edge">
<title>file09&#45;&gt;program02</title>
<path fill="none" stroke="black" d="M212.76,-276.92C226.97,-285.82 245.15,-295.45 263,-300 315.66,-313.43 376.74,-297.03 418.64,-280.96"/>
<polygon fill="black" stroke="black" points="419.86,-283.84 427.86,-276.9 417.28,-277.34 419.86,-283.84"/>
</g>
<!-- file09&#45;&gt;file10 -->
<!-- file10&#45;&gt;program03 -->
<!-- file10&#45;&gt;file11 -->
<!-- file11&#45;&gt;program04 -->
<!-- file11&#45;&gt;file12 -->
<!-- file12&#45;&gt;program05 -->
</g>
</svg>
