<?xml version="1.0" encoding="UTF-8" standalone="no"?>
<!DOCTYPE svg PUBLIC "-//W3C//DTD SVG 1.1//EN"
 "http://www.w3.org/Graphics/SVG/1.1/DTD/svg11.dtd">
<!-- Generated by graphviz version 8.0.5 (20230508.1809)
 -->
<!-- Title: physical_directory_structure Pages: 1 -->
<svg width="584pt" height="572pt"
 viewBox="0.00 0.00 584.00 571.50" xmlns="http://www.w3.org/2000/svg" xmlns:xlink="http://www.w3.org/1999/xlink">
<g id="graph0" class="graph" transform="scale(1 1) rotate(0) translate(4 567.5)">
<title>physical_directory_structure</title>
<polygon fill="white" stroke="none" points="-4,4 -4,-567.5 580,-567.5 580,4 -4,4"/>
<g id="clust1" class="cluster">
<title>cluster_all</title>
<path fill="none" stroke="black" d="M20,-8C20,-8 556,-8 556,-8 562,-8 568,-14 568,-20 568,-20 568,-543.5 568,-543.5 568,-549.5 562,-555.5 556,-555.5 556,-555.5 20,-555.5 20,-555.5 14,-555.5 8,-549.5 8,-543.5 8,-543.5 8,-20 8,-20 8,-14 14,-8 20,-8"/>
<text text-anchor="middle" x="288" y="-538.2" font-family="monospace" font-size="14.00">Build environment using &quot;autotools&quot; ( step.3 )</text>
</g>
<g id="clust2" class="cluster">
<title>cluster_program</title>
<polygon fill="none" stroke="black" points="354,-16 354,-522.25 560,-522.25 560,-16 354,-16"/>
<text text-anchor="middle" x="457" y="-506.85" font-family="monospace" font-size="12.00">Program</text>
</g>
<g id="clust4" class="cluster">
<title>cluster_file</title>
<polygon fill="none" stroke="black" points="16,-16 16,-522.25 346,-522.25 346,-16 16,-16"/>
<text text-anchor="middle" x="181" y="-506.85" font-family="monospace" font-size="12.00">Files</text>
</g>
<!-- program01 -->
<g id="node1" class="node">
<title>program01</title>
<polygon fill="none" stroke="black" points="552,-492 362,-492 362,-456 552,-456 552,-492"/>
<text text-anchor="middle" x="457" y="-477.25" font-family="monospace" font-size="10.00">( Step.pre&#45;1 )</text>
<text text-anchor="middle" x="457" y="-464.5" font-family="monospace" font-size="10.00">./tools/create_graph.sh &#160;&#160;&#160;&#160;&#160;</text>
</g>
<!-- program02 -->
<g id="node2" class="node">
<title>program02</title>
<polygon fill="none" stroke="black" points="552,-420 362,-420 362,-384 552,-384 552,-420"/>
<text text-anchor="middle" x="457" y="-405.25" font-family="monospace" font-size="10.00">( Step.pre&#45;2 )</text>
<text text-anchor="middle" x="457" y="-392.5" font-family="monospace" font-size="10.00">./tools/gen_autotools_acam.pl</text>
</g>
<!-- program01&#45;&gt;program02 -->
<!-- program99 -->
<!-- program02&#45;&gt;program99 -->
<!-- program03 -->
<g id="node4" class="node">
<title>program03</title>
<polygon fill="none" stroke="black" points="552,-276 362,-276 362,-240 552,-240 552,-276"/>
<text text-anchor="middle" x="457" y="-261.25" font-family="monospace" font-size="10.00">( Step.1 )</text>
<text text-anchor="middle" x="457" y="-248.5" font-family="monospace" font-size="10.00">aclocal &#160;&#160;&#160;&#160;&#160;&#160;&#160;&#160;&#160;&#160;&#160;&#160;&#160;&#160;&#160;&#160;&#160;&#160;&#160;&#160;&#160;</text>
</g>
<!-- program99&#45;&gt;program03 -->
<!-- program04 -->
<g id="node5" class="node">
<title>program04</title>
<polygon fill="none" stroke="black" points="552,-204 362,-204 362,-168 552,-168 552,-204"/>
<text text-anchor="middle" x="457" y="-189.25" font-family="monospace" font-size="10.00">( Step.2 )</text>
<text text-anchor="middle" x="457" y="-176.5" font-family="monospace" font-size="10.00">autoconf &#160;&#160;&#160;&#160;&#160;&#160;&#160;&#160;&#160;&#160;&#160;&#160;&#160;&#160;&#160;&#160;&#160;&#160;&#160;&#160;</text>
</g>
<!-- program03&#45;&gt;program04 -->
<!-- program05 -->
<g id="node6" class="node">
<title>program05</title>
<polygon fill="none" stroke="black" stroke-width="2" points="552,-132 362,-132 362,-96 552,-96 552,-132"/>
<text text-anchor="middle" x="457" y="-117.25" font-family="monospace" font-size="10.00">( Step.3 )</text>
<text text-anchor="middle" x="457" y="-104.5" font-family="monospace" font-size="10.00">automake &#45;&#45;add&#45;missing &#160;&#160;&#160;&#160;&#160;&#160;</text>
</g>
<!-- program04&#45;&gt;program05 -->
<!-- program06 -->
<g id="node7" class="node">
<title>program06</title>
<polygon fill="none" stroke="black" points="552,-60 362,-60 362,-24 552,-24 552,-60"/>
<text text-anchor="middle" x="457" y="-45.25" font-family="monospace" font-size="10.00">( Step.4 )</text>
<text text-anchor="middle" x="457" y="-32.5" font-family="monospace" font-size="10.00">./configure &#160;&#160;&#160;&#160;&#160;&#160;&#160;&#160;&#160;&#160;&#160;&#160;&#160;&#160;&#160;&#160;&#160;</text>
</g>
<!-- program05&#45;&gt;program06 -->
<!-- file05 -->
<g id="node12" class="node">
<title>file05</title>
<polygon fill="none" stroke="black" stroke-width="2" points="258,-204 182,-204 182,-168 264,-168 264,-198 258,-204"/>
<polyline fill="none" stroke="black" stroke-width="2" points="258,-204 258,-198"/>
<polyline fill="none" stroke="black" stroke-width="2" points="264,-198 258,-198"/>
<text text-anchor="middle" x="223" y="-182.88" font-family="monospace" font-size="10.00">Makefile.in</text>
</g>
<!-- program05&#45;&gt;file05 -->
<g id="edge22" class="edge">
<title>program05&#45;&gt;file05</title>
<path fill="none" stroke="black" d="M395.64,-132.97C361.06,-143.15 317.09,-156.17 278,-168 277.06,-168.28 276.11,-168.57 275.15,-168.86"/>
<polygon fill="black" stroke="black" points="274.27,-165.78 265.73,-172.05 276.31,-172.47 274.27,-165.78"/>
</g>
<!-- file07 -->
<g id="node14" class="node">
<title>file07</title>
<polygon fill="none" stroke="black" stroke-width="2" points="317,-60 211,-60 211,-24 323,-24 323,-54 317,-60"/>
<polyline fill="none" stroke="black" stroke-width="2" points="317,-60 317,-54"/>
<polyline fill="none" stroke="black" stroke-width="2" points="323,-54 317,-54"/>
<text text-anchor="middle" x="267" y="-38.88" font-family="monospace" font-size="10.00">autom4te.cache/*</text>
</g>
<!-- program05&#45;&gt;file07 -->
<g id="edge25" class="edge">
<title>program05&#45;&gt;file07</title>
<path fill="none" stroke="black" d="M414.53,-95.15C390.2,-85.85 359.23,-74.4 331.92,-64.6"/>
<polygon fill="black" stroke="black" points="333.25,-61 322.66,-60.93 330.9,-67.59 333.25,-61"/>
</g>
<!-- file12 -->
<g id="node19" class="node">
<title>file12</title>
<polygon fill="none" stroke="black" stroke-width="2" points="158,-204 46,-204 46,-168 164,-168 164,-198 158,-204"/>
<polyline fill="none" stroke="black" stroke-width="2" points="158,-204 158,-198"/>
<polyline fill="none" stroke="black" stroke-width="2" points="164,-198 158,-198"/>
<text text-anchor="middle" x="105" y="-182.88" font-family="monospace" font-size="10.00">tests/Makefile.in</text>
</g>
<!-- program05&#45;&gt;file12 -->
<g id="edge24" class="edge">
<title>program05&#45;&gt;file12</title>
<path fill="none" stroke="black" d="M361.07,-131.41C308.59,-140.75 242.21,-153.12 175.01,-167.62"/>
<polygon fill="black" stroke="black" points="174.69,-164.33 165.66,-169.87 176.17,-171.17 174.69,-164.33"/>
</g>
<!-- file01 -->
<g id="node8" class="node">
<title>file01</title>
<polygon fill="none" stroke="black" points="314,-492 244,-492 244,-456 320,-456 320,-486 314,-492"/>
<polyline fill="none" stroke="black" points="314,-492 314,-486"/>
<polyline fill="none" stroke="black" points="320,-486 314,-486"/>
<text text-anchor="middle" x="282" y="-470.88" font-family="monospace" font-size="10.00">docs/*.dot</text>
</g>
<!-- file02 -->
<g id="node9" class="node">
<title>file02</title>
<polygon fill="none" stroke="black" stroke-width="2" points="332,-420 262,-420 262,-384 338,-384 338,-414 332,-420"/>
<polyline fill="none" stroke="black" stroke-width="2" points="332,-420 332,-414"/>
<polyline fill="none" stroke="black" stroke-width="2" points="338,-414 332,-414"/>
<text text-anchor="middle" x="300" y="-398.88" font-family="monospace" font-size="10.00">aclocal.m4</text>
</g>
<!-- file01&#45;&gt;file02 -->
<!-- file08 -->
<g id="node15" class="node">
<title>file08</title>
<polygon fill="none" stroke="black" points="184,-492 114,-492 114,-456 190,-456 190,-486 184,-492"/>
<polyline fill="none" stroke="black" points="184,-492 184,-486"/>
<polyline fill="none" stroke="black" points="190,-486 184,-486"/>
<text text-anchor="middle" x="152" y="-470.88" font-family="monospace" font-size="10.00">docs/*.svg</text>
</g>
<!-- file01&#45;&gt;file08 -->
<!-- file02&#45;&gt;program05 -->
<g id="edge19" class="edge">
<title>file02&#45;&gt;program05</title>
<path fill="none" stroke="black" d="M313.76,-383.39C320.72,-373.53 328.6,-360.7 333,-348 359.37,-271.95 307.21,-234.2 353,-168 361.8,-155.27 374.61,-145.42 388.25,-137.86"/>
<polygon fill="black" stroke="black" points="389.47,-140.66 396.79,-132.99 386.29,-134.42 389.47,-140.66"/>
</g>
<!-- file03 -->
<g id="node10" class="node">
<title>file03</title>
<polygon fill="none" stroke="black" stroke-width="2" points="318,-348 236,-348 236,-312 324,-312 324,-342 318,-348"/>
<polyline fill="none" stroke="black" stroke-width="2" points="318,-348 318,-342"/>
<polyline fill="none" stroke="black" stroke-width="2" points="324,-342 318,-342"/>
<text text-anchor="middle" x="280" y="-326.88" font-family="monospace" font-size="10.00">configure.ac</text>
</g>
<!-- file02&#45;&gt;file03 -->
<!-- file03&#45;&gt;program05 -->
<g id="edge20" class="edge">
<title>file03&#45;&gt;program05</title>
<path fill="none" stroke="black" d="M293.18,-311.16C299.96,-301.24 307.86,-288.42 313,-276 331.83,-230.47 306.65,-206.01 338,-168 348.84,-154.85 363.62,-144.85 379.06,-137.29"/>
<polygon fill="black" stroke="black" points="380.09,-140.21 387.74,-132.88 377.19,-133.84 380.09,-140.21"/>
</g>
<!-- file04 -->
<g id="node11" class="node">
<title>file04</title>
<polygon fill="none" stroke="black" stroke-width="2" points="298,-276 222,-276 222,-240 304,-240 304,-270 298,-276"/>
<polyline fill="none" stroke="black" stroke-width="2" points="298,-276 298,-270"/>
<polyline fill="none" stroke="black" stroke-width="2" points="304,-270 298,-270"/>
<text text-anchor="middle" x="263" y="-254.88" font-family="monospace" font-size="10.00">Makefile.am</text>
</g>
<!-- file03&#45;&gt;file04 -->
<!-- file04&#45;&gt;program05 -->
<g id="edge21" class="edge">
<title>file04&#45;&gt;program05</title>
<path fill="none" stroke="black" d="M272.15,-239.34C284.3,-216.43 305.68,-178.18 318,-168 334.1,-154.69 353.91,-144.5 373.47,-136.78"/>
<polygon fill="black" stroke="black" points="374.52,-139.75 382.66,-132.97 372.07,-133.2 374.52,-139.75"/>
</g>
<!-- file04&#45;&gt;file05 -->
<!-- file06 -->
<g id="node13" class="node">
<title>file06</title>
<polygon fill="none" stroke="black" stroke-dasharray="1,5" points="264,-132 206,-132 206,-96 270,-96 270,-126 264,-132"/>
<polyline fill="none" stroke="black" stroke-dasharray="1,5" points="264,-132 264,-126"/>
<polyline fill="none" stroke="black" stroke-dasharray="1,5" points="270,-126 264,-126"/>
<text text-anchor="middle" x="238" y="-110.88" font-family="monospace" font-size="10.00">Makefile</text>
</g>
<!-- file05&#45;&gt;file06 -->
<!-- file06&#45;&gt;file07 -->
<!-- file07&#45;&gt;program05 -->
<g id="edge26" class="edge">
<title>file07&#45;&gt;program05</title>
<path fill="none" stroke="black" d="M309.58,-60.89C333.9,-70.19 364.82,-81.62 392.09,-91.4"/>
<polygon fill="black" stroke="black" points="390.74,-95 401.34,-95.06 393.1,-88.4 390.74,-95"/>
</g>
<!-- file09 -->
<g id="node16" class="node">
<title>file09</title>
<polygon fill="none" stroke="black" points="238,-420 24,-420 24,-384 244,-384 244,-414 238,-420"/>
<polyline fill="none" stroke="black" points="238,-420 238,-414"/>
<polyline fill="none" stroke="black" points="244,-414 238,-414"/>
<text text-anchor="middle" x="134" y="-398.88" font-family="monospace" font-size="10.00">tools/GenAutotoolsAcAm_UserFile.pm</text>
</g>
<!-- file08&#45;&gt;file09 -->
<!-- file10 -->
<g id="node17" class="node">
<title>file10</title>
<polygon fill="none" stroke="black" stroke-dasharray="1,5" points="160,-348 102,-348 102,-312 166,-312 166,-342 160,-348"/>
<polyline fill="none" stroke="black" stroke-dasharray="1,5" points="160,-348 160,-342"/>
<polyline fill="none" stroke="black" stroke-dasharray="1,5" points="166,-342 160,-342"/>
<text text-anchor="middle" x="134" y="-326.88" font-family="monospace" font-size="10.00">config.*</text>
</g>
<!-- file09&#45;&gt;file10 -->
<!-- file11 -->
<g id="node18" class="node">
<title>file11</title>
<polygon fill="none" stroke="black" points="187,-276 75,-276 75,-240 193,-240 193,-270 187,-276"/>
<polyline fill="none" stroke="black" points="187,-276 187,-270"/>
<polyline fill="none" stroke="black" points="193,-270 187,-270"/>
<text text-anchor="middle" x="134" y="-254.88" font-family="monospace" font-size="10.00">tests/Makefile.am</text>
</g>
<!-- file10&#45;&gt;file11 -->
<!-- file11&#45;&gt;program05 -->
<g id="edge23" class="edge">
<title>file11&#45;&gt;program05</title>
<path fill="none" stroke="black" d="M193.25,-245.7C220.41,-237.92 251.31,-225.04 273,-204 285.44,-191.93 275.2,-179.69 288,-168 305.62,-151.91 328.1,-140.7 350.86,-132.9"/>
<polygon fill="black" stroke="black" points="351.86,-135.93 360.32,-129.55 349.73,-129.27 351.86,-135.93"/>
</g>
<!-- file11&#45;&gt;file12 -->
<!-- file13 -->
<g id="node20" class="node">
<title>file13</title>
<polygon fill="none" stroke="black" stroke-dasharray="1,5" points="149,-132 55,-132 55,-96 155,-96 155,-126 149,-132"/>
<polyline fill="none" stroke="black" stroke-dasharray="1,5" points="149,-132 149,-126"/>
<polyline fill="none" stroke="black" stroke-dasharray="1,5" points="155,-126 149,-126"/>
<text text-anchor="middle" x="105" y="-110.88" font-family="monospace" font-size="10.00">tests/Makefile</text>
</g>
<!-- file12&#45;&gt;file13 -->
</g>
</svg>
