<?xml version="1.0" encoding="UTF-8" standalone="no"?>
<!DOCTYPE svg PUBLIC "-//W3C//DTD SVG 1.1//EN"
 "http://www.w3.org/Graphics/SVG/1.1/DTD/svg11.dtd">
<!-- Generated by graphviz version 8.0.5 (20230508.1809)
 -->
<!-- Title: physical_directory_structure Pages: 1 -->
<svg width="584pt" height="572pt"
 viewBox="0.00 0.00 584.00 571.50" xmlns="http://www.w3.org/2000/svg" xmlns:xlink="http://www.w3.org/1999/xlink">
<g id="graph0" class="graph" transform="scale(1 1) rotate(0) translate(4 567.5)">
<title>physical_directory_structure</title>
<polygon fill="white" stroke="none" points="-4,4 -4,-567.5 580,-567.5 580,4 -4,4"/>
<g id="clust1" class="cluster">
<title>cluster_all</title>
<path fill="none" stroke="black" d="M20,-8C20,-8 556,-8 556,-8 562,-8 568,-14 568,-20 568,-20 568,-543.5 568,-543.5 568,-549.5 562,-555.5 556,-555.5 556,-555.5 20,-555.5 20,-555.5 14,-555.5 8,-549.5 8,-543.5 8,-543.5 8,-20 8,-20 8,-14 14,-8 20,-8"/>
<text text-anchor="middle" x="288" y="-538.2" font-family="monospace" font-size="14.00">Build environment using &quot;autotools&quot; ( step.pre&#45;2 )</text>
</g>
<g id="clust2" class="cluster">
<title>cluster_program</title>
<polygon fill="none" stroke="black" points="354,-16 354,-522.25 560,-522.25 560,-16 354,-16"/>
<text text-anchor="middle" x="457" y="-506.85" font-family="monospace" font-size="12.00">Program</text>
</g>
<g id="clust4" class="cluster">
<title>cluster_file</title>
<polygon fill="none" stroke="black" points="16,-16 16,-522.25 346,-522.25 346,-16 16,-16"/>
<text text-anchor="middle" x="181" y="-506.85" font-family="monospace" font-size="12.00">Files</text>
</g>
<!-- program01 -->
<g id="node1" class="node">
<title>program01</title>
<polygon fill="none" stroke="black" points="552,-492 362,-492 362,-456 552,-456 552,-492"/>
<text text-anchor="middle" x="457" y="-477.25" font-family="monospace" font-size="10.00">( Step.pre&#45;1 )</text>
<text text-anchor="middle" x="457" y="-464.5" font-family="monospace" font-size="10.00">./tools/create_graph.sh &#160;&#160;&#160;&#160;&#160;</text>
</g>
<!-- program02 -->
<g id="node2" class="node">
<title>program02</title>
<polygon fill="none" stroke="black" stroke-width="2" points="552,-420 362,-420 362,-384 552,-384 552,-420"/>
<text text-anchor="middle" x="457" y="-405.25" font-family="monospace" font-size="10.00">( Step.pre&#45;2 )</text>
<text text-anchor="middle" x="457" y="-392.5" font-family="monospace" font-size="10.00">./tools/gen_autotools_acam.pl</text>
</g>
<!-- program01&#45;&gt;program02 -->
<!-- program99 -->
<!-- program02&#45;&gt;program99 -->
<!-- file03 -->
<g id="node10" class="node">
<title>file03</title>
<polygon fill="none" stroke="black" stroke-width="2" points="332,-348 250,-348 250,-312 338,-312 338,-342 332,-348"/>
<polyline fill="none" stroke="black" stroke-width="2" points="332,-348 332,-342"/>
<polyline fill="none" stroke="black" stroke-width="2" points="338,-342 332,-342"/>
<text text-anchor="middle" x="294" y="-326.88" font-family="monospace" font-size="10.00">configure.ac</text>
</g>
<!-- program02&#45;&gt;file03 -->
<g id="edge20" class="edge">
<title>program02&#45;&gt;file03</title>
<path fill="none" stroke="black" d="M415.45,-383.15C394.26,-374.06 368.29,-362.9 345.81,-353.25"/>
<polygon fill="black" stroke="black" points="347.33,-349.66 336.76,-348.93 344.57,-356.1 347.33,-349.66"/>
</g>
<!-- file04 -->
<g id="node11" class="node">
<title>file04</title>
<polygon fill="none" stroke="black" stroke-width="2" points="329,-276 253,-276 253,-240 335,-240 335,-270 329,-276"/>
<polyline fill="none" stroke="black" stroke-width="2" points="329,-276 329,-270"/>
<polyline fill="none" stroke="black" stroke-width="2" points="335,-270 329,-270"/>
<text text-anchor="middle" x="294" y="-254.88" font-family="monospace" font-size="10.00">Makefile.am</text>
</g>
<!-- program02&#45;&gt;file04 -->
<g id="edge21" class="edge">
<title>program02&#45;&gt;file04</title>
<path fill="none" stroke="black" d="M440.98,-383.02C423.96,-364.36 395.85,-334.76 369,-312 356.96,-301.8 343.02,-291.56 330.45,-282.84"/>
<polygon fill="black" stroke="black" points="332.81,-279.54 322.58,-276.78 328.86,-285.32 332.81,-279.54"/>
</g>
<!-- file11 -->
<g id="node18" class="node">
<title>file11</title>
<polygon fill="none" stroke="black" stroke-width="2" points="208,-276 96,-276 96,-240 214,-240 214,-270 208,-276"/>
<polyline fill="none" stroke="black" stroke-width="2" points="208,-276 208,-270"/>
<polyline fill="none" stroke="black" stroke-width="2" points="214,-270 208,-270"/>
<text text-anchor="middle" x="155" y="-254.88" font-family="monospace" font-size="10.00">tests/Makefile.am</text>
</g>
<!-- program02&#45;&gt;file11 -->
<g id="edge22" class="edge">
<title>program02&#45;&gt;file11</title>
<path fill="none" stroke="black" d="M418.68,-383.16C402.12,-374.2 383.3,-362.2 369,-348 355.7,-334.78 361.98,-323.28 347,-312 327.66,-297.42 271.99,-282.93 225.54,-272.79"/>
<polygon fill="black" stroke="black" points="226.39,-269.18 215.88,-270.5 224.92,-276.02 226.39,-269.18"/>
</g>
<!-- program03 -->
<g id="node4" class="node">
<title>program03</title>
<polygon fill="none" stroke="black" points="552,-276 362,-276 362,-240 552,-240 552,-276"/>
<text text-anchor="middle" x="457" y="-261.25" font-family="monospace" font-size="10.00">( Step.1 )</text>
<text text-anchor="middle" x="457" y="-248.5" font-family="monospace" font-size="10.00">aclocal &#160;&#160;&#160;&#160;&#160;&#160;&#160;&#160;&#160;&#160;&#160;&#160;&#160;&#160;&#160;&#160;&#160;&#160;&#160;&#160;&#160;</text>
</g>
<!-- program99&#45;&gt;program03 -->
<!-- program04 -->
<g id="node5" class="node">
<title>program04</title>
<polygon fill="none" stroke="black" points="552,-204 362,-204 362,-168 552,-168 552,-204"/>
<text text-anchor="middle" x="457" y="-189.25" font-family="monospace" font-size="10.00">( Step.2 )</text>
<text text-anchor="middle" x="457" y="-176.5" font-family="monospace" font-size="10.00">autoconf &#160;&#160;&#160;&#160;&#160;&#160;&#160;&#160;&#160;&#160;&#160;&#160;&#160;&#160;&#160;&#160;&#160;&#160;&#160;&#160;</text>
</g>
<!-- program03&#45;&gt;program04 -->
<!-- program05 -->
<g id="node6" class="node">
<title>program05</title>
<polygon fill="none" stroke="black" points="552,-132 362,-132 362,-96 552,-96 552,-132"/>
<text text-anchor="middle" x="457" y="-117.25" font-family="monospace" font-size="10.00">( Step.3 )</text>
<text text-anchor="middle" x="457" y="-104.5" font-family="monospace" font-size="10.00">automake &#45;&#45;add&#45;missing &#160;&#160;&#160;&#160;&#160;&#160;</text>
</g>
<!-- program04&#45;&gt;program05 -->
<!-- program06 -->
<g id="node7" class="node">
<title>program06</title>
<polygon fill="none" stroke="black" stroke-dasharray="1,5" points="552,-60 362,-60 362,-24 552,-24 552,-60"/>
<text text-anchor="middle" x="457" y="-45.25" font-family="monospace" font-size="10.00">( Step.4 )</text>
<text text-anchor="middle" x="457" y="-32.5" font-family="monospace" font-size="10.00">./configure &#160;&#160;&#160;&#160;&#160;&#160;&#160;&#160;&#160;&#160;&#160;&#160;&#160;&#160;&#160;&#160;&#160;</text>
</g>
<!-- program05&#45;&gt;program06 -->
<!-- file01 -->
<g id="node8" class="node">
<title>file01</title>
<polygon fill="none" stroke="black" points="314,-492 244,-492 244,-456 320,-456 320,-486 314,-492"/>
<polyline fill="none" stroke="black" points="314,-492 314,-486"/>
<polyline fill="none" stroke="black" points="320,-486 314,-486"/>
<text text-anchor="middle" x="282" y="-470.88" font-family="monospace" font-size="10.00">docs/*.dot</text>
</g>
<!-- file02 -->
<g id="node9" class="node">
<title>file02</title>
<polygon fill="none" stroke="black" stroke-dasharray="1,5" points="332,-420 262,-420 262,-384 338,-384 338,-414 332,-420"/>
<polyline fill="none" stroke="black" stroke-dasharray="1,5" points="332,-420 332,-414"/>
<polyline fill="none" stroke="black" stroke-dasharray="1,5" points="338,-414 332,-414"/>
<text text-anchor="middle" x="300" y="-398.88" font-family="monospace" font-size="10.00">aclocal.m4</text>
</g>
<!-- file01&#45;&gt;file02 -->
<!-- file08 -->
<g id="node15" class="node">
<title>file08</title>
<polygon fill="none" stroke="black" points="184,-492 114,-492 114,-456 190,-456 190,-486 184,-492"/>
<polyline fill="none" stroke="black" points="184,-492 184,-486"/>
<polyline fill="none" stroke="black" points="190,-486 184,-486"/>
<text text-anchor="middle" x="152" y="-470.88" font-family="monospace" font-size="10.00">docs/*.svg</text>
</g>
<!-- file01&#45;&gt;file08 -->
<!-- file02&#45;&gt;file03 -->
<!-- file03&#45;&gt;file04 -->
<!-- file05 -->
<g id="node12" class="node">
<title>file05</title>
<polygon fill="none" stroke="black" stroke-dasharray="1,5" points="326,-204 250,-204 250,-168 332,-168 332,-198 326,-204"/>
<polyline fill="none" stroke="black" stroke-dasharray="1,5" points="326,-204 326,-198"/>
<polyline fill="none" stroke="black" stroke-dasharray="1,5" points="332,-198 326,-198"/>
<text text-anchor="middle" x="291" y="-182.88" font-family="monospace" font-size="10.00">Makefile.in</text>
</g>
<!-- file04&#45;&gt;file05 -->
<!-- file06 -->
<g id="node13" class="node">
<title>file06</title>
<polygon fill="none" stroke="black" stroke-dasharray="1,5" points="314,-132 256,-132 256,-96 320,-96 320,-126 314,-132"/>
<polyline fill="none" stroke="black" stroke-dasharray="1,5" points="314,-132 314,-126"/>
<polyline fill="none" stroke="black" stroke-dasharray="1,5" points="320,-126 314,-126"/>
<text text-anchor="middle" x="288" y="-110.88" font-family="monospace" font-size="10.00">Makefile</text>
</g>
<!-- file05&#45;&gt;file06 -->
<!-- file07 -->
<g id="node14" class="node">
<title>file07</title>
<polygon fill="none" stroke="black" stroke-dasharray="1,5" points="332,-60 226,-60 226,-24 338,-24 338,-54 332,-60"/>
<polyline fill="none" stroke="black" stroke-dasharray="1,5" points="332,-60 332,-54"/>
<polyline fill="none" stroke="black" stroke-dasharray="1,5" points="338,-54 332,-54"/>
<text text-anchor="middle" x="282" y="-38.88" font-family="monospace" font-size="10.00">autom4te.cache/*</text>
</g>
<!-- file06&#45;&gt;file07 -->
<!-- file09 -->
<g id="node16" class="node">
<title>file09</title>
<polygon fill="none" stroke="black" stroke-width="2" points="238,-420 24,-420 24,-384 244,-384 244,-414 238,-420"/>
<polyline fill="none" stroke="black" stroke-width="2" points="238,-420 238,-414"/>
<polyline fill="none" stroke="black" stroke-width="2" points="244,-414 238,-414"/>
<text text-anchor="middle" x="134" y="-398.88" font-family="monospace" font-size="10.00">tools/GenAutotoolsAcAm_UserFile.pm</text>
</g>
<!-- file08&#45;&gt;file09 -->
<!-- file09&#45;&gt;program02 -->
<g id="edge19" class="edge">
<title>file09&#45;&gt;program02</title>
<path fill="none" stroke="black" d="M188.74,-420.96C211.16,-427.78 237.53,-434.62 262,-438 296.78,-442.8 306.29,-443.26 341,-438 359.65,-435.17 379.43,-429.93 397.27,-424.3"/>
<polygon fill="black" stroke="black" points="398.1,-427.38 406.53,-420.95 395.93,-420.72 398.1,-427.38"/>
</g>
<!-- file10 -->
<g id="node17" class="node">
<title>file10</title>
<polygon fill="none" stroke="black" stroke-dasharray="1,5" points="170,-348 112,-348 112,-312 176,-312 176,-342 170,-348"/>
<polyline fill="none" stroke="black" stroke-dasharray="1,5" points="170,-348 170,-342"/>
<polyline fill="none" stroke="black" stroke-dasharray="1,5" points="176,-342 170,-342"/>
<text text-anchor="middle" x="144" y="-326.88" font-family="monospace" font-size="10.00">config.*</text>
</g>
<!-- file09&#45;&gt;file10 -->
<!-- file10&#45;&gt;file11 -->
<!-- file12 -->
<g id="node19" class="node">
<title>file12</title>
<polygon fill="none" stroke="black" stroke-dasharray="1,5" points="208,-204 96,-204 96,-168 214,-168 214,-198 208,-204"/>
<polyline fill="none" stroke="black" stroke-dasharray="1,5" points="208,-204 208,-198"/>
<polyline fill="none" stroke="black" stroke-dasharray="1,5" points="214,-198 208,-198"/>
<text text-anchor="middle" x="155" y="-182.88" font-family="monospace" font-size="10.00">tests/Makefile.in</text>
</g>
<!-- file11&#45;&gt;file12 -->
<!-- file13 -->
<g id="node20" class="node">
<title>file13</title>
<polygon fill="none" stroke="black" stroke-dasharray="1,5" points="199,-132 105,-132 105,-96 205,-96 205,-126 199,-132"/>
<polyline fill="none" stroke="black" stroke-dasharray="1,5" points="199,-132 199,-126"/>
<polyline fill="none" stroke="black" stroke-dasharray="1,5" points="205,-126 199,-126"/>
<text text-anchor="middle" x="155" y="-110.88" font-family="monospace" font-size="10.00">tests/Makefile</text>
</g>
<!-- file12&#45;&gt;file13 -->
</g>
</svg>
