<?xml version="1.0" encoding="UTF-8" standalone="no"?>
<!DOCTYPE svg PUBLIC "-//W3C//DTD SVG 1.1//EN"
 "http://www.w3.org/Graphics/SVG/1.1/DTD/svg11.dtd">
<!-- Generated by graphviz version 8.0.5 (20230508.1809)
 -->
<!-- Title: physical_directory_structure Pages: 1 -->
<svg width="584pt" height="572pt"
 viewBox="0.00 0.00 584.00 571.50" xmlns="http://www.w3.org/2000/svg" xmlns:xlink="http://www.w3.org/1999/xlink">
<g id="graph0" class="graph" transform="scale(1 1) rotate(0) translate(4 567.5)">
<title>physical_directory_structure</title>
<polygon fill="white" stroke="none" points="-4,4 -4,-567.5 580,-567.5 580,4 -4,4"/>
<g id="clust1" class="cluster">
<title>cluster_all</title>
<path fill="none" stroke="black" d="M20,-8C20,-8 556,-8 556,-8 562,-8 568,-14 568,-20 568,-20 568,-543.5 568,-543.5 568,-549.5 562,-555.5 556,-555.5 556,-555.5 20,-555.5 20,-555.5 14,-555.5 8,-549.5 8,-543.5 8,-543.5 8,-20 8,-20 8,-14 14,-8 20,-8"/>
<text text-anchor="middle" x="288" y="-538.2" font-family="monospace" font-size="14.00">Build environment using &quot;autotools&quot; ( step.1 )</text>
</g>
<g id="clust2" class="cluster">
<title>cluster_program</title>
<polygon fill="none" stroke="black" points="354,-16 354,-522.25 560,-522.25 560,-16 354,-16"/>
<text text-anchor="middle" x="457" y="-506.85" font-family="monospace" font-size="12.00">Program</text>
</g>
<g id="clust4" class="cluster">
<title>cluster_file</title>
<polygon fill="none" stroke="black" points="16,-16 16,-522.25 346,-522.25 346,-16 16,-16"/>
<text text-anchor="middle" x="181" y="-506.85" font-family="monospace" font-size="12.00">Files</text>
</g>
<!-- program01 -->
<g id="node1" class="node">
<title>program01</title>
<polygon fill="none" stroke="black" points="552,-492 362,-492 362,-456 552,-456 552,-492"/>
<text text-anchor="middle" x="457" y="-477.25" font-family="monospace" font-size="10.00">( Step.pre&#45;1 )</text>
<text text-anchor="middle" x="457" y="-464.5" font-family="monospace" font-size="10.00">./tools/create_graph.sh &#160;&#160;&#160;&#160;&#160;</text>
</g>
<!-- program02 -->
<g id="node2" class="node">
<title>program02</title>
<polygon fill="none" stroke="black" points="552,-420 362,-420 362,-384 552,-384 552,-420"/>
<text text-anchor="middle" x="457" y="-405.25" font-family="monospace" font-size="10.00">( Step.pre&#45;2 )</text>
<text text-anchor="middle" x="457" y="-392.5" font-family="monospace" font-size="10.00">./tools/gen_autotools_acam.pl</text>
</g>
<!-- program01&#45;&gt;program02 -->
<!-- program99 -->
<!-- program02&#45;&gt;program99 -->
<!-- program03 -->
<g id="node4" class="node">
<title>program03</title>
<polygon fill="none" stroke="black" stroke-width="2" points="552,-276 362,-276 362,-240 552,-240 552,-276"/>
<text text-anchor="middle" x="457" y="-261.25" font-family="monospace" font-size="10.00">( Step.1 )</text>
<text text-anchor="middle" x="457" y="-248.5" font-family="monospace" font-size="10.00">aclocal &#160;&#160;&#160;&#160;&#160;&#160;&#160;&#160;&#160;&#160;&#160;&#160;&#160;&#160;&#160;&#160;&#160;&#160;&#160;&#160;&#160;</text>
</g>
<!-- program99&#45;&gt;program03 -->
<!-- program04 -->
<g id="node5" class="node">
<title>program04</title>
<polygon fill="none" stroke="black" points="552,-204 362,-204 362,-168 552,-168 552,-204"/>
<text text-anchor="middle" x="457" y="-189.25" font-family="monospace" font-size="10.00">( Step.2 )</text>
<text text-anchor="middle" x="457" y="-176.5" font-family="monospace" font-size="10.00">autoconf &#160;&#160;&#160;&#160;&#160;&#160;&#160;&#160;&#160;&#160;&#160;&#160;&#160;&#160;&#160;&#160;&#160;&#160;&#160;&#160;</text>
</g>
<!-- program03&#45;&gt;program04 -->
<!-- file02 -->
<g id="node9" class="node">
<title>file02</title>
<polygon fill="none" stroke="black" stroke-width="2" points="332,-420 262,-420 262,-384 338,-384 338,-414 332,-420"/>
<polyline fill="none" stroke="black" stroke-width="2" points="332,-420 332,-414"/>
<polyline fill="none" stroke="black" stroke-width="2" points="338,-414 332,-414"/>
<text text-anchor="middle" x="300" y="-398.88" font-family="monospace" font-size="10.00">aclocal.m4</text>
</g>
<!-- program03&#45;&gt;file02 -->
<g id="edge20" class="edge">
<title>program03&#45;&gt;file02</title>
<path fill="none" stroke="black" d="M437.28,-276.84C409.64,-301.83 359.27,-347.39 327.83,-375.83"/>
<polygon fill="black" stroke="black" points="325.95,-372.71 320.88,-382.02 330.65,-377.9 325.95,-372.71"/>
</g>
<!-- file07 -->
<g id="node14" class="node">
<title>file07</title>
<polygon fill="none" stroke="black" stroke-width="2" points="332,-60 226,-60 226,-24 338,-24 338,-54 332,-60"/>
<polyline fill="none" stroke="black" stroke-width="2" points="332,-60 332,-54"/>
<polyline fill="none" stroke="black" stroke-width="2" points="338,-54 332,-54"/>
<text text-anchor="middle" x="282" y="-38.88" font-family="monospace" font-size="10.00">autom4te.cache/*</text>
</g>
<!-- program03&#45;&gt;file07 -->
<g id="edge21" class="edge">
<title>program03&#45;&gt;file07</title>
<path fill="none" stroke="black" d="M400.76,-239.11C383.15,-230.96 365.17,-219.57 353,-204 322.66,-165.18 350.36,-139.9 328,-96 323.07,-86.33 316.01,-76.97 308.89,-68.88"/>
<polygon fill="black" stroke="black" points="311.9,-66.91 302.53,-61.95 306.77,-71.66 311.9,-66.91"/>
</g>
<!-- program05 -->
<g id="node6" class="node">
<title>program05</title>
<polygon fill="none" stroke="black" points="552,-132 362,-132 362,-96 552,-96 552,-132"/>
<text text-anchor="middle" x="457" y="-117.25" font-family="monospace" font-size="10.00">( Step.3 )</text>
<text text-anchor="middle" x="457" y="-104.5" font-family="monospace" font-size="10.00">automake &#45;&#45;add&#45;missing &#45;&#45;copy</text>
</g>
<!-- program04&#45;&gt;program05 -->
<!-- program06 -->
<g id="node7" class="node">
<title>program06</title>
<polygon fill="none" stroke="black" stroke-dasharray="1,5" points="552,-60 362,-60 362,-24 552,-24 552,-60"/>
<text text-anchor="middle" x="457" y="-45.25" font-family="monospace" font-size="10.00">( Step.4 )</text>
<text text-anchor="middle" x="457" y="-32.5" font-family="monospace" font-size="10.00">./configure &#160;&#160;&#160;&#160;&#160;&#160;&#160;&#160;&#160;&#160;&#160;&#160;&#160;&#160;&#160;&#160;&#160;</text>
</g>
<!-- program05&#45;&gt;program06 -->
<!-- file01 -->
<g id="node8" class="node">
<title>file01</title>
<polygon fill="none" stroke="black" points="314,-492 244,-492 244,-456 320,-456 320,-486 314,-492"/>
<polyline fill="none" stroke="black" points="314,-492 314,-486"/>
<polyline fill="none" stroke="black" points="320,-486 314,-486"/>
<text text-anchor="middle" x="282" y="-470.88" font-family="monospace" font-size="10.00">docs/*.dot</text>
</g>
<!-- file01&#45;&gt;file02 -->
<!-- file08 -->
<g id="node15" class="node">
<title>file08</title>
<polygon fill="none" stroke="black" points="184,-492 114,-492 114,-456 190,-456 190,-486 184,-492"/>
<polyline fill="none" stroke="black" points="184,-492 184,-486"/>
<polyline fill="none" stroke="black" points="190,-486 184,-486"/>
<text text-anchor="middle" x="152" y="-470.88" font-family="monospace" font-size="10.00">docs/*.svg</text>
</g>
<!-- file01&#45;&gt;file08 -->
<!-- file03 -->
<g id="node10" class="node">
<title>file03</title>
<polygon fill="none" stroke="black" stroke-width="2" points="332,-348 250,-348 250,-312 338,-312 338,-342 332,-348"/>
<polyline fill="none" stroke="black" stroke-width="2" points="332,-348 332,-342"/>
<polyline fill="none" stroke="black" stroke-width="2" points="338,-342 332,-342"/>
<text text-anchor="middle" x="294" y="-326.88" font-family="monospace" font-size="10.00">configure.ac</text>
</g>
<!-- file02&#45;&gt;file03 -->
<!-- file03&#45;&gt;program03 -->
<g id="edge19" class="edge">
<title>file03&#45;&gt;program03</title>
<path fill="none" stroke="black" d="M335.55,-311.15C356.74,-302.06 382.71,-290.9 405.19,-281.25"/>
<polygon fill="black" stroke="black" points="406.43,-284.1 414.24,-276.93 403.67,-277.66 406.43,-284.1"/>
</g>
<!-- file04 -->
<g id="node11" class="node">
<title>file04</title>
<polygon fill="none" stroke="black" points="314,-276 238,-276 238,-240 320,-240 320,-270 314,-276"/>
<polyline fill="none" stroke="black" points="314,-276 314,-270"/>
<polyline fill="none" stroke="black" points="320,-270 314,-270"/>
<text text-anchor="middle" x="279" y="-254.88" font-family="monospace" font-size="10.00">Makefile.am</text>
</g>
<!-- file03&#45;&gt;file04 -->
<!-- file05 -->
<g id="node12" class="node">
<title>file05</title>
<polygon fill="none" stroke="black" stroke-dasharray="1,5" points="298,-204 222,-204 222,-168 304,-168 304,-198 298,-204"/>
<polyline fill="none" stroke="black" stroke-dasharray="1,5" points="298,-204 298,-198"/>
<polyline fill="none" stroke="black" stroke-dasharray="1,5" points="304,-198 298,-198"/>
<text text-anchor="middle" x="263" y="-182.88" font-family="monospace" font-size="10.00">Makefile.in</text>
</g>
<!-- file04&#45;&gt;file05 -->
<!-- file06 -->
<g id="node13" class="node">
<title>file06</title>
<polygon fill="none" stroke="black" stroke-dasharray="1,5" points="293,-132 235,-132 235,-96 299,-96 299,-126 293,-132"/>
<polyline fill="none" stroke="black" stroke-dasharray="1,5" points="293,-132 293,-126"/>
<polyline fill="none" stroke="black" stroke-dasharray="1,5" points="299,-126 293,-126"/>
<text text-anchor="middle" x="267" y="-110.88" font-family="monospace" font-size="10.00">Makefile</text>
</g>
<!-- file05&#45;&gt;file06 -->
<!-- file06&#45;&gt;file07 -->
<!-- file07&#45;&gt;program03 -->
<g id="edge22" class="edge">
<title>file07&#45;&gt;program03</title>
<path fill="none" stroke="black" d="M291.92,-60.72C297.25,-70.82 303.62,-83.85 308,-96 324.75,-142.44 302.19,-166.24 334,-204 345.1,-217.18 360.09,-227.17 375.78,-234.71"/>
<polygon fill="black" stroke="black" points="374.05,-238.22 384.6,-239.1 376.9,-231.83 374.05,-238.22"/>
</g>
<!-- file09 -->
<g id="node16" class="node">
<title>file09</title>
<polygon fill="none" stroke="black" points="238,-420 24,-420 24,-384 244,-384 244,-414 238,-420"/>
<polyline fill="none" stroke="black" points="238,-420 238,-414"/>
<polyline fill="none" stroke="black" points="244,-414 238,-414"/>
<text text-anchor="middle" x="134" y="-398.88" font-family="monospace" font-size="10.00">tools/GenAutotoolsAcAm_UserFile.pm</text>
</g>
<!-- file08&#45;&gt;file09 -->
<!-- file10 -->
<g id="node17" class="node">
<title>file10</title>
<polygon fill="none" stroke="black" stroke-dasharray="1,5" points="160,-348 102,-348 102,-312 166,-312 166,-342 160,-348"/>
<polyline fill="none" stroke="black" stroke-dasharray="1,5" points="160,-348 160,-342"/>
<polyline fill="none" stroke="black" stroke-dasharray="1,5" points="166,-342 160,-342"/>
<text text-anchor="middle" x="134" y="-326.88" font-family="monospace" font-size="10.00">config.*</text>
</g>
<!-- file09&#45;&gt;file10 -->
<!-- file11 -->
<g id="node18" class="node">
<title>file11</title>
<polygon fill="none" stroke="black" points="187,-276 75,-276 75,-240 193,-240 193,-270 187,-276"/>
<polyline fill="none" stroke="black" points="187,-276 187,-270"/>
<polyline fill="none" stroke="black" points="193,-270 187,-270"/>
<text text-anchor="middle" x="134" y="-254.88" font-family="monospace" font-size="10.00">tests/Makefile.am</text>
</g>
<!-- file10&#45;&gt;file11 -->
<!-- file12 -->
<g id="node19" class="node">
<title>file12</title>
<polygon fill="none" stroke="black" stroke-dasharray="1,5" points="187,-204 75,-204 75,-168 193,-168 193,-198 187,-204"/>
<polyline fill="none" stroke="black" stroke-dasharray="1,5" points="187,-204 187,-198"/>
<polyline fill="none" stroke="black" stroke-dasharray="1,5" points="193,-198 187,-198"/>
<text text-anchor="middle" x="134" y="-182.88" font-family="monospace" font-size="10.00">tests/Makefile.in</text>
</g>
<!-- file11&#45;&gt;file12 -->
<!-- file13 -->
<g id="node20" class="node">
<title>file13</title>
<polygon fill="none" stroke="black" stroke-dasharray="1,5" points="178,-132 84,-132 84,-96 184,-96 184,-126 178,-132"/>
<polyline fill="none" stroke="black" stroke-dasharray="1,5" points="178,-132 178,-126"/>
<polyline fill="none" stroke="black" stroke-dasharray="1,5" points="184,-126 178,-126"/>
<text text-anchor="middle" x="134" y="-110.88" font-family="monospace" font-size="10.00">tests/Makefile</text>
</g>
<!-- file12&#45;&gt;file13 -->
</g>
</svg>
